<?xml version="1.0" standalone="no"?>
<!DOCTYPE svg PUBLIC "-//W3C//DTD SVG 1.1//EN" "http://www.w3.org/Graphics/SVG/1.1/DTD/svg11.dtd" >
<svg>
<metadata>
Created by FontForge 20090914 at Sun Aug 21 19:01:15 2016
 By www-data
Created by svo with FontForge 2.0 (http://fontforge.sf.net)

Use font size 15 on Windows
Use font size 20 on Mac/Linux 
</metadata>
<defs>
<font id="Glass_TTY_VT220" horiz-adv-x="500" >
  <font-face 
    font-family="Glass TTY VT220"
    font-weight="500"
    font-stretch="normal"
    units-per-em="1000"
    panose-1="2 0 6 9 0 0 0 0 0 0"
    ascent="800"
    descent="-200"
    x-height="500"
    cap-height="700"
    bbox="-0.00195312 -150 400.004 800.001"
    underline-thickness="19"
    underline-position="-99"
    unicode-range="U+0001-U+0451"
  />
<missing-glyph 
d="M33 0v666h265v-666h-265zM66 33h199v600h-199v-600z" />
    <glyph glyph-name=".notdef" 
d="M33 0v666h265v-666h-265zM66 33h199v600h-199v-600z" />
    <glyph glyph-name="uni0000" 
d="M150 75c0 10.667 3.16699 17.5 9.5 20.5s19.833 4.5 40.5 4.5s34.167 -1.5 40.5 -4.5s9.5 -9.83301 9.5 -20.5s-3.16699 -17.5 -9.5 -20.5s-19.833 -4.5 -40.5 -4.5s-34.167 1.5 -40.5 4.5s-9.5 9.83301 -9.5 20.5zM150 275c0 10.667 3.16699 17.5 9.5 20.5
s19.833 4.5 40.5 4.5s34.167 -1.5 40.5 -4.5s9.5 -9.83301 9.5 -20.5s-3.16699 -17.5 -9.5 -20.5s-19.833 -4.5 -40.5 -4.5s-34.167 1.5 -40.5 4.5s-9.5 9.83301 -9.5 20.5zM150 375c0 10.667 3.16699 17.5 9.5 20.5s19.833 4.5 40.5 4.5s34.167 -1.5 40.5 -4.5
s9.5 -9.83301 9.5 -20.5s-3.16699 -17.5 -9.5 -20.5s-19.833 -4.5 -40.5 -4.5s-34.167 1.5 -40.5 4.5s-9.5 9.83301 -9.5 20.5zM50 475c0 11.333 4.33301 18.333 13 21s29.334 4 62.001 4s53.334 -1.33301 62.001 -4s13 -9.66699 13 -21s-4.33301 -18.333 -13 -21
s-29.334 -4 -62.001 -4s-53.334 1.33301 -62.001 4s-13 9.66699 -13 21zM300 575c0 10.667 3.16699 17.5 9.5 20.5s19.833 4.5 40.5 4.5s34.167 -1.5 40.5 -4.5s9.5 -9.83301 9.5 -20.5s-3.16699 -17.5 -9.5 -20.5s-19.833 -4.5 -40.5 -4.5s-34.167 1.5 -40.5 4.5
s-9.5 9.83301 -9.5 20.5zM0 575c0 10.667 3.16699 17.5 9.5 20.5s19.833 4.5 40.5 4.5s34.167 -1.5 40.5 -4.5s9.5 -9.83301 9.5 -20.5s-3.16699 -17.5 -9.5 -20.5s-19.833 -4.5 -40.5 -4.5s-34.167 1.5 -40.5 4.5s-9.5 9.83301 -9.5 20.5zM50 675
c0 10.667 5 17.334 15 20.001c12.667 3.33301 57.667 5 135 5c86 0 133.667 -3 143 -9c4.66699 -2.66699 7 -8 7 -16c0 -10.667 -5 -17.334 -15 -20.001c-12.667 -3.33301 -57.667 -5 -135 -5c-86 0 -133.667 3 -143 9c-4.66699 2.66699 -7 8 -7 16z" />
    <glyph glyph-name="uni0000" 
d="M150 75c0 10.667 3.16699 17.5 9.5 20.5s19.833 4.5 40.5 4.5s34.167 -1.5 40.5 -4.5s9.5 -9.83301 9.5 -20.5s-3.16699 -17.5 -9.5 -20.5s-19.833 -4.5 -40.5 -4.5s-34.167 1.5 -40.5 4.5s-9.5 9.83301 -9.5 20.5zM150 275c0 10.667 3.16699 17.5 9.5 20.5
s19.833 4.5 40.5 4.5s34.167 -1.5 40.5 -4.5s9.5 -9.83301 9.5 -20.5s-3.16699 -17.5 -9.5 -20.5s-19.833 -4.5 -40.5 -4.5s-34.167 1.5 -40.5 4.5s-9.5 9.83301 -9.5 20.5zM150 375c0 10.667 3.16699 17.5 9.5 20.5s19.833 4.5 40.5 4.5s34.167 -1.5 40.5 -4.5
s9.5 -9.83301 9.5 -20.5s-3.16699 -17.5 -9.5 -20.5s-19.833 -4.5 -40.5 -4.5s-34.167 1.5 -40.5 4.5s-9.5 9.83301 -9.5 20.5zM50 475c0 11.333 4.33301 18.333 13 21s29.334 4 62.001 4s53.334 -1.33301 62.001 -4s13 -9.66699 13 -21s-4.33301 -18.333 -13 -21
s-29.334 -4 -62.001 -4s-53.334 1.33301 -62.001 4s-13 9.66699 -13 21zM300 575c0 10.667 3.16699 17.5 9.5 20.5s19.833 4.5 40.5 4.5s34.167 -1.5 40.5 -4.5s9.5 -9.83301 9.5 -20.5s-3.16699 -17.5 -9.5 -20.5s-19.833 -4.5 -40.5 -4.5s-34.167 1.5 -40.5 4.5
s-9.5 9.83301 -9.5 20.5zM0 575c0 10.667 3.16699 17.5 9.5 20.5s19.833 4.5 40.5 4.5s34.167 -1.5 40.5 -4.5s9.5 -9.83301 9.5 -20.5s-3.16699 -17.5 -9.5 -20.5s-19.833 -4.5 -40.5 -4.5s-34.167 1.5 -40.5 4.5s-9.5 9.83301 -9.5 20.5zM50 675
c0 10.667 5 17.334 15 20.001c12.667 3.33301 57.667 5 135 5c86 0 133.667 -3 143 -9c4.66699 -2.66699 7 -8 7 -16c0 -10.667 -5 -17.334 -15 -20.001c-12.667 -3.33301 -57.667 -5 -135 -5c-86 0 -133.667 3 -143 9c-4.66699 2.66699 -7 8 -7 16z" />
    <glyph glyph-name="uni0001" 
d="M150 75c0 10.667 3.16699 17.5 9.5 20.5s19.833 4.5 40.5 4.5s34.167 -1.5 40.5 -4.5s9.5 -9.83301 9.5 -20.5s-3.16699 -17.5 -9.5 -20.5s-19.833 -4.5 -40.5 -4.5s-34.167 1.5 -40.5 4.5s-9.5 9.83301 -9.5 20.5zM100 175c0 11.333 5.33301 18.333 16 21s38.667 4 84 4
s73.333 -1.33301 84 -4s16 -9.66699 16 -21s-5.33301 -18.333 -16 -21s-38.667 -4 -84 -4s-73.333 1.33301 -84 4s-16 9.66699 -16 21zM50 275c0 10.667 5 17.334 15 20.001c12.667 3.33301 57.667 5 135 5c86 0 133.667 -3 143 -9c4.66699 -2.66699 7 -8 7 -16
c0 -10.667 -5 -17.334 -15 -20.001c-12.667 -3.33301 -57.667 -5 -135 -5c-86 0 -133.667 3 -143 9c-4.66699 2.66699 -7 8 -7 16zM0 375c0 10 5 16.333 15 19c16 4 77.667 6 185 6c115.333 0 179 -3 191 -9c6 -2.66699 9 -8 9 -16c0 -10 -5 -16.333 -15 -19
c-16 -4 -77.667 -6 -185 -6c-115.333 0 -179 3 -191 9c-6 2.66699 -9 8 -9 16zM50 475c0 10.667 5 17.334 15 20.001c12.667 3.33301 57.667 5 135 5c86 0 133.667 -3 143 -9c4.66699 -2.66699 7 -8 7 -16c0 -10.667 -5 -17.334 -15 -20.001
c-12.667 -3.33301 -57.667 -5 -135 -5c-86 0 -133.667 3 -143 9c-4.66699 2.66699 -7 8 -7 16zM100 575c0 11.333 5.33301 18.333 16 21s38.667 4 84 4s73.333 -1.33301 84 -4s16 -9.66699 16 -21s-5.33301 -18.333 -16 -21s-38.667 -4 -84 -4s-73.333 1.33301 -84 4
s-16 9.66699 -16 21zM150 675c0 10.667 3.16699 17.5 9.5 20.5s19.833 4.5 40.5 4.5s34.167 -1.5 40.5 -4.5s9.5 -9.83301 9.5 -20.5s-3.16699 -17.5 -9.5 -20.5s-19.833 -4.5 -40.5 -4.5s-34.167 1.5 -40.5 4.5s-9.5 9.83301 -9.5 20.5z" />
    <glyph glyph-name="uni0002" 
d="M300 75c0 10.667 3.16699 17.5 9.5 20.5s19.833 4.5 40.5 4.5s34.167 -1.5 40.5 -4.5s9.5 -9.83301 9.5 -20.5s-3.16699 -17.5 -9.5 -20.5s-19.833 -4.5 -40.5 -4.5s-34.167 1.5 -40.5 4.5s-9.5 9.83301 -9.5 20.5zM150 75c0 10.667 3.16699 17.5 9.5 20.5
s19.833 4.5 40.5 4.5s34.167 -1.5 40.5 -4.5s9.5 -9.83301 9.5 -20.5s-3.16699 -17.5 -9.5 -20.5s-19.833 -4.5 -40.5 -4.5s-34.167 1.5 -40.5 4.5s-9.5 9.83301 -9.5 20.5zM0 75c0 10.667 3.16699 17.5 9.5 20.5s19.833 4.5 40.5 4.5s34.167 -1.5 40.5 -4.5
s9.5 -9.83301 9.5 -20.5s-3.16699 -17.5 -9.5 -20.5s-19.833 -4.5 -40.5 -4.5s-34.167 1.5 -40.5 4.5s-9.5 9.83301 -9.5 20.5zM250 175c0 10.667 3.16699 17.5 9.5 20.5s19.833 4.5 40.5 4.5s34.167 -1.5 40.5 -4.5s9.5 -9.83301 9.5 -20.5s-3.16699 -17.5 -9.5 -20.5
s-19.833 -4.5 -40.5 -4.5s-34.167 1.5 -40.5 4.5s-9.5 9.83301 -9.5 20.5zM50 175c0 10.667 3.16699 17.5 9.5 20.5s19.833 4.5 40.5 4.5s34.167 -1.5 40.5 -4.5s9.5 -9.83301 9.5 -20.5s-3.16699 -17.5 -9.5 -20.5s-19.833 -4.5 -40.5 -4.5s-34.167 1.5 -40.5 4.5
s-9.5 9.83301 -9.5 20.5zM300 275c0 10.667 3.16699 17.5 9.5 20.5s19.833 4.5 40.5 4.5s34.167 -1.5 40.5 -4.5s9.5 -9.83301 9.5 -20.5s-3.16699 -17.5 -9.5 -20.5s-19.833 -4.5 -40.5 -4.5s-34.167 1.5 -40.5 4.5s-9.5 9.83301 -9.5 20.5zM150 275
c0 10.667 3.16699 17.5 9.5 20.5s19.833 4.5 40.5 4.5s34.167 -1.5 40.5 -4.5s9.5 -9.83301 9.5 -20.5s-3.16699 -17.5 -9.5 -20.5s-19.833 -4.5 -40.5 -4.5s-34.167 1.5 -40.5 4.5s-9.5 9.83301 -9.5 20.5zM0 275c0 10.667 3.16699 17.5 9.5 20.5s19.833 4.5 40.5 4.5
s34.167 -1.5 40.5 -4.5s9.5 -9.83301 9.5 -20.5s-3.16699 -17.5 -9.5 -20.5s-19.833 -4.5 -40.5 -4.5s-34.167 1.5 -40.5 4.5s-9.5 9.83301 -9.5 20.5zM250 375c0 10.667 3.16699 17.5 9.5 20.5s19.833 4.5 40.5 4.5s34.167 -1.5 40.5 -4.5s9.5 -9.83301 9.5 -20.5
s-3.16699 -17.5 -9.5 -20.5s-19.833 -4.5 -40.5 -4.5s-34.167 1.5 -40.5 4.5s-9.5 9.83301 -9.5 20.5zM50 375c0 10.667 3.16699 17.5 9.5 20.5s19.833 4.5 40.5 4.5s34.167 -1.5 40.5 -4.5s9.5 -9.83301 9.5 -20.5s-3.16699 -17.5 -9.5 -20.5s-19.833 -4.5 -40.5 -4.5
s-34.167 1.5 -40.5 4.5s-9.5 9.83301 -9.5 20.5zM300 475c0 10.667 3.16699 17.5 9.5 20.5s19.833 4.5 40.5 4.5s34.167 -1.5 40.5 -4.5s9.5 -9.83301 9.5 -20.5s-3.16699 -17.5 -9.5 -20.5s-19.833 -4.5 -40.5 -4.5s-34.167 1.5 -40.5 4.5s-9.5 9.83301 -9.5 20.5zM150 475
c0 10.667 3.16699 17.5 9.5 20.5s19.833 4.5 40.5 4.5s34.167 -1.5 40.5 -4.5s9.5 -9.83301 9.5 -20.5s-3.16699 -17.5 -9.5 -20.5s-19.833 -4.5 -40.5 -4.5s-34.167 1.5 -40.5 4.5s-9.5 9.83301 -9.5 20.5zM0 475c0 10.667 3.16699 17.5 9.5 20.5s19.833 4.5 40.5 4.5
s34.167 -1.5 40.5 -4.5s9.5 -9.83301 9.5 -20.5s-3.16699 -17.5 -9.5 -20.5s-19.833 -4.5 -40.5 -4.5s-34.167 1.5 -40.5 4.5s-9.5 9.83301 -9.5 20.5zM250 575c0 10.667 3.16699 17.5 9.5 20.5s19.833 4.5 40.5 4.5s34.167 -1.5 40.5 -4.5s9.5 -9.83301 9.5 -20.5
s-3.16699 -17.5 -9.5 -20.5s-19.833 -4.5 -40.5 -4.5s-34.167 1.5 -40.5 4.5s-9.5 9.83301 -9.5 20.5zM50 575c0 10.667 3.16699 17.5 9.5 20.5s19.833 4.5 40.5 4.5s34.167 -1.5 40.5 -4.5s9.5 -9.83301 9.5 -20.5s-3.16699 -17.5 -9.5 -20.5s-19.833 -4.5 -40.5 -4.5
s-34.167 1.5 -40.5 4.5s-9.5 9.83301 -9.5 20.5zM300 675c0 10.667 3.16699 17.5 9.5 20.5s19.833 4.5 40.5 4.5s34.167 -1.5 40.5 -4.5s9.5 -9.83301 9.5 -20.5s-3.16699 -17.5 -9.5 -20.5s-19.833 -4.5 -40.5 -4.5s-34.167 1.5 -40.5 4.5s-9.5 9.83301 -9.5 20.5zM150 675
c0 10.667 3.16699 17.5 9.5 20.5s19.833 4.5 40.5 4.5s34.167 -1.5 40.5 -4.5s9.5 -9.83301 9.5 -20.5s-3.16699 -17.5 -9.5 -20.5s-19.833 -4.5 -40.5 -4.5s-34.167 1.5 -40.5 4.5s-9.5 9.83301 -9.5 20.5zM0 675c0 10.667 3.16699 17.5 9.5 20.5s19.833 4.5 40.5 4.5
s34.167 -1.5 40.5 -4.5s9.5 -9.83301 9.5 -20.5s-3.16699 -17.5 -9.5 -20.5s-19.833 -4.5 -40.5 -4.5s-34.167 1.5 -40.5 4.5s-9.5 9.83301 -9.5 20.5z" />
    <glyph glyph-name="uni0003" 
d="M200 -125c0 10.667 3.16699 17.5 9.5 20.5s19.833 4.5 40.5 4.5s34.167 -1.5 40.5 -4.5s9.5 -9.83301 9.5 -20.5s-3.16699 -17.5 -9.5 -20.5s-19.833 -4.5 -40.5 -4.5s-34.167 1.5 -40.5 4.5s-9.5 9.83301 -9.5 20.5zM200 -25c0 10.667 3.16699 17.5 9.5 20.5
s19.833 4.5 40.5 4.5s34.167 -1.5 40.5 -4.5s9.5 -9.83301 9.5 -20.5s-3.16699 -17.5 -9.5 -20.5s-19.833 -4.5 -40.5 -4.5s-34.167 1.5 -40.5 4.5s-9.5 9.83301 -9.5 20.5zM200 75c0 10.667 3.16699 17.5 9.5 20.5s19.833 4.5 40.5 4.5s34.167 -1.5 40.5 -4.5
s9.5 -9.83301 9.5 -20.5s-3.16699 -17.5 -9.5 -20.5s-19.833 -4.5 -40.5 -4.5s-34.167 1.5 -40.5 4.5s-9.5 9.83301 -9.5 20.5zM200 175c0 10.667 3.16699 17.5 9.5 20.5s19.833 4.5 40.5 4.5s34.167 -1.5 40.5 -4.5s9.5 -9.83301 9.5 -20.5s-3.16699 -17.5 -9.5 -20.5
s-19.833 -4.5 -40.5 -4.5s-34.167 1.5 -40.5 4.5s-9.5 9.83301 -9.5 20.5zM0 275c0 10 5 16.333 15 19c16 4 77.667 6 185 6c115.333 0 179 -3 191 -9c6 -2.66699 9 -8 9 -16c0 -10 -5 -16.333 -15 -19c-16 -4 -77.667 -6 -185 -6c-115.333 0 -179 3 -191 9
c-6 2.66699 -9 8 -9 16zM150 375c0 10.667 3.16699 17.5 9.5 20.5s19.833 4.5 40.5 4.5s34.167 -1.5 40.5 -4.5s9.5 -9.83301 9.5 -20.5s-3.16699 -17.5 -9.5 -20.5s-19.833 -4.5 -40.5 -4.5s-34.167 1.5 -40.5 4.5s-9.5 9.83301 -9.5 20.5zM0 375
c0 10.667 3.16699 17.5 9.5 20.5s19.833 4.5 40.5 4.5s34.167 -1.5 40.5 -4.5s9.5 -9.83301 9.5 -20.5s-3.16699 -17.5 -9.5 -20.5s-19.833 -4.5 -40.5 -4.5s-34.167 1.5 -40.5 4.5s-9.5 9.83301 -9.5 20.5zM0 475c0 6 0.833008 10.5 2.5 13.5s7.33398 5.5 17.001 7.5
s21.834 3.16699 36.501 3.5s37.667 0.5 69 0.5s54.333 -0.166992 69 -0.5s26.834 -1.5 36.501 -3.5s15.334 -4.5 17.001 -7.5s2.5 -7.5 2.5 -13.5s-0.833008 -10.5 -2.5 -13.5s-7.33398 -5.5 -17.001 -7.5s-21.834 -3.16699 -36.501 -3.5s-37.667 -0.5 -69 -0.5
s-54.333 0.166992 -69 0.5s-26.834 1.5 -36.501 3.5s-15.334 4.5 -17.001 7.5s-2.5 7.5 -2.5 13.5zM150 575c0 10.667 3.16699 17.5 9.5 20.5s19.833 4.5 40.5 4.5s34.167 -1.5 40.5 -4.5s9.5 -9.83301 9.5 -20.5s-3.16699 -17.5 -9.5 -20.5s-19.833 -4.5 -40.5 -4.5
s-34.167 1.5 -40.5 4.5s-9.5 9.83301 -9.5 20.5zM0 575c0 10.667 3.16699 17.5 9.5 20.5s19.833 4.5 40.5 4.5s34.167 -1.5 40.5 -4.5s9.5 -9.83301 9.5 -20.5s-3.16699 -17.5 -9.5 -20.5s-19.833 -4.5 -40.5 -4.5s-34.167 1.5 -40.5 4.5s-9.5 9.83301 -9.5 20.5zM150 675
c0 10.667 3.16699 17.5 9.5 20.5s19.833 4.5 40.5 4.5s34.167 -1.5 40.5 -4.5s9.5 -9.83301 9.5 -20.5s-3.16699 -17.5 -9.5 -20.5s-19.833 -4.5 -40.5 -4.5s-34.167 1.5 -40.5 4.5s-9.5 9.83301 -9.5 20.5zM0 675c0 10.667 3.16699 17.5 9.5 20.5s19.833 4.5 40.5 4.5
s34.167 -1.5 40.5 -4.5s9.5 -9.83301 9.5 -20.5s-3.16699 -17.5 -9.5 -20.5s-19.833 -4.5 -40.5 -4.5s-34.167 1.5 -40.5 4.5s-9.5 9.83301 -9.5 20.5z" />
    <glyph glyph-name="uni0004" 
d="M150 -125c0 10.667 3.16699 17.5 9.5 20.5s19.833 4.5 40.5 4.5s34.167 -1.5 40.5 -4.5s9.5 -9.83301 9.5 -20.5s-3.16699 -17.5 -9.5 -20.5s-19.833 -4.5 -40.5 -4.5s-34.167 1.5 -40.5 4.5s-9.5 9.83301 -9.5 20.5zM150 -25c0 10.667 3.16699 17.5 9.5 20.5
s19.833 4.5 40.5 4.5s34.167 -1.5 40.5 -4.5s9.5 -9.83301 9.5 -20.5s-3.16699 -17.5 -9.5 -20.5s-19.833 -4.5 -40.5 -4.5s-34.167 1.5 -40.5 4.5s-9.5 9.83301 -9.5 20.5zM150 75c0 11.333 5.33301 18.333 16 21s38.667 4 84 4s73.333 -1.33301 84 -4s16 -9.66699 16 -21
s-5.33301 -18.333 -16 -21s-38.667 -4 -84 -4s-73.333 1.33301 -84 4s-16 9.66699 -16 21zM150 175c0 10.667 3.16699 17.5 9.5 20.5s19.833 4.5 40.5 4.5s34.167 -1.5 40.5 -4.5s9.5 -9.83301 9.5 -20.5s-3.16699 -17.5 -9.5 -20.5s-19.833 -4.5 -40.5 -4.5
s-34.167 1.5 -40.5 4.5s-9.5 9.83301 -9.5 20.5zM150 275c0 6 0.833008 10.5 2.5 13.5s7.33398 5.5 17.001 7.5s21.834 3.16699 36.501 3.5s37.667 0.5 69 0.5s54.333 -0.166992 69 -0.5s26.834 -1.5 36.501 -3.5s15.334 -4.5 17.001 -7.5s2.5 -7.5 2.5 -13.5
s-0.833008 -10.5 -2.5 -13.5s-7.33398 -5.5 -17.001 -7.5s-21.834 -3.16699 -36.501 -3.5s-37.667 -0.5 -69 -0.5s-54.333 0.166992 -69 0.5s-26.834 1.5 -36.501 3.5s-15.334 4.5 -17.001 7.5s-2.5 7.5 -2.5 13.5zM0 275c0 10.667 3.16699 17.5 9.5 20.5
s19.833 4.5 40.5 4.5s34.167 -1.5 40.5 -4.5s9.5 -9.83301 9.5 -20.5s-3.16699 -17.5 -9.5 -20.5s-19.833 -4.5 -40.5 -4.5s-34.167 1.5 -40.5 4.5s-9.5 9.83301 -9.5 20.5zM0 375c0 10.667 3.16699 17.5 9.5 20.5s19.833 4.5 40.5 4.5s34.167 -1.5 40.5 -4.5
s9.5 -9.83301 9.5 -20.5s-3.16699 -17.5 -9.5 -20.5s-19.833 -4.5 -40.5 -4.5s-34.167 1.5 -40.5 4.5s-9.5 9.83301 -9.5 20.5zM0 475c0 11.333 5.33301 18.333 16 21s38.667 4 84 4s73.333 -1.33301 84 -4s16 -9.66699 16 -21s-5.33301 -18.333 -16 -21s-38.667 -4 -84 -4
s-73.333 1.33301 -84 4s-16 9.66699 -16 21zM0 575c0 10.667 3.16699 17.5 9.5 20.5s19.833 4.5 40.5 4.5s34.167 -1.5 40.5 -4.5s9.5 -9.83301 9.5 -20.5s-3.16699 -17.5 -9.5 -20.5s-19.833 -4.5 -40.5 -4.5s-34.167 1.5 -40.5 4.5s-9.5 9.83301 -9.5 20.5zM0 675
c0 6 0.833008 10.5 2.5 13.5s7.33398 5.5 17.001 7.5s21.834 3.16699 36.501 3.5s37.667 0.5 69 0.5s54.333 -0.166992 69 -0.5s26.834 -1.5 36.501 -3.5s15.334 -4.5 17.001 -7.5s2.5 -7.5 2.5 -13.5s-0.833008 -10.5 -2.5 -13.5s-7.33398 -5.5 -17.001 -7.5
s-21.834 -3.16699 -36.501 -3.5s-37.667 -0.5 -69 -0.5s-54.333 0.166992 -69 0.5s-26.834 1.5 -36.501 3.5s-15.334 4.5 -17.001 7.5s-2.5 7.5 -2.5 13.5z" />
    <glyph glyph-name="uni0005" 
d="M300 -125c0 10.667 3.16699 17.5 9.5 20.5s19.833 4.5 40.5 4.5s34.167 -1.5 40.5 -4.5s9.5 -9.83301 9.5 -20.5s-3.16699 -17.5 -9.5 -20.5s-19.833 -4.5 -40.5 -4.5s-34.167 1.5 -40.5 4.5s-9.5 9.83301 -9.5 20.5zM150 -125c0 10.667 3.16699 17.5 9.5 20.5
s19.833 4.5 40.5 4.5s34.167 -1.5 40.5 -4.5s9.5 -9.83301 9.5 -20.5s-3.16699 -17.5 -9.5 -20.5s-19.833 -4.5 -40.5 -4.5s-34.167 1.5 -40.5 4.5s-9.5 9.83301 -9.5 20.5zM300 -25c0 10.667 3.16699 17.5 9.5 20.5s19.833 4.5 40.5 4.5s34.167 -1.5 40.5 -4.5
s9.5 -9.83301 9.5 -20.5s-3.16699 -17.5 -9.5 -20.5s-19.833 -4.5 -40.5 -4.5s-34.167 1.5 -40.5 4.5s-9.5 9.83301 -9.5 20.5zM150 -25c0 10.667 3.16699 17.5 9.5 20.5s19.833 4.5 40.5 4.5s34.167 -1.5 40.5 -4.5s9.5 -9.83301 9.5 -20.5s-3.16699 -17.5 -9.5 -20.5
s-19.833 -4.5 -40.5 -4.5s-34.167 1.5 -40.5 4.5s-9.5 9.83301 -9.5 20.5zM150 75c0 11.333 5.33301 18.333 16 21s38.667 4 84 4s73.333 -1.33301 84 -4s16 -9.66699 16 -21s-5.33301 -18.333 -16 -21s-38.667 -4 -84 -4s-73.333 1.33301 -84 4s-16 9.66699 -16 21z
M300 175c0 10.667 3.16699 17.5 9.5 20.5s19.833 4.5 40.5 4.5s34.167 -1.5 40.5 -4.5s9.5 -9.83301 9.5 -20.5s-3.16699 -17.5 -9.5 -20.5s-19.833 -4.5 -40.5 -4.5s-34.167 1.5 -40.5 4.5s-9.5 9.83301 -9.5 20.5zM150 175c0 10.667 3.16699 17.5 9.5 20.5
s19.833 4.5 40.5 4.5s34.167 -1.5 40.5 -4.5s9.5 -9.83301 9.5 -20.5s-3.16699 -17.5 -9.5 -20.5s-19.833 -4.5 -40.5 -4.5s-34.167 1.5 -40.5 4.5s-9.5 9.83301 -9.5 20.5zM50 275c0 10.667 5 17.334 15 20.001c12.667 3.33301 57.667 5 135 5c86 0 133.667 -3 143 -9
c4.66699 -2.66699 7 -8 7 -16c0 -10.667 -5 -17.334 -15 -20.001c-12.667 -3.33301 -57.667 -5 -135 -5c-86 0 -133.667 3 -143 9c-4.66699 2.66699 -7 8 -7 16zM0 375c0 10.667 3.16699 17.5 9.5 20.5s19.833 4.5 40.5 4.5s34.167 -1.5 40.5 -4.5s9.5 -9.83301 9.5 -20.5
s-3.16699 -17.5 -9.5 -20.5s-19.833 -4.5 -40.5 -4.5s-34.167 1.5 -40.5 4.5s-9.5 9.83301 -9.5 20.5zM0 475c0 10.667 3.16699 17.5 9.5 20.5s19.833 4.5 40.5 4.5s34.167 -1.5 40.5 -4.5s9.5 -9.83301 9.5 -20.5s-3.16699 -17.5 -9.5 -20.5s-19.833 -4.5 -40.5 -4.5
s-34.167 1.5 -40.5 4.5s-9.5 9.83301 -9.5 20.5zM0 575c0 10.667 3.16699 17.5 9.5 20.5s19.833 4.5 40.5 4.5s34.167 -1.5 40.5 -4.5s9.5 -9.83301 9.5 -20.5s-3.16699 -17.5 -9.5 -20.5s-19.833 -4.5 -40.5 -4.5s-34.167 1.5 -40.5 4.5s-9.5 9.83301 -9.5 20.5zM50 675
c0 11.333 5.33301 18.333 16 21s38.667 4 84 4s73.333 -1.33301 84 -4s16 -9.66699 16 -21s-5.33301 -18.333 -16 -21s-38.667 -4 -84 -4s-73.333 1.33301 -84 4s-16 9.66699 -16 21z" />
    <glyph glyph-name="uni0006" 
d="M150 -125c0 10.667 3.16699 17.5 9.5 20.5s19.833 4.5 40.5 4.5s34.167 -1.5 40.5 -4.5s9.5 -9.83301 9.5 -20.5s-3.16699 -17.5 -9.5 -20.5s-19.833 -4.5 -40.5 -4.5s-34.167 1.5 -40.5 4.5s-9.5 9.83301 -9.5 20.5zM150 -25c0 10.667 3.16699 17.5 9.5 20.5
s19.833 4.5 40.5 4.5s34.167 -1.5 40.5 -4.5s9.5 -9.83301 9.5 -20.5s-3.16699 -17.5 -9.5 -20.5s-19.833 -4.5 -40.5 -4.5s-34.167 1.5 -40.5 4.5s-9.5 9.83301 -9.5 20.5zM150 75c0 11.333 5.33301 18.333 16 21s38.667 4 84 4s73.333 -1.33301 84 -4s16 -9.66699 16 -21
s-5.33301 -18.333 -16 -21s-38.667 -4 -84 -4s-73.333 1.33301 -84 4s-16 9.66699 -16 21zM150 175c0 10.667 3.16699 17.5 9.5 20.5s19.833 4.5 40.5 4.5s34.167 -1.5 40.5 -4.5s9.5 -9.83301 9.5 -20.5s-3.16699 -17.5 -9.5 -20.5s-19.833 -4.5 -40.5 -4.5
s-34.167 1.5 -40.5 4.5s-9.5 9.83301 -9.5 20.5zM0 275c0 10 5 16.333 15 19c16 4 77.667 6 185 6c115.333 0 179 -3 191 -9c6 -2.66699 9 -8 9 -16c0 -10 -5 -16.333 -15 -19c-16 -4 -77.667 -6 -185 -6c-115.333 0 -179 3 -191 9c-6 2.66699 -9 8 -9 16zM0 375
c0 10.667 3.16699 17.5 9.5 20.5s19.833 4.5 40.5 4.5s34.167 -1.5 40.5 -4.5s9.5 -9.83301 9.5 -20.5s-3.16699 -17.5 -9.5 -20.5s-19.833 -4.5 -40.5 -4.5s-34.167 1.5 -40.5 4.5s-9.5 9.83301 -9.5 20.5zM0 475c0 10.667 3.16699 17.5 9.5 20.5s19.833 4.5 40.5 4.5
s34.167 -1.5 40.5 -4.5s9.5 -9.83301 9.5 -20.5s-3.16699 -17.5 -9.5 -20.5s-19.833 -4.5 -40.5 -4.5s-34.167 1.5 -40.5 4.5s-9.5 9.83301 -9.5 20.5zM0 575c0 10.667 3.16699 17.5 9.5 20.5s19.833 4.5 40.5 4.5s34.167 -1.5 40.5 -4.5s9.5 -9.83301 9.5 -20.5
s-3.16699 -17.5 -9.5 -20.5s-19.833 -4.5 -40.5 -4.5s-34.167 1.5 -40.5 4.5s-9.5 9.83301 -9.5 20.5zM0 675c0 10.667 3.16699 17.5 9.5 20.5s19.833 4.5 40.5 4.5s34.167 -1.5 40.5 -4.5s9.5 -9.83301 9.5 -20.5s-3.16699 -17.5 -9.5 -20.5s-19.833 -4.5 -40.5 -4.5
s-34.167 1.5 -40.5 4.5s-9.5 9.83301 -9.5 20.5z" />
    <glyph glyph-name="uni0007" 
d="M100 475c0 11.333 5.33301 18.333 16 21s38.667 4 84 4s73.333 -1.33301 84 -4s16 -9.66699 16 -21s-5.33301 -18.333 -16 -21s-38.667 -4 -84 -4s-73.333 1.33301 -84 4s-16 9.66699 -16 21zM250 575c0 10.667 3.16699 17.5 9.5 20.5s19.833 4.5 40.5 4.5
s34.167 -1.5 40.5 -4.5s9.5 -9.83301 9.5 -20.5s-3.16699 -17.5 -9.5 -20.5s-19.833 -4.5 -40.5 -4.5s-34.167 1.5 -40.5 4.5s-9.5 9.83301 -9.5 20.5zM50 575c0 10.667 3.16699 17.5 9.5 20.5s19.833 4.5 40.5 4.5s34.167 -1.5 40.5 -4.5s9.5 -9.83301 9.5 -20.5
s-3.16699 -17.5 -9.5 -20.5s-19.833 -4.5 -40.5 -4.5s-34.167 1.5 -40.5 4.5s-9.5 9.83301 -9.5 20.5zM100 675c0 11.333 5.33301 18.333 16 21s38.667 4 84 4s73.333 -1.33301 84 -4s16 -9.66699 16 -21s-5.33301 -18.333 -16 -21s-38.667 -4 -84 -4s-73.333 1.33301 -84 4
s-16 9.66699 -16 21z" />
    <glyph glyph-name="uni0008" 
d="M0 75c0 10 5 16.333 15 19c16 4 77.667 6 185 6c115.333 0 179 -3 191 -9c6 -2.66699 9 -8 9 -16c0 -10 -5 -16.333 -15 -19c-16 -4 -77.667 -6 -185 -6c-115.333 0 -179 3 -191 9c-6 2.66699 -9 8 -9 16zM150 175c0 10.667 3.16699 17.5 9.5 20.5s19.833 4.5 40.5 4.5
s34.167 -1.5 40.5 -4.5s9.5 -9.83301 9.5 -20.5s-3.16699 -17.5 -9.5 -20.5s-19.833 -4.5 -40.5 -4.5s-34.167 1.5 -40.5 4.5s-9.5 9.83301 -9.5 20.5zM150 275c0 10.667 3.16699 17.5 9.5 20.5s19.833 4.5 40.5 4.5s34.167 -1.5 40.5 -4.5s9.5 -9.83301 9.5 -20.5
s-3.16699 -17.5 -9.5 -20.5s-19.833 -4.5 -40.5 -4.5s-34.167 1.5 -40.5 4.5s-9.5 9.83301 -9.5 20.5zM0 375c0 10 5 16.333 15 19c16 4 77.667 6 185 6c115.333 0 179 -3 191 -9c6 -2.66699 9 -8 9 -16c0 -10 -5 -16.333 -15 -19c-16 -4 -77.667 -6 -185 -6
c-115.333 0 -179 3 -191 9c-6 2.66699 -9 8 -9 16zM150 475c0 10.667 3.16699 17.5 9.5 20.5s19.833 4.5 40.5 4.5s34.167 -1.5 40.5 -4.5s9.5 -9.83301 9.5 -20.5s-3.16699 -17.5 -9.5 -20.5s-19.833 -4.5 -40.5 -4.5s-34.167 1.5 -40.5 4.5s-9.5 9.83301 -9.5 20.5z
M150 575c0 10.667 3.16699 17.5 9.5 20.5s19.833 4.5 40.5 4.5s34.167 -1.5 40.5 -4.5s9.5 -9.83301 9.5 -20.5s-3.16699 -17.5 -9.5 -20.5s-19.833 -4.5 -40.5 -4.5s-34.167 1.5 -40.5 4.5s-9.5 9.83301 -9.5 20.5z" />
    <glyph glyph-name="uni0009" unicode="&#x9;" 
d="M150 -125c0 6 0.833008 10.5 2.5 13.5s7.33398 5.5 17.001 7.5s21.834 3.16699 36.501 3.5s37.667 0.5 69 0.5s54.333 -0.166992 69 -0.5s26.834 -1.5 36.501 -3.5s15.334 -4.5 17.001 -7.5s2.5 -7.5 2.5 -13.5s-0.833008 -10.5 -2.5 -13.5s-7.33398 -5.5 -17.001 -7.5
s-21.834 -3.16699 -36.501 -3.5s-37.667 -0.5 -69 -0.5s-54.333 0.166992 -69 0.5s-26.834 1.5 -36.501 3.5s-15.334 4.5 -17.001 7.5s-2.5 7.5 -2.5 13.5zM150 -25c0 10.667 3.16699 17.5 9.5 20.5s19.833 4.5 40.5 4.5s34.167 -1.5 40.5 -4.5s9.5 -9.83301 9.5 -20.5
s-3.16699 -17.5 -9.5 -20.5s-19.833 -4.5 -40.5 -4.5s-34.167 1.5 -40.5 4.5s-9.5 9.83301 -9.5 20.5zM150 75c0 10.667 3.16699 17.5 9.5 20.5s19.833 4.5 40.5 4.5s34.167 -1.5 40.5 -4.5s9.5 -9.83301 9.5 -20.5s-3.16699 -17.5 -9.5 -20.5s-19.833 -4.5 -40.5 -4.5
s-34.167 1.5 -40.5 4.5s-9.5 9.83301 -9.5 20.5zM150 175c0 10.667 3.16699 17.5 9.5 20.5s19.833 4.5 40.5 4.5s34.167 -1.5 40.5 -4.5s9.5 -9.83301 9.5 -20.5s-3.16699 -17.5 -9.5 -20.5s-19.833 -4.5 -40.5 -4.5s-34.167 1.5 -40.5 4.5s-9.5 9.83301 -9.5 20.5zM150 275
c0 11.333 4.33301 18.333 13 21s29.334 4 62.001 4s53.334 -1.33301 62.001 -4s13 -9.66699 13 -21s-4.33301 -18.333 -13 -21s-29.334 -4 -62.001 -4s-53.334 1.33301 -62.001 4s-13 9.66699 -13 21zM0 275c0 10.667 3.16699 17.5 9.5 20.5s19.833 4.5 40.5 4.5
s34.167 -1.5 40.5 -4.5s9.5 -9.83301 9.5 -20.5s-3.16699 -17.5 -9.5 -20.5s-19.833 -4.5 -40.5 -4.5s-34.167 1.5 -40.5 4.5s-9.5 9.83301 -9.5 20.5zM150 375c0 11.333 4.33301 18.333 13 21s29.334 4 62.001 4s53.334 -1.33301 62.001 -4s13 -9.66699 13 -21
s-4.33301 -18.333 -13 -21s-29.334 -4 -62.001 -4s-53.334 1.33301 -62.001 4s-13 9.66699 -13 21zM0 375c0 10.667 3.16699 17.5 9.5 20.5s19.833 4.5 40.5 4.5s34.167 -1.5 40.5 -4.5s9.5 -9.83301 9.5 -20.5s-3.16699 -17.5 -9.5 -20.5s-19.833 -4.5 -40.5 -4.5
s-34.167 1.5 -40.5 4.5s-9.5 9.83301 -9.5 20.5zM0 475c0 10.667 5 17.334 15 20.001c12.667 3.33301 57.667 5 135 5c86 0 133.667 -3 143 -9c4.66699 -2.66699 7 -8 7 -16c0 -10.667 -5 -17.334 -15 -20.001c-12.667 -3.33301 -57.667 -5 -135 -5c-86 0 -133.667 3 -143 9
c-4.66699 2.66699 -7 8 -7 16zM200 575c0 10.667 3.16699 17.5 9.5 20.5s19.833 4.5 40.5 4.5s34.167 -1.5 40.5 -4.5s9.5 -9.83301 9.5 -20.5s-3.16699 -17.5 -9.5 -20.5s-19.833 -4.5 -40.5 -4.5s-34.167 1.5 -40.5 4.5s-9.5 9.83301 -9.5 20.5zM0 575
c0 11.333 4.33301 18.333 13 21s29.334 4 62.001 4s53.334 -1.33301 62.001 -4s13 -9.66699 13 -21s-4.33301 -18.333 -13 -21s-29.334 -4 -62.001 -4s-53.334 1.33301 -62.001 4s-13 9.66699 -13 21zM200 675c0 10.667 3.16699 17.5 9.5 20.5s19.833 4.5 40.5 4.5
s34.167 -1.5 40.5 -4.5s9.5 -9.83301 9.5 -20.5s-3.16699 -17.5 -9.5 -20.5s-19.833 -4.5 -40.5 -4.5s-34.167 1.5 -40.5 4.5s-9.5 9.83301 -9.5 20.5zM0 675c0 10.667 3.16699 17.5 9.5 20.5s19.833 4.5 40.5 4.5s34.167 -1.5 40.5 -4.5s9.5 -9.83301 9.5 -20.5
s-3.16699 -17.5 -9.5 -20.5s-19.833 -4.5 -40.5 -4.5s-34.167 1.5 -40.5 4.5s-9.5 9.83301 -9.5 20.5z" />
    <glyph glyph-name="uni000A" unicode="&#xa;" 
d="M200 -125c0 10.667 3.16699 17.5 9.5 20.5s19.833 4.5 40.5 4.5s34.167 -1.5 40.5 -4.5s9.5 -9.83301 9.5 -20.5s-3.16699 -17.5 -9.5 -20.5s-19.833 -4.5 -40.5 -4.5s-34.167 1.5 -40.5 4.5s-9.5 9.83301 -9.5 20.5zM200 -25c0 10.667 3.16699 17.5 9.5 20.5
s19.833 4.5 40.5 4.5s34.167 -1.5 40.5 -4.5s9.5 -9.83301 9.5 -20.5s-3.16699 -17.5 -9.5 -20.5s-19.833 -4.5 -40.5 -4.5s-34.167 1.5 -40.5 4.5s-9.5 9.83301 -9.5 20.5zM200 75c0 10.667 3.16699 17.5 9.5 20.5s19.833 4.5 40.5 4.5s34.167 -1.5 40.5 -4.5
s9.5 -9.83301 9.5 -20.5s-3.16699 -17.5 -9.5 -20.5s-19.833 -4.5 -40.5 -4.5s-34.167 1.5 -40.5 4.5s-9.5 9.83301 -9.5 20.5zM200 175c0 10.667 3.16699 17.5 9.5 20.5s19.833 4.5 40.5 4.5s34.167 -1.5 40.5 -4.5s9.5 -9.83301 9.5 -20.5s-3.16699 -17.5 -9.5 -20.5
s-19.833 -4.5 -40.5 -4.5s-34.167 1.5 -40.5 4.5s-9.5 9.83301 -9.5 20.5zM100 275c0 10.667 5 17.334 15 20.001c12.667 3.33301 57.667 5 135 5c86 0 133.667 -3 143 -9c4.66699 -2.66699 7 -8 7 -16c0 -10.667 -5 -17.334 -15 -20.001
c-12.667 -3.33301 -57.667 -5 -135 -5c-86 0 -133.667 3 -143 9c-4.66699 2.66699 -7 8 -7 16zM50 375c0 11.333 5.33301 18.333 16 21s38.667 4 84 4s73.333 -1.33301 84 -4s16 -9.66699 16 -21s-5.33301 -18.333 -16 -21s-38.667 -4 -84 -4s-73.333 1.33301 -84 4
s-16 9.66699 -16 21zM50 475c0 11.333 5.33301 18.333 16 21s38.667 4 84 4s73.333 -1.33301 84 -4s16 -9.66699 16 -21s-5.33301 -18.333 -16 -21s-38.667 -4 -84 -4s-73.333 1.33301 -84 4s-16 9.66699 -16 21zM200 575c0 10.667 3.16699 17.5 9.5 20.5
s19.833 4.5 40.5 4.5s34.167 -1.5 40.5 -4.5s9.5 -9.83301 9.5 -20.5s-3.16699 -17.5 -9.5 -20.5s-19.833 -4.5 -40.5 -4.5s-34.167 1.5 -40.5 4.5s-9.5 9.83301 -9.5 20.5zM0 575c0 10.667 3.16699 17.5 9.5 20.5s19.833 4.5 40.5 4.5s34.167 -1.5 40.5 -4.5
s9.5 -9.83301 9.5 -20.5s-3.16699 -17.5 -9.5 -20.5s-19.833 -4.5 -40.5 -4.5s-34.167 1.5 -40.5 4.5s-9.5 9.83301 -9.5 20.5zM200 675c0 10.667 3.16699 17.5 9.5 20.5s19.833 4.5 40.5 4.5s34.167 -1.5 40.5 -4.5s9.5 -9.83301 9.5 -20.5s-3.16699 -17.5 -9.5 -20.5
s-19.833 -4.5 -40.5 -4.5s-34.167 1.5 -40.5 4.5s-9.5 9.83301 -9.5 20.5zM0 675c0 10.667 3.16699 17.5 9.5 20.5s19.833 4.5 40.5 4.5s34.167 -1.5 40.5 -4.5s9.5 -9.83301 9.5 -20.5s-3.16699 -17.5 -9.5 -20.5s-19.833 -4.5 -40.5 -4.5s-34.167 1.5 -40.5 4.5
s-9.5 9.83301 -9.5 20.5z" />
    <glyph glyph-name="uni000B" 
d="M0 375c0 6 0.833008 10.5 2.5 13.5s7.33398 5.5 17.001 7.5s21.834 3.16699 36.501 3.5s37.667 0.5 69 0.5s54.333 -0.166992 69 -0.5s26.834 -1.5 36.501 -3.5s15.334 -4.5 17.001 -7.5s2.5 -7.5 2.5 -13.5s-0.833008 -10.5 -2.5 -13.5s-7.33398 -5.5 -17.001 -7.5
s-21.834 -3.16699 -36.501 -3.5s-37.667 -0.5 -69 -0.5s-54.333 0.166992 -69 0.5s-26.834 1.5 -36.501 3.5s-15.334 4.5 -17.001 7.5s-2.5 7.5 -2.5 13.5zM150 475c0 10.667 3.16699 17.5 9.5 20.5s19.833 4.5 40.5 4.5s34.167 -1.5 40.5 -4.5s9.5 -9.83301 9.5 -20.5
s-3.16699 -17.5 -9.5 -20.5s-19.833 -4.5 -40.5 -4.5s-34.167 1.5 -40.5 4.5s-9.5 9.83301 -9.5 20.5zM150 575c0 10.667 3.16699 17.5 9.5 20.5s19.833 4.5 40.5 4.5s34.167 -1.5 40.5 -4.5s9.5 -9.83301 9.5 -20.5s-3.16699 -17.5 -9.5 -20.5s-19.833 -4.5 -40.5 -4.5
s-34.167 1.5 -40.5 4.5s-9.5 9.83301 -9.5 20.5zM150 675c0 10.667 3.16699 17.5 9.5 20.5s19.833 4.5 40.5 4.5s34.167 -1.5 40.5 -4.5s9.5 -9.83301 9.5 -20.5s-3.16699 -17.5 -9.5 -20.5s-19.833 -4.5 -40.5 -4.5s-34.167 1.5 -40.5 4.5s-9.5 9.83301 -9.5 20.5zM150 775
c0 10.667 3.16699 17.5 9.5 20.5s19.833 4.5 40.5 4.5s34.167 -1.5 40.5 -4.5s9.5 -9.83301 9.5 -20.5s-3.16699 -17.5 -9.5 -20.5s-19.833 -4.5 -40.5 -4.5s-34.167 1.5 -40.5 4.5s-9.5 9.83301 -9.5 20.5z" />
    <glyph glyph-name="uni000C" 
d="M150 -125c0 10.667 3.16699 17.5 9.5 20.5s19.833 4.5 40.5 4.5s34.167 -1.5 40.5 -4.5s9.5 -9.83301 9.5 -20.5s-3.16699 -17.5 -9.5 -20.5s-19.833 -4.5 -40.5 -4.5s-34.167 1.5 -40.5 4.5s-9.5 9.83301 -9.5 20.5zM150 -25c0 10.667 3.16699 17.5 9.5 20.5
s19.833 4.5 40.5 4.5s34.167 -1.5 40.5 -4.5s9.5 -9.83301 9.5 -20.5s-3.16699 -17.5 -9.5 -20.5s-19.833 -4.5 -40.5 -4.5s-34.167 1.5 -40.5 4.5s-9.5 9.83301 -9.5 20.5zM150 75c0 10.667 3.16699 17.5 9.5 20.5s19.833 4.5 40.5 4.5s34.167 -1.5 40.5 -4.5
s9.5 -9.83301 9.5 -20.5s-3.16699 -17.5 -9.5 -20.5s-19.833 -4.5 -40.5 -4.5s-34.167 1.5 -40.5 4.5s-9.5 9.83301 -9.5 20.5zM150 175c0 10.667 3.16699 17.5 9.5 20.5s19.833 4.5 40.5 4.5s34.167 -1.5 40.5 -4.5s9.5 -9.83301 9.5 -20.5s-3.16699 -17.5 -9.5 -20.5
s-19.833 -4.5 -40.5 -4.5s-34.167 1.5 -40.5 4.5s-9.5 9.83301 -9.5 20.5zM150 275c0 10.667 3.16699 17.5 9.5 20.5s19.833 4.5 40.5 4.5s34.167 -1.5 40.5 -4.5s9.5 -9.83301 9.5 -20.5s-3.16699 -17.5 -9.5 -20.5s-19.833 -4.5 -40.5 -4.5s-34.167 1.5 -40.5 4.5
s-9.5 9.83301 -9.5 20.5zM0 375c0 6 0.833008 10.5 2.5 13.5s7.33398 5.5 17.001 7.5s21.834 3.16699 36.501 3.5s37.667 0.5 69 0.5s54.333 -0.166992 69 -0.5s26.834 -1.5 36.501 -3.5s15.334 -4.5 17.001 -7.5s2.5 -7.5 2.5 -13.5s-0.833008 -10.5 -2.5 -13.5
s-7.33398 -5.5 -17.001 -7.5s-21.834 -3.16699 -36.501 -3.5s-37.667 -0.5 -69 -0.5s-54.333 0.166992 -69 0.5s-26.834 1.5 -36.501 3.5s-15.334 4.5 -17.001 7.5s-2.5 7.5 -2.5 13.5z" />
    <glyph glyph-name="uni000D" unicode="&#xd;" 
d="M150 -125c0 10.667 3.16699 17.5 9.5 20.5s19.833 4.5 40.5 4.5s34.167 -1.5 40.5 -4.5s9.5 -9.83301 9.5 -20.5s-3.16699 -17.5 -9.5 -20.5s-19.833 -4.5 -40.5 -4.5s-34.167 1.5 -40.5 4.5s-9.5 9.83301 -9.5 20.5zM150 -25c0 10.667 3.16699 17.5 9.5 20.5
s19.833 4.5 40.5 4.5s34.167 -1.5 40.5 -4.5s9.5 -9.83301 9.5 -20.5s-3.16699 -17.5 -9.5 -20.5s-19.833 -4.5 -40.5 -4.5s-34.167 1.5 -40.5 4.5s-9.5 9.83301 -9.5 20.5zM150 75c0 10.667 3.16699 17.5 9.5 20.5s19.833 4.5 40.5 4.5s34.167 -1.5 40.5 -4.5
s9.5 -9.83301 9.5 -20.5s-3.16699 -17.5 -9.5 -20.5s-19.833 -4.5 -40.5 -4.5s-34.167 1.5 -40.5 4.5s-9.5 9.83301 -9.5 20.5zM150 175c0 10.667 3.16699 17.5 9.5 20.5s19.833 4.5 40.5 4.5s34.167 -1.5 40.5 -4.5s9.5 -9.83301 9.5 -20.5s-3.16699 -17.5 -9.5 -20.5
s-19.833 -4.5 -40.5 -4.5s-34.167 1.5 -40.5 4.5s-9.5 9.83301 -9.5 20.5zM150 275c0 10.667 3.16699 17.5 9.5 20.5s19.833 4.5 40.5 4.5s34.167 -1.5 40.5 -4.5s9.5 -9.83301 9.5 -20.5s-3.16699 -17.5 -9.5 -20.5s-19.833 -4.5 -40.5 -4.5s-34.167 1.5 -40.5 4.5
s-9.5 9.83301 -9.5 20.5zM150 375c0 6 0.833008 10.5 2.5 13.5s7.33398 5.5 17.001 7.5s21.834 3.16699 36.501 3.5s37.667 0.5 69 0.5s54.333 -0.166992 69 -0.5s26.834 -1.5 36.501 -3.5s15.334 -4.5 17.001 -7.5s2.5 -7.5 2.5 -13.5s-0.833008 -10.5 -2.5 -13.5
s-7.33398 -5.5 -17.001 -7.5s-21.834 -3.16699 -36.501 -3.5s-37.667 -0.5 -69 -0.5s-54.333 0.166992 -69 0.5s-26.834 1.5 -36.501 3.5s-15.334 4.5 -17.001 7.5s-2.5 7.5 -2.5 13.5z" />
    <glyph glyph-name="uni000E" 
d="M150 375c0 6 0.833008 10.5 2.5 13.5s7.33398 5.5 17.001 7.5s21.834 3.16699 36.501 3.5s37.667 0.5 69 0.5s54.333 -0.166992 69 -0.5s26.834 -1.5 36.501 -3.5s15.334 -4.5 17.001 -7.5s2.5 -7.5 2.5 -13.5s-0.833008 -10.5 -2.5 -13.5s-7.33398 -5.5 -17.001 -7.5
s-21.834 -3.16699 -36.501 -3.5s-37.667 -0.5 -69 -0.5s-54.333 0.166992 -69 0.5s-26.834 1.5 -36.501 3.5s-15.334 4.5 -17.001 7.5s-2.5 7.5 -2.5 13.5zM150 475c0 10.667 3.16699 17.5 9.5 20.5s19.833 4.5 40.5 4.5s34.167 -1.5 40.5 -4.5s9.5 -9.83301 9.5 -20.5
s-3.16699 -17.5 -9.5 -20.5s-19.833 -4.5 -40.5 -4.5s-34.167 1.5 -40.5 4.5s-9.5 9.83301 -9.5 20.5zM150 575c0 10.667 3.16699 17.5 9.5 20.5s19.833 4.5 40.5 4.5s34.167 -1.5 40.5 -4.5s9.5 -9.83301 9.5 -20.5s-3.16699 -17.5 -9.5 -20.5s-19.833 -4.5 -40.5 -4.5
s-34.167 1.5 -40.5 4.5s-9.5 9.83301 -9.5 20.5zM150 675c0 10.667 3.16699 17.5 9.5 20.5s19.833 4.5 40.5 4.5s34.167 -1.5 40.5 -4.5s9.5 -9.83301 9.5 -20.5s-3.16699 -17.5 -9.5 -20.5s-19.833 -4.5 -40.5 -4.5s-34.167 1.5 -40.5 4.5s-9.5 9.83301 -9.5 20.5zM150 775
c0 10.667 3.16699 17.5 9.5 20.5s19.833 4.5 40.5 4.5s34.167 -1.5 40.5 -4.5s9.5 -9.83301 9.5 -20.5s-3.16699 -17.5 -9.5 -20.5s-19.833 -4.5 -40.5 -4.5s-34.167 1.5 -40.5 4.5s-9.5 9.83301 -9.5 20.5z" />
    <glyph glyph-name="uni000F" 
d="M150 -125c0 10.667 3.16699 17.5 9.5 20.5s19.833 4.5 40.5 4.5s34.167 -1.5 40.5 -4.5s9.5 -9.83301 9.5 -20.5s-3.16699 -17.5 -9.5 -20.5s-19.833 -4.5 -40.5 -4.5s-34.167 1.5 -40.5 4.5s-9.5 9.83301 -9.5 20.5zM150 -25c0 10.667 3.16699 17.5 9.5 20.5
s19.833 4.5 40.5 4.5s34.167 -1.5 40.5 -4.5s9.5 -9.83301 9.5 -20.5s-3.16699 -17.5 -9.5 -20.5s-19.833 -4.5 -40.5 -4.5s-34.167 1.5 -40.5 4.5s-9.5 9.83301 -9.5 20.5zM150 75c0 10.667 3.16699 17.5 9.5 20.5s19.833 4.5 40.5 4.5s34.167 -1.5 40.5 -4.5
s9.5 -9.83301 9.5 -20.5s-3.16699 -17.5 -9.5 -20.5s-19.833 -4.5 -40.5 -4.5s-34.167 1.5 -40.5 4.5s-9.5 9.83301 -9.5 20.5zM150 175c0 10.667 3.16699 17.5 9.5 20.5s19.833 4.5 40.5 4.5s34.167 -1.5 40.5 -4.5s9.5 -9.83301 9.5 -20.5s-3.16699 -17.5 -9.5 -20.5
s-19.833 -4.5 -40.5 -4.5s-34.167 1.5 -40.5 4.5s-9.5 9.83301 -9.5 20.5zM150 275c0 10.667 3.16699 17.5 9.5 20.5s19.833 4.5 40.5 4.5s34.167 -1.5 40.5 -4.5s9.5 -9.83301 9.5 -20.5s-3.16699 -17.5 -9.5 -20.5s-19.833 -4.5 -40.5 -4.5s-34.167 1.5 -40.5 4.5
s-9.5 9.83301 -9.5 20.5zM0 375c0 10 5 16.333 15 19c16 4 77.667 6 185 6c115.333 0 179 -3 191 -9c6 -2.66699 9 -8 9 -16c0 -10 -5 -16.333 -15 -19c-16 -4 -77.667 -6 -185 -6c-115.333 0 -179 3 -191 9c-6 2.66699 -9 8 -9 16zM150 475c0 10.667 3.16699 17.5 9.5 20.5
s19.833 4.5 40.5 4.5s34.167 -1.5 40.5 -4.5s9.5 -9.83301 9.5 -20.5s-3.16699 -17.5 -9.5 -20.5s-19.833 -4.5 -40.5 -4.5s-34.167 1.5 -40.5 4.5s-9.5 9.83301 -9.5 20.5zM150 575c0 10.667 3.16699 17.5 9.5 20.5s19.833 4.5 40.5 4.5s34.167 -1.5 40.5 -4.5
s9.5 -9.83301 9.5 -20.5s-3.16699 -17.5 -9.5 -20.5s-19.833 -4.5 -40.5 -4.5s-34.167 1.5 -40.5 4.5s-9.5 9.83301 -9.5 20.5zM150 675c0 10.667 3.16699 17.5 9.5 20.5s19.833 4.5 40.5 4.5s34.167 -1.5 40.5 -4.5s9.5 -9.83301 9.5 -20.5s-3.16699 -17.5 -9.5 -20.5
s-19.833 -4.5 -40.5 -4.5s-34.167 1.5 -40.5 4.5s-9.5 9.83301 -9.5 20.5zM150 775c0 10.667 3.16699 17.5 9.5 20.5s19.833 4.5 40.5 4.5s34.167 -1.5 40.5 -4.5s9.5 -9.83301 9.5 -20.5s-3.16699 -17.5 -9.5 -20.5s-19.833 -4.5 -40.5 -4.5s-34.167 1.5 -40.5 4.5
s-9.5 9.83301 -9.5 20.5z" />
    <glyph glyph-name="uni0010" 
d="M0 775c0 10 5 16.333 15 19c16 4 77.667 6 185 6c115.333 0 179 -3 191 -9c6 -2.66699 9 -8 9 -16c0 -10 -5 -16.333 -15 -19c-16 -4 -77.667 -6 -185 -6c-115.333 0 -179 3 -191 9c-6 2.66699 -9 8 -9 16z" />
    <glyph glyph-name="uni0011" 
d="M0 575c0 10 5 16.333 15 19c16 4 77.667 6 185 6c115.333 0 179 -3 191 -9c6 -2.66699 9 -8 9 -16c0 -10 -5 -16.333 -15 -19c-16 -4 -77.667 -6 -185 -6c-115.333 0 -179 3 -191 9c-6 2.66699 -9 8 -9 16z" />
    <glyph glyph-name="uni0012" 
d="M0 375c0 10 5 16.333 15 19c16 4 77.667 6 185 6c115.333 0 179 -3 191 -9c6 -2.66699 9 -8 9 -16c0 -10 -5 -16.333 -15 -19c-16 -4 -77.667 -6 -185 -6c-115.333 0 -179 3 -191 9c-6 2.66699 -9 8 -9 16z" />
    <glyph glyph-name="uni0013" 
d="M0 175c0 10 5 16.333 15 19c16 4 77.667 6 185 6c115.333 0 179 -3 191 -9c6 -2.66699 9 -8 9 -16c0 -10 -5 -16.333 -15 -19c-16 -4 -77.667 -6 -185 -6c-115.333 0 -179 3 -191 9c-6 2.66699 -9 8 -9 16z" />
    <glyph glyph-name="uni0014" 
d="M0 -25c0 10 5 16.333 15 19c16 4 77.667 6 185 6c115.333 0 179 -3 191 -9c6 -2.66699 9 -8 9 -16c0 -10 -5 -16.333 -15 -19c-16 -4 -77.667 -6 -185 -6c-115.333 0 -179 3 -191 9c-6 2.66699 -9 8 -9 16z" />
    <glyph glyph-name="uni0015" 
d="M150 -125c0 10.667 3.16699 17.5 9.5 20.5s19.833 4.5 40.5 4.5s34.167 -1.5 40.5 -4.5s9.5 -9.83301 9.5 -20.5s-3.16699 -17.5 -9.5 -20.5s-19.833 -4.5 -40.5 -4.5s-34.167 1.5 -40.5 4.5s-9.5 9.83301 -9.5 20.5zM150 -25c0 10.667 3.16699 17.5 9.5 20.5
s19.833 4.5 40.5 4.5s34.167 -1.5 40.5 -4.5s9.5 -9.83301 9.5 -20.5s-3.16699 -17.5 -9.5 -20.5s-19.833 -4.5 -40.5 -4.5s-34.167 1.5 -40.5 4.5s-9.5 9.83301 -9.5 20.5zM150 75c0 10.667 3.16699 17.5 9.5 20.5s19.833 4.5 40.5 4.5s34.167 -1.5 40.5 -4.5
s9.5 -9.83301 9.5 -20.5s-3.16699 -17.5 -9.5 -20.5s-19.833 -4.5 -40.5 -4.5s-34.167 1.5 -40.5 4.5s-9.5 9.83301 -9.5 20.5zM150 175c0 10.667 3.16699 17.5 9.5 20.5s19.833 4.5 40.5 4.5s34.167 -1.5 40.5 -4.5s9.5 -9.83301 9.5 -20.5s-3.16699 -17.5 -9.5 -20.5
s-19.833 -4.5 -40.5 -4.5s-34.167 1.5 -40.5 4.5s-9.5 9.83301 -9.5 20.5zM150 275c0 10.667 3.16699 17.5 9.5 20.5s19.833 4.5 40.5 4.5s34.167 -1.5 40.5 -4.5s9.5 -9.83301 9.5 -20.5s-3.16699 -17.5 -9.5 -20.5s-19.833 -4.5 -40.5 -4.5s-34.167 1.5 -40.5 4.5
s-9.5 9.83301 -9.5 20.5zM150 375c0 6 0.833008 10.5 2.5 13.5s7.33398 5.5 17.001 7.5s21.834 3.16699 36.501 3.5s37.667 0.5 69 0.5s54.333 -0.166992 69 -0.5s26.834 -1.5 36.501 -3.5s15.334 -4.5 17.001 -7.5s2.5 -7.5 2.5 -13.5s-0.833008 -10.5 -2.5 -13.5
s-7.33398 -5.5 -17.001 -7.5s-21.834 -3.16699 -36.501 -3.5s-37.667 -0.5 -69 -0.5s-54.333 0.166992 -69 0.5s-26.834 1.5 -36.501 3.5s-15.334 4.5 -17.001 7.5s-2.5 7.5 -2.5 13.5zM150 475c0 10.667 3.16699 17.5 9.5 20.5s19.833 4.5 40.5 4.5s34.167 -1.5 40.5 -4.5
s9.5 -9.83301 9.5 -20.5s-3.16699 -17.5 -9.5 -20.5s-19.833 -4.5 -40.5 -4.5s-34.167 1.5 -40.5 4.5s-9.5 9.83301 -9.5 20.5zM150 575c0 10.667 3.16699 17.5 9.5 20.5s19.833 4.5 40.5 4.5s34.167 -1.5 40.5 -4.5s9.5 -9.83301 9.5 -20.5s-3.16699 -17.5 -9.5 -20.5
s-19.833 -4.5 -40.5 -4.5s-34.167 1.5 -40.5 4.5s-9.5 9.83301 -9.5 20.5zM150 675c0 10.667 3.16699 17.5 9.5 20.5s19.833 4.5 40.5 4.5s34.167 -1.5 40.5 -4.5s9.5 -9.83301 9.5 -20.5s-3.16699 -17.5 -9.5 -20.5s-19.833 -4.5 -40.5 -4.5s-34.167 1.5 -40.5 4.5
s-9.5 9.83301 -9.5 20.5zM150 775c0 10.667 3.16699 17.5 9.5 20.5s19.833 4.5 40.5 4.5s34.167 -1.5 40.5 -4.5s9.5 -9.83301 9.5 -20.5s-3.16699 -17.5 -9.5 -20.5s-19.833 -4.5 -40.5 -4.5s-34.167 1.5 -40.5 4.5s-9.5 9.83301 -9.5 20.5z" />
    <glyph glyph-name="uni0016" 
d="M150 -125c0 10.667 3.16699 17.5 9.5 20.5s19.833 4.5 40.5 4.5s34.167 -1.5 40.5 -4.5s9.5 -9.83301 9.5 -20.5s-3.16699 -17.5 -9.5 -20.5s-19.833 -4.5 -40.5 -4.5s-34.167 1.5 -40.5 4.5s-9.5 9.83301 -9.5 20.5zM150 -25c0 10.667 3.16699 17.5 9.5 20.5
s19.833 4.5 40.5 4.5s34.167 -1.5 40.5 -4.5s9.5 -9.83301 9.5 -20.5s-3.16699 -17.5 -9.5 -20.5s-19.833 -4.5 -40.5 -4.5s-34.167 1.5 -40.5 4.5s-9.5 9.83301 -9.5 20.5zM150 75c0 10.667 3.16699 17.5 9.5 20.5s19.833 4.5 40.5 4.5s34.167 -1.5 40.5 -4.5
s9.5 -9.83301 9.5 -20.5s-3.16699 -17.5 -9.5 -20.5s-19.833 -4.5 -40.5 -4.5s-34.167 1.5 -40.5 4.5s-9.5 9.83301 -9.5 20.5zM150 175c0 10.667 3.16699 17.5 9.5 20.5s19.833 4.5 40.5 4.5s34.167 -1.5 40.5 -4.5s9.5 -9.83301 9.5 -20.5s-3.16699 -17.5 -9.5 -20.5
s-19.833 -4.5 -40.5 -4.5s-34.167 1.5 -40.5 4.5s-9.5 9.83301 -9.5 20.5zM150 275c0 10.667 3.16699 17.5 9.5 20.5s19.833 4.5 40.5 4.5s34.167 -1.5 40.5 -4.5s9.5 -9.83301 9.5 -20.5s-3.16699 -17.5 -9.5 -20.5s-19.833 -4.5 -40.5 -4.5s-34.167 1.5 -40.5 4.5
s-9.5 9.83301 -9.5 20.5zM0 375c0 6 0.833008 10.5 2.5 13.5s7.33398 5.5 17.001 7.5s21.834 3.16699 36.501 3.5s37.667 0.5 69 0.5s54.333 -0.166992 69 -0.5s26.834 -1.5 36.501 -3.5s15.334 -4.5 17.001 -7.5s2.5 -7.5 2.5 -13.5s-0.833008 -10.5 -2.5 -13.5
s-7.33398 -5.5 -17.001 -7.5s-21.834 -3.16699 -36.501 -3.5s-37.667 -0.5 -69 -0.5s-54.333 0.166992 -69 0.5s-26.834 1.5 -36.501 3.5s-15.334 4.5 -17.001 7.5s-2.5 7.5 -2.5 13.5zM150 475c0 10.667 3.16699 17.5 9.5 20.5s19.833 4.5 40.5 4.5s34.167 -1.5 40.5 -4.5
s9.5 -9.83301 9.5 -20.5s-3.16699 -17.5 -9.5 -20.5s-19.833 -4.5 -40.5 -4.5s-34.167 1.5 -40.5 4.5s-9.5 9.83301 -9.5 20.5zM150 575c0 10.667 3.16699 17.5 9.5 20.5s19.833 4.5 40.5 4.5s34.167 -1.5 40.5 -4.5s9.5 -9.83301 9.5 -20.5s-3.16699 -17.5 -9.5 -20.5
s-19.833 -4.5 -40.5 -4.5s-34.167 1.5 -40.5 4.5s-9.5 9.83301 -9.5 20.5zM150 675c0 10.667 3.16699 17.5 9.5 20.5s19.833 4.5 40.5 4.5s34.167 -1.5 40.5 -4.5s9.5 -9.83301 9.5 -20.5s-3.16699 -17.5 -9.5 -20.5s-19.833 -4.5 -40.5 -4.5s-34.167 1.5 -40.5 4.5
s-9.5 9.83301 -9.5 20.5zM150 775c0 10.667 3.16699 17.5 9.5 20.5s19.833 4.5 40.5 4.5s34.167 -1.5 40.5 -4.5s9.5 -9.83301 9.5 -20.5s-3.16699 -17.5 -9.5 -20.5s-19.833 -4.5 -40.5 -4.5s-34.167 1.5 -40.5 4.5s-9.5 9.83301 -9.5 20.5z" />
    <glyph glyph-name="uni0017" 
d="M0 375c0 10 5 16.333 15 19c16 4 77.667 6 185 6c115.333 0 179 -3 191 -9c6 -2.66699 9 -8 9 -16c0 -10 -5 -16.333 -15 -19c-16 -4 -77.667 -6 -185 -6c-115.333 0 -179 3 -191 9c-6 2.66699 -9 8 -9 16zM150 475c0 10.667 3.16699 17.5 9.5 20.5s19.833 4.5 40.5 4.5
s34.167 -1.5 40.5 -4.5s9.5 -9.83301 9.5 -20.5s-3.16699 -17.5 -9.5 -20.5s-19.833 -4.5 -40.5 -4.5s-34.167 1.5 -40.5 4.5s-9.5 9.83301 -9.5 20.5zM150 575c0 10.667 3.16699 17.5 9.5 20.5s19.833 4.5 40.5 4.5s34.167 -1.5 40.5 -4.5s9.5 -9.83301 9.5 -20.5
s-3.16699 -17.5 -9.5 -20.5s-19.833 -4.5 -40.5 -4.5s-34.167 1.5 -40.5 4.5s-9.5 9.83301 -9.5 20.5zM150 675c0 10.667 3.16699 17.5 9.5 20.5s19.833 4.5 40.5 4.5s34.167 -1.5 40.5 -4.5s9.5 -9.83301 9.5 -20.5s-3.16699 -17.5 -9.5 -20.5s-19.833 -4.5 -40.5 -4.5
s-34.167 1.5 -40.5 4.5s-9.5 9.83301 -9.5 20.5zM150 775c0 10.667 3.16699 17.5 9.5 20.5s19.833 4.5 40.5 4.5s34.167 -1.5 40.5 -4.5s9.5 -9.83301 9.5 -20.5s-3.16699 -17.5 -9.5 -20.5s-19.833 -4.5 -40.5 -4.5s-34.167 1.5 -40.5 4.5s-9.5 9.83301 -9.5 20.5z" />
    <glyph glyph-name="uni0018" 
d="M150 -125c0 10.667 3.16699 17.5 9.5 20.5s19.833 4.5 40.5 4.5s34.167 -1.5 40.5 -4.5s9.5 -9.83301 9.5 -20.5s-3.16699 -17.5 -9.5 -20.5s-19.833 -4.5 -40.5 -4.5s-34.167 1.5 -40.5 4.5s-9.5 9.83301 -9.5 20.5zM150 -25c0 10.667 3.16699 17.5 9.5 20.5
s19.833 4.5 40.5 4.5s34.167 -1.5 40.5 -4.5s9.5 -9.83301 9.5 -20.5s-3.16699 -17.5 -9.5 -20.5s-19.833 -4.5 -40.5 -4.5s-34.167 1.5 -40.5 4.5s-9.5 9.83301 -9.5 20.5zM150 75c0 10.667 3.16699 17.5 9.5 20.5s19.833 4.5 40.5 4.5s34.167 -1.5 40.5 -4.5
s9.5 -9.83301 9.5 -20.5s-3.16699 -17.5 -9.5 -20.5s-19.833 -4.5 -40.5 -4.5s-34.167 1.5 -40.5 4.5s-9.5 9.83301 -9.5 20.5zM150 175c0 10.667 3.16699 17.5 9.5 20.5s19.833 4.5 40.5 4.5s34.167 -1.5 40.5 -4.5s9.5 -9.83301 9.5 -20.5s-3.16699 -17.5 -9.5 -20.5
s-19.833 -4.5 -40.5 -4.5s-34.167 1.5 -40.5 4.5s-9.5 9.83301 -9.5 20.5zM150 275c0 10.667 3.16699 17.5 9.5 20.5s19.833 4.5 40.5 4.5s34.167 -1.5 40.5 -4.5s9.5 -9.83301 9.5 -20.5s-3.16699 -17.5 -9.5 -20.5s-19.833 -4.5 -40.5 -4.5s-34.167 1.5 -40.5 4.5
s-9.5 9.83301 -9.5 20.5zM0 375c0 10 5 16.333 15 19c16 4 77.667 6 185 6c115.333 0 179 -3 191 -9c6 -2.66699 9 -8 9 -16c0 -10 -5 -16.333 -15 -19c-16 -4 -77.667 -6 -185 -6c-115.333 0 -179 3 -191 9c-6 2.66699 -9 8 -9 16z" />
    <glyph glyph-name="uni0019" 
d="M150 -125c0 10.667 3.16699 17.5 9.5 20.5s19.833 4.5 40.5 4.5s34.167 -1.5 40.5 -4.5s9.5 -9.83301 9.5 -20.5s-3.16699 -17.5 -9.5 -20.5s-19.833 -4.5 -40.5 -4.5s-34.167 1.5 -40.5 4.5s-9.5 9.83301 -9.5 20.5zM150 -25c0 10.667 3.16699 17.5 9.5 20.5
s19.833 4.5 40.5 4.5s34.167 -1.5 40.5 -4.5s9.5 -9.83301 9.5 -20.5s-3.16699 -17.5 -9.5 -20.5s-19.833 -4.5 -40.5 -4.5s-34.167 1.5 -40.5 4.5s-9.5 9.83301 -9.5 20.5zM150 75c0 10.667 3.16699 17.5 9.5 20.5s19.833 4.5 40.5 4.5s34.167 -1.5 40.5 -4.5
s9.5 -9.83301 9.5 -20.5s-3.16699 -17.5 -9.5 -20.5s-19.833 -4.5 -40.5 -4.5s-34.167 1.5 -40.5 4.5s-9.5 9.83301 -9.5 20.5zM150 175c0 10.667 3.16699 17.5 9.5 20.5s19.833 4.5 40.5 4.5s34.167 -1.5 40.5 -4.5s9.5 -9.83301 9.5 -20.5s-3.16699 -17.5 -9.5 -20.5
s-19.833 -4.5 -40.5 -4.5s-34.167 1.5 -40.5 4.5s-9.5 9.83301 -9.5 20.5zM150 275c0 10.667 3.16699 17.5 9.5 20.5s19.833 4.5 40.5 4.5s34.167 -1.5 40.5 -4.5s9.5 -9.83301 9.5 -20.5s-3.16699 -17.5 -9.5 -20.5s-19.833 -4.5 -40.5 -4.5s-34.167 1.5 -40.5 4.5
s-9.5 9.83301 -9.5 20.5zM150 375c0 10.667 3.16699 17.5 9.5 20.5s19.833 4.5 40.5 4.5s34.167 -1.5 40.5 -4.5s9.5 -9.83301 9.5 -20.5s-3.16699 -17.5 -9.5 -20.5s-19.833 -4.5 -40.5 -4.5s-34.167 1.5 -40.5 4.5s-9.5 9.83301 -9.5 20.5zM150 475
c0 10.667 3.16699 17.5 9.5 20.5s19.833 4.5 40.5 4.5s34.167 -1.5 40.5 -4.5s9.5 -9.83301 9.5 -20.5s-3.16699 -17.5 -9.5 -20.5s-19.833 -4.5 -40.5 -4.5s-34.167 1.5 -40.5 4.5s-9.5 9.83301 -9.5 20.5zM150 575c0 10.667 3.16699 17.5 9.5 20.5s19.833 4.5 40.5 4.5
s34.167 -1.5 40.5 -4.5s9.5 -9.83301 9.5 -20.5s-3.16699 -17.5 -9.5 -20.5s-19.833 -4.5 -40.5 -4.5s-34.167 1.5 -40.5 4.5s-9.5 9.83301 -9.5 20.5zM150 675c0 10.667 3.16699 17.5 9.5 20.5s19.833 4.5 40.5 4.5s34.167 -1.5 40.5 -4.5s9.5 -9.83301 9.5 -20.5
s-3.16699 -17.5 -9.5 -20.5s-19.833 -4.5 -40.5 -4.5s-34.167 1.5 -40.5 4.5s-9.5 9.83301 -9.5 20.5zM150 775c0 10.667 3.16699 17.5 9.5 20.5s19.833 4.5 40.5 4.5s34.167 -1.5 40.5 -4.5s9.5 -9.83301 9.5 -20.5s-3.16699 -17.5 -9.5 -20.5s-19.833 -4.5 -40.5 -4.5
s-34.167 1.5 -40.5 4.5s-9.5 9.83301 -9.5 20.5z" />
    <glyph glyph-name="uni001A" 
d="M0 -25c0 10 5 16.333 15 19c16 4 77.667 6 185 6c115.333 0 179 -3 191 -9c6 -2.66699 9 -8 9 -16c0 -10 -5 -16.333 -15 -19c-16 -4 -77.667 -6 -185 -6c-115.333 0 -179 3 -191 9c-6 2.66699 -9 8 -9 16zM300 75c0 10.667 3.16699 17.5 9.5 20.5s19.833 4.5 40.5 4.5
s34.167 -1.5 40.5 -4.5s9.5 -9.83301 9.5 -20.5s-3.16699 -17.5 -9.5 -20.5s-19.833 -4.5 -40.5 -4.5s-34.167 1.5 -40.5 4.5s-9.5 9.83301 -9.5 20.5zM200 175c0 10.667 3.16699 17.5 9.5 20.5s19.833 4.5 40.5 4.5s34.167 -1.5 40.5 -4.5s9.5 -9.83301 9.5 -20.5
s-3.16699 -17.5 -9.5 -20.5s-19.833 -4.5 -40.5 -4.5s-34.167 1.5 -40.5 4.5s-9.5 9.83301 -9.5 20.5zM100 275c0 10.667 3.16699 17.5 9.5 20.5s19.833 4.5 40.5 4.5s34.167 -1.5 40.5 -4.5s9.5 -9.83301 9.5 -20.5s-3.16699 -17.5 -9.5 -20.5s-19.833 -4.5 -40.5 -4.5
s-34.167 1.5 -40.5 4.5s-9.5 9.83301 -9.5 20.5zM0 375c0 10.667 3.16699 17.5 9.5 20.5s19.833 4.5 40.5 4.5s34.167 -1.5 40.5 -4.5s9.5 -9.83301 9.5 -20.5s-3.16699 -17.5 -9.5 -20.5s-19.833 -4.5 -40.5 -4.5s-34.167 1.5 -40.5 4.5s-9.5 9.83301 -9.5 20.5zM100 475
c0 10.667 3.16699 17.5 9.5 20.5s19.833 4.5 40.5 4.5s34.167 -1.5 40.5 -4.5s9.5 -9.83301 9.5 -20.5s-3.16699 -17.5 -9.5 -20.5s-19.833 -4.5 -40.5 -4.5s-34.167 1.5 -40.5 4.5s-9.5 9.83301 -9.5 20.5zM200 575c0 10.667 3.16699 17.5 9.5 20.5s19.833 4.5 40.5 4.5
s34.167 -1.5 40.5 -4.5s9.5 -9.83301 9.5 -20.5s-3.16699 -17.5 -9.5 -20.5s-19.833 -4.5 -40.5 -4.5s-34.167 1.5 -40.5 4.5s-9.5 9.83301 -9.5 20.5zM300 675c0 10.667 3.16699 17.5 9.5 20.5s19.833 4.5 40.5 4.5s34.167 -1.5 40.5 -4.5s9.5 -9.83301 9.5 -20.5
s-3.16699 -17.5 -9.5 -20.5s-19.833 -4.5 -40.5 -4.5s-34.167 1.5 -40.5 4.5s-9.5 9.83301 -9.5 20.5z" />
    <glyph glyph-name="uni001B" 
d="M0 -25c0 10 5 16.333 15 19c16 4 77.667 6 185 6c115.333 0 179 -3 191 -9c6 -2.66699 9 -8 9 -16c0 -10 -5 -16.333 -15 -19c-16 -4 -77.667 -6 -185 -6c-115.333 0 -179 3 -191 9c-6 2.66699 -9 8 -9 16zM0 75c0 10.667 3.16699 17.5 9.5 20.5s19.833 4.5 40.5 4.5
s34.167 -1.5 40.5 -4.5s9.5 -9.83301 9.5 -20.5s-3.16699 -17.5 -9.5 -20.5s-19.833 -4.5 -40.5 -4.5s-34.167 1.5 -40.5 4.5s-9.5 9.83301 -9.5 20.5zM100 175c0 10.667 3.16699 17.5 9.5 20.5s19.833 4.5 40.5 4.5s34.167 -1.5 40.5 -4.5s9.5 -9.83301 9.5 -20.5
s-3.16699 -17.5 -9.5 -20.5s-19.833 -4.5 -40.5 -4.5s-34.167 1.5 -40.5 4.5s-9.5 9.83301 -9.5 20.5zM200 275c0 10.667 3.16699 17.5 9.5 20.5s19.833 4.5 40.5 4.5s34.167 -1.5 40.5 -4.5s9.5 -9.83301 9.5 -20.5s-3.16699 -17.5 -9.5 -20.5s-19.833 -4.5 -40.5 -4.5
s-34.167 1.5 -40.5 4.5s-9.5 9.83301 -9.5 20.5zM300 375c0 10.667 3.16699 17.5 9.5 20.5s19.833 4.5 40.5 4.5s34.167 -1.5 40.5 -4.5s9.5 -9.83301 9.5 -20.5s-3.16699 -17.5 -9.5 -20.5s-19.833 -4.5 -40.5 -4.5s-34.167 1.5 -40.5 4.5s-9.5 9.83301 -9.5 20.5zM200 475
c0 10.667 3.16699 17.5 9.5 20.5s19.833 4.5 40.5 4.5s34.167 -1.5 40.5 -4.5s9.5 -9.83301 9.5 -20.5s-3.16699 -17.5 -9.5 -20.5s-19.833 -4.5 -40.5 -4.5s-34.167 1.5 -40.5 4.5s-9.5 9.83301 -9.5 20.5zM100 575c0 10.667 3.16699 17.5 9.5 20.5s19.833 4.5 40.5 4.5
s34.167 -1.5 40.5 -4.5s9.5 -9.83301 9.5 -20.5s-3.16699 -17.5 -9.5 -20.5s-19.833 -4.5 -40.5 -4.5s-34.167 1.5 -40.5 4.5s-9.5 9.83301 -9.5 20.5zM0 675c0 10.667 3.16699 17.5 9.5 20.5s19.833 4.5 40.5 4.5s34.167 -1.5 40.5 -4.5s9.5 -9.83301 9.5 -20.5
s-3.16699 -17.5 -9.5 -20.5s-19.833 -4.5 -40.5 -4.5s-34.167 1.5 -40.5 4.5s-9.5 9.83301 -9.5 20.5z" />
    <glyph glyph-name="uni001C" 
d="M250 75c0 10.667 3.16699 17.5 9.5 20.5s19.833 4.5 40.5 4.5s34.167 -1.5 40.5 -4.5s9.5 -9.83301 9.5 -20.5s-3.16699 -17.5 -9.5 -20.5s-19.833 -4.5 -40.5 -4.5s-34.167 1.5 -40.5 4.5s-9.5 9.83301 -9.5 20.5zM50 75c0 10.667 3.16699 17.5 9.5 20.5
s19.833 4.5 40.5 4.5s34.167 -1.5 40.5 -4.5s9.5 -9.83301 9.5 -20.5s-3.16699 -17.5 -9.5 -20.5s-19.833 -4.5 -40.5 -4.5s-34.167 1.5 -40.5 4.5s-9.5 9.83301 -9.5 20.5zM250 175c0 10.667 3.16699 17.5 9.5 20.5s19.833 4.5 40.5 4.5s34.167 -1.5 40.5 -4.5
s9.5 -9.83301 9.5 -20.5s-3.16699 -17.5 -9.5 -20.5s-19.833 -4.5 -40.5 -4.5s-34.167 1.5 -40.5 4.5s-9.5 9.83301 -9.5 20.5zM100 175c0 10.667 3.16699 17.5 9.5 20.5s19.833 4.5 40.5 4.5s34.167 -1.5 40.5 -4.5s9.5 -9.83301 9.5 -20.5s-3.16699 -17.5 -9.5 -20.5
s-19.833 -4.5 -40.5 -4.5s-34.167 1.5 -40.5 4.5s-9.5 9.83301 -9.5 20.5zM250 275c0 10.667 3.16699 17.5 9.5 20.5s19.833 4.5 40.5 4.5s34.167 -1.5 40.5 -4.5s9.5 -9.83301 9.5 -20.5s-3.16699 -17.5 -9.5 -20.5s-19.833 -4.5 -40.5 -4.5s-34.167 1.5 -40.5 4.5
s-9.5 9.83301 -9.5 20.5zM100 275c0 10.667 3.16699 17.5 9.5 20.5s19.833 4.5 40.5 4.5s34.167 -1.5 40.5 -4.5s9.5 -9.83301 9.5 -20.5s-3.16699 -17.5 -9.5 -20.5s-19.833 -4.5 -40.5 -4.5s-34.167 1.5 -40.5 4.5s-9.5 9.83301 -9.5 20.5zM250 375
c0 10.667 3.16699 17.5 9.5 20.5s19.833 4.5 40.5 4.5s34.167 -1.5 40.5 -4.5s9.5 -9.83301 9.5 -20.5s-3.16699 -17.5 -9.5 -20.5s-19.833 -4.5 -40.5 -4.5s-34.167 1.5 -40.5 4.5s-9.5 9.83301 -9.5 20.5zM100 375c0 10.667 3.16699 17.5 9.5 20.5s19.833 4.5 40.5 4.5
s34.167 -1.5 40.5 -4.5s9.5 -9.83301 9.5 -20.5s-3.16699 -17.5 -9.5 -20.5s-19.833 -4.5 -40.5 -4.5s-34.167 1.5 -40.5 4.5s-9.5 9.83301 -9.5 20.5zM0 475c0 10 5 16.333 15 19c16 4 77.667 6 185 6c115.333 0 179 -3 191 -9c6 -2.66699 9 -8 9 -16
c0 -10 -5 -16.333 -15 -19c-16 -4 -77.667 -6 -185 -6c-115.333 0 -179 3 -191 9c-6 2.66699 -9 8 -9 16z" />
    <glyph glyph-name="uni001D" 
d="M0 75c0 10.667 3.16699 17.5 9.5 20.5s19.833 4.5 40.5 4.5s34.167 -1.5 40.5 -4.5s9.5 -9.83301 9.5 -20.5s-3.16699 -17.5 -9.5 -20.5s-19.833 -4.5 -40.5 -4.5s-34.167 1.5 -40.5 4.5s-9.5 9.83301 -9.5 20.5zM50 175c0 10.667 3.16699 17.5 9.5 20.5
s19.833 4.5 40.5 4.5s34.167 -1.5 40.5 -4.5s9.5 -9.83301 9.5 -20.5s-3.16699 -17.5 -9.5 -20.5s-19.833 -4.5 -40.5 -4.5s-34.167 1.5 -40.5 4.5s-9.5 9.83301 -9.5 20.5zM0 275c0 10 5 16.333 15 19c16 4 77.667 6 185 6c115.333 0 179 -3 191 -9c6 -2.66699 9 -8 9 -16
c0 -10 -5 -16.333 -15 -19c-16 -4 -77.667 -6 -185 -6c-115.333 0 -179 3 -191 9c-6 2.66699 -9 8 -9 16zM150 375c0 10.667 3.16699 17.5 9.5 20.5s19.833 4.5 40.5 4.5s34.167 -1.5 40.5 -4.5s9.5 -9.83301 9.5 -20.5s-3.16699 -17.5 -9.5 -20.5s-19.833 -4.5 -40.5 -4.5
s-34.167 1.5 -40.5 4.5s-9.5 9.83301 -9.5 20.5zM0 475c0 10 5 16.333 15 19c16 4 77.667 6 185 6c115.333 0 179 -3 191 -9c6 -2.66699 9 -8 9 -16c0 -10 -5 -16.333 -15 -19c-16 -4 -77.667 -6 -185 -6c-115.333 0 -179 3 -191 9c-6 2.66699 -9 8 -9 16zM250 575
c0 10.667 3.16699 17.5 9.5 20.5s19.833 4.5 40.5 4.5s34.167 -1.5 40.5 -4.5s9.5 -9.83301 9.5 -20.5s-3.16699 -17.5 -9.5 -20.5s-19.833 -4.5 -40.5 -4.5s-34.167 1.5 -40.5 4.5s-9.5 9.83301 -9.5 20.5zM300 675c0 10.667 3.16699 17.5 9.5 20.5s19.833 4.5 40.5 4.5
s34.167 -1.5 40.5 -4.5s9.5 -9.83301 9.5 -20.5s-3.16699 -17.5 -9.5 -20.5s-19.833 -4.5 -40.5 -4.5s-34.167 1.5 -40.5 4.5s-9.5 9.83301 -9.5 20.5z" />
    <glyph glyph-name="uni001E" 
d="M50 -25c0 10.667 3.16699 17.5 9.5 20.5s19.833 4.5 40.5 4.5s34.167 -1.5 40.5 -4.5s9.5 -9.83301 9.5 -20.5s-3.16699 -17.5 -9.5 -20.5s-19.833 -4.5 -40.5 -4.5s-34.167 1.5 -40.5 4.5s-9.5 9.83301 -9.5 20.5zM250 75c0 11.333 4.33301 18.333 13 21
s29.334 4 62.001 4c33.333 0 54.166 -1.33301 62.499 -4s12.5 -9.66699 12.5 -21s-4.16699 -18.333 -12.5 -21s-29.166 -4 -62.499 -4c-32.667 0 -53.334 1.33301 -62.001 4s-13 9.66699 -13 21zM0 75c0 11.333 5.33301 18.333 16 21s38.667 4 84 4s73.333 -1.33301 84 -4
s16 -9.66699 16 -21s-5.33301 -18.333 -16 -21s-38.667 -4 -84 -4s-73.333 1.33301 -84 4s-16 9.66699 -16 21zM50 175c0 6 0.833008 10.5 2.5 13.5s7.33398 5.5 17.001 7.5s21.834 3.16699 36.501 3.5s37.667 0.5 69 0.5s54.333 -0.166992 69 -0.5s26.834 -1.5 36.501 -3.5
s15.334 -4.5 17.001 -7.5s2.5 -7.5 2.5 -13.5s-0.833008 -10.5 -2.5 -13.5s-7.33398 -5.5 -17.001 -7.5s-21.834 -3.16699 -36.501 -3.5s-37.667 -0.5 -69 -0.5s-54.333 0.166992 -69 0.5s-26.834 1.5 -36.501 3.5s-15.334 4.5 -17.001 7.5s-2.5 7.5 -2.5 13.5zM100 275
c0 10.667 3.16699 17.5 9.5 20.5s19.833 4.5 40.5 4.5s34.167 -1.5 40.5 -4.5s9.5 -9.83301 9.5 -20.5s-3.16699 -17.5 -9.5 -20.5s-19.833 -4.5 -40.5 -4.5s-34.167 1.5 -40.5 4.5s-9.5 9.83301 -9.5 20.5zM0 375c0 10.667 5 17.334 15 20.001
c12.667 3.33301 57.667 5 135 5c86 0 133.667 -3 143 -9c4.66699 -2.66699 7 -8 7 -16c0 -10.667 -5 -17.334 -15 -20.001c-12.667 -3.33301 -57.667 -5 -135 -5c-86 0 -133.667 3 -143 9c-4.66699 2.66699 -7 8 -7 16zM100 475c0 10.667 3.16699 17.5 9.5 20.5
s19.833 4.5 40.5 4.5s34.167 -1.5 40.5 -4.5s9.5 -9.83301 9.5 -20.5s-3.16699 -17.5 -9.5 -20.5s-19.833 -4.5 -40.5 -4.5s-34.167 1.5 -40.5 4.5s-9.5 9.83301 -9.5 20.5zM300 575c0 10.667 3.16699 17.5 9.5 20.5s19.833 4.5 40.5 4.5s34.167 -1.5 40.5 -4.5
s9.5 -9.83301 9.5 -20.5s-3.16699 -17.5 -9.5 -20.5s-19.833 -4.5 -40.5 -4.5s-34.167 1.5 -40.5 4.5s-9.5 9.83301 -9.5 20.5zM100 575c0 10.667 3.16699 17.5 9.5 20.5s19.833 4.5 40.5 4.5s34.167 -1.5 40.5 -4.5s9.5 -9.83301 9.5 -20.5s-3.16699 -17.5 -9.5 -20.5
s-19.833 -4.5 -40.5 -4.5s-34.167 1.5 -40.5 4.5s-9.5 9.83301 -9.5 20.5zM150 675c0 11.333 5.33301 18.333 16 21s38.667 4 84 4s73.333 -1.33301 84 -4s16 -9.66699 16 -21s-5.33301 -18.333 -16 -21s-38.667 -4 -84 -4s-73.333 1.33301 -84 4s-16 9.66699 -16 21z" />
    <glyph glyph-name="uni001F" 
d="M150 375c0 10.667 3.16699 17.5 9.5 20.5s19.833 4.5 40.5 4.5s34.167 -1.5 40.5 -4.5s9.5 -9.83301 9.5 -20.5s-3.16699 -17.5 -9.5 -20.5s-19.833 -4.5 -40.5 -4.5s-34.167 1.5 -40.5 4.5s-9.5 9.83301 -9.5 20.5z" />
    <glyph glyph-name="space" unicode=" " 
 />
    <glyph glyph-name="exclam" unicode="!" 
d="M150 75c0 10.667 3.16699 17.5 9.5 20.5s19.833 4.5 40.5 4.5s34.167 -1.5 40.5 -4.5s9.5 -9.83301 9.5 -20.5s-3.16699 -17.5 -9.5 -20.5s-19.833 -4.5 -40.5 -4.5s-34.167 1.5 -40.5 4.5s-9.5 9.83301 -9.5 20.5zM150 275c0 10.667 3.16699 17.5 9.5 20.5
s19.833 4.5 40.5 4.5s34.167 -1.5 40.5 -4.5s9.5 -9.83301 9.5 -20.5s-3.16699 -17.5 -9.5 -20.5s-19.833 -4.5 -40.5 -4.5s-34.167 1.5 -40.5 4.5s-9.5 9.83301 -9.5 20.5zM150 375c0 10.667 3.16699 17.5 9.5 20.5s19.833 4.5 40.5 4.5s34.167 -1.5 40.5 -4.5
s9.5 -9.83301 9.5 -20.5s-3.16699 -17.5 -9.5 -20.5s-19.833 -4.5 -40.5 -4.5s-34.167 1.5 -40.5 4.5s-9.5 9.83301 -9.5 20.5zM150 475c0 10.667 3.16699 17.5 9.5 20.5s19.833 4.5 40.5 4.5s34.167 -1.5 40.5 -4.5s9.5 -9.83301 9.5 -20.5s-3.16699 -17.5 -9.5 -20.5
s-19.833 -4.5 -40.5 -4.5s-34.167 1.5 -40.5 4.5s-9.5 9.83301 -9.5 20.5zM150 575c0 10.667 3.16699 17.5 9.5 20.5s19.833 4.5 40.5 4.5s34.167 -1.5 40.5 -4.5s9.5 -9.83301 9.5 -20.5s-3.16699 -17.5 -9.5 -20.5s-19.833 -4.5 -40.5 -4.5s-34.167 1.5 -40.5 4.5
s-9.5 9.83301 -9.5 20.5zM150 675c0 10.667 3.16699 17.5 9.5 20.5s19.833 4.5 40.5 4.5s34.167 -1.5 40.5 -4.5s9.5 -9.83301 9.5 -20.5s-3.16699 -17.5 -9.5 -20.5s-19.833 -4.5 -40.5 -4.5s-34.167 1.5 -40.5 4.5s-9.5 9.83301 -9.5 20.5z" />
    <glyph glyph-name="quotedbl" unicode="&#x22;" 
d="M200 475c0 10.667 3.16699 17.5 9.5 20.5s19.833 4.5 40.5 4.5s34.167 -1.5 40.5 -4.5s9.5 -9.83301 9.5 -20.5s-3.16699 -17.5 -9.5 -20.5s-19.833 -4.5 -40.5 -4.5s-34.167 1.5 -40.5 4.5s-9.5 9.83301 -9.5 20.5zM50 475c0 10.667 3.16699 17.5 9.5 20.5
s19.833 4.5 40.5 4.5s34.167 -1.5 40.5 -4.5s9.5 -9.83301 9.5 -20.5s-3.16699 -17.5 -9.5 -20.5s-19.833 -4.5 -40.5 -4.5s-34.167 1.5 -40.5 4.5s-9.5 9.83301 -9.5 20.5zM200 575c0 10.667 3.16699 17.5 9.5 20.5s19.833 4.5 40.5 4.5s34.167 -1.5 40.5 -4.5
s9.5 -9.83301 9.5 -20.5s-3.16699 -17.5 -9.5 -20.5s-19.833 -4.5 -40.5 -4.5s-34.167 1.5 -40.5 4.5s-9.5 9.83301 -9.5 20.5zM50 575c0 10.667 3.16699 17.5 9.5 20.5s19.833 4.5 40.5 4.5s34.167 -1.5 40.5 -4.5s9.5 -9.83301 9.5 -20.5s-3.16699 -17.5 -9.5 -20.5
s-19.833 -4.5 -40.5 -4.5s-34.167 1.5 -40.5 4.5s-9.5 9.83301 -9.5 20.5zM200 675c0 10.667 3.16699 17.5 9.5 20.5s19.833 4.5 40.5 4.5s34.167 -1.5 40.5 -4.5s9.5 -9.83301 9.5 -20.5s-3.16699 -17.5 -9.5 -20.5s-19.833 -4.5 -40.5 -4.5s-34.167 1.5 -40.5 4.5
s-9.5 9.83301 -9.5 20.5zM50 675c0 10.667 3.16699 17.5 9.5 20.5s19.833 4.5 40.5 4.5s34.167 -1.5 40.5 -4.5s9.5 -9.83301 9.5 -20.5s-3.16699 -17.5 -9.5 -20.5s-19.833 -4.5 -40.5 -4.5s-34.167 1.5 -40.5 4.5s-9.5 9.83301 -9.5 20.5z" />
    <glyph glyph-name="numbersign" unicode="#" 
d="M200 75c0 10.667 3.16699 17.5 9.5 20.5s19.833 4.5 40.5 4.5s34.167 -1.5 40.5 -4.5s9.5 -9.83301 9.5 -20.5s-3.16699 -17.5 -9.5 -20.5s-19.833 -4.5 -40.5 -4.5s-34.167 1.5 -40.5 4.5s-9.5 9.83301 -9.5 20.5zM50 75c0 10.667 3.16699 17.5 9.5 20.5
s19.833 4.5 40.5 4.5s34.167 -1.5 40.5 -4.5s9.5 -9.83301 9.5 -20.5s-3.16699 -17.5 -9.5 -20.5s-19.833 -4.5 -40.5 -4.5s-34.167 1.5 -40.5 4.5s-9.5 9.83301 -9.5 20.5zM200 175c0 10.667 3.16699 17.5 9.5 20.5s19.833 4.5 40.5 4.5s34.167 -1.5 40.5 -4.5
s9.5 -9.83301 9.5 -20.5s-3.16699 -17.5 -9.5 -20.5s-19.833 -4.5 -40.5 -4.5s-34.167 1.5 -40.5 4.5s-9.5 9.83301 -9.5 20.5zM50 175c0 10.667 3.16699 17.5 9.5 20.5s19.833 4.5 40.5 4.5s34.167 -1.5 40.5 -4.5s9.5 -9.83301 9.5 -20.5s-3.16699 -17.5 -9.5 -20.5
s-19.833 -4.5 -40.5 -4.5s-34.167 1.5 -40.5 4.5s-9.5 9.83301 -9.5 20.5zM0 275c0 10 5 16.333 15 19c14.667 4 68 6 160 6c100.667 0 156.334 -3 167.001 -9c5.33301 -2.66699 8 -8 8 -16c0 -10 -5 -16.333 -15 -19c-14.667 -4 -68 -6 -160 -6
c-100.667 0 -156.334 3 -167.001 9c-5.33301 2.66699 -8 8 -8 16zM200 375c0 10.667 3.16699 17.5 9.5 20.5s19.833 4.5 40.5 4.5s34.167 -1.5 40.5 -4.5s9.5 -9.83301 9.5 -20.5s-3.16699 -17.5 -9.5 -20.5s-19.833 -4.5 -40.5 -4.5s-34.167 1.5 -40.5 4.5
s-9.5 9.83301 -9.5 20.5zM50 375c0 10.667 3.16699 17.5 9.5 20.5s19.833 4.5 40.5 4.5s34.167 -1.5 40.5 -4.5s9.5 -9.83301 9.5 -20.5s-3.16699 -17.5 -9.5 -20.5s-19.833 -4.5 -40.5 -4.5s-34.167 1.5 -40.5 4.5s-9.5 9.83301 -9.5 20.5zM0 475c0 10 5 16.333 15 19
c14.667 4 68 6 160 6c100.667 0 156.334 -3 167.001 -9c5.33301 -2.66699 8 -8 8 -16c0 -10 -5 -16.333 -15 -19c-14.667 -4 -68 -6 -160 -6c-100.667 0 -156.334 3 -167.001 9c-5.33301 2.66699 -8 8 -8 16zM200 575c0 10.667 3.16699 17.5 9.5 20.5s19.833 4.5 40.5 4.5
s34.167 -1.5 40.5 -4.5s9.5 -9.83301 9.5 -20.5s-3.16699 -17.5 -9.5 -20.5s-19.833 -4.5 -40.5 -4.5s-34.167 1.5 -40.5 4.5s-9.5 9.83301 -9.5 20.5zM50 575c0 10.667 3.16699 17.5 9.5 20.5s19.833 4.5 40.5 4.5s34.167 -1.5 40.5 -4.5s9.5 -9.83301 9.5 -20.5
s-3.16699 -17.5 -9.5 -20.5s-19.833 -4.5 -40.5 -4.5s-34.167 1.5 -40.5 4.5s-9.5 9.83301 -9.5 20.5zM200 675c0 10.667 3.16699 17.5 9.5 20.5s19.833 4.5 40.5 4.5s34.167 -1.5 40.5 -4.5s9.5 -9.83301 9.5 -20.5s-3.16699 -17.5 -9.5 -20.5s-19.833 -4.5 -40.5 -4.5
s-34.167 1.5 -40.5 4.5s-9.5 9.83301 -9.5 20.5zM50 675c0 10.667 3.16699 17.5 9.5 20.5s19.833 4.5 40.5 4.5s34.167 -1.5 40.5 -4.5s9.5 -9.83301 9.5 -20.5s-3.16699 -17.5 -9.5 -20.5s-19.833 -4.5 -40.5 -4.5s-34.167 1.5 -40.5 4.5s-9.5 9.83301 -9.5 20.5z" />
    <glyph glyph-name="dollar" unicode="$" 
d="M150 75c0 10.667 3.16699 17.5 9.5 20.5s19.833 4.5 40.5 4.5s34.167 -1.5 40.5 -4.5s9.5 -9.83301 9.5 -20.5s-3.16699 -17.5 -9.5 -20.5s-19.833 -4.5 -40.5 -4.5s-34.167 1.5 -40.5 4.5s-9.5 9.83301 -9.5 20.5zM50 175c0 10.667 5 17.334 15 20.001
c12.667 3.33301 57.667 5 135 5c86 0 133.667 -3 143 -9c4.66699 -2.66699 7 -8 7 -16c0 -10.667 -5 -17.334 -15 -20.001c-12.667 -3.33301 -57.667 -5 -135 -5c-86 0 -133.667 3 -143 9c-4.66699 2.66699 -7 8 -7 16zM300 275c0 10.667 3.16699 17.5 9.5 20.5
s19.833 4.5 40.5 4.5s34.167 -1.5 40.5 -4.5s9.5 -9.83301 9.5 -20.5s-3.16699 -17.5 -9.5 -20.5s-19.833 -4.5 -40.5 -4.5s-34.167 1.5 -40.5 4.5s-9.5 9.83301 -9.5 20.5zM150 275c0 10.667 3.16699 17.5 9.5 20.5s19.833 4.5 40.5 4.5s34.167 -1.5 40.5 -4.5
s9.5 -9.83301 9.5 -20.5s-3.16699 -17.5 -9.5 -20.5s-19.833 -4.5 -40.5 -4.5s-34.167 1.5 -40.5 4.5s-9.5 9.83301 -9.5 20.5zM50 375c0 10.667 5 17.334 15 20.001c12.667 3.33301 57.667 5 135 5c86 0 133.667 -3 143 -9c4.66699 -2.66699 7 -8 7 -16
c0 -10.667 -5 -17.334 -15 -20.001c-12.667 -3.33301 -57.667 -5 -135 -5c-86 0 -133.667 3 -143 9c-4.66699 2.66699 -7 8 -7 16zM150 475c0 10.667 3.16699 17.5 9.5 20.5s19.833 4.5 40.5 4.5s34.167 -1.5 40.5 -4.5s9.5 -9.83301 9.5 -20.5s-3.16699 -17.5 -9.5 -20.5
s-19.833 -4.5 -40.5 -4.5s-34.167 1.5 -40.5 4.5s-9.5 9.83301 -9.5 20.5zM0 475c0 10.667 3.16699 17.5 9.5 20.5s19.833 4.5 40.5 4.5s34.167 -1.5 40.5 -4.5s9.5 -9.83301 9.5 -20.5s-3.16699 -17.5 -9.5 -20.5s-19.833 -4.5 -40.5 -4.5s-34.167 1.5 -40.5 4.5
s-9.5 9.83301 -9.5 20.5zM50 575c0 10.667 5 17.334 15 20.001c12.667 3.33301 57.667 5 135 5c86 0 133.667 -3 143 -9c4.66699 -2.66699 7 -8 7 -16c0 -10.667 -5 -17.334 -15 -20.001c-12.667 -3.33301 -57.667 -5 -135 -5c-86 0 -133.667 3 -143 9
c-4.66699 2.66699 -7 8 -7 16zM150 675c0 10.667 3.16699 17.5 9.5 20.5s19.833 4.5 40.5 4.5s34.167 -1.5 40.5 -4.5s9.5 -9.83301 9.5 -20.5s-3.16699 -17.5 -9.5 -20.5s-19.833 -4.5 -40.5 -4.5s-34.167 1.5 -40.5 4.5s-9.5 9.83301 -9.5 20.5z" />
    <glyph glyph-name="percent" unicode="%" 
d="M250 75c0 10.667 3.16699 17.5 9.5 20.5s19.833 4.5 40.5 4.5s34.167 -1.5 40.5 -4.5s9.5 -9.83301 9.5 -20.5s-3.16699 -17.5 -9.5 -20.5s-19.833 -4.5 -40.5 -4.5s-34.167 1.5 -40.5 4.5s-9.5 9.83301 -9.5 20.5zM0 75c0 10.667 3.16699 17.5 9.5 20.5
s19.833 4.5 40.5 4.5s34.167 -1.5 40.5 -4.5s9.5 -9.83301 9.5 -20.5s-3.16699 -17.5 -9.5 -20.5s-19.833 -4.5 -40.5 -4.5s-34.167 1.5 -40.5 4.5s-9.5 9.83301 -9.5 20.5zM200 175c0 11.333 5.33301 18.333 16 21s38.667 4 84 4s73.333 -1.33301 84 -4s16 -9.66699 16 -21
s-5.33301 -18.333 -16 -21s-38.667 -4 -84 -4s-73.333 1.33301 -84 4s-16 9.66699 -16 21zM50 175c0 10.667 3.16699 17.5 9.5 20.5s19.833 4.5 40.5 4.5s34.167 -1.5 40.5 -4.5s9.5 -9.83301 9.5 -20.5s-3.16699 -17.5 -9.5 -20.5s-19.833 -4.5 -40.5 -4.5
s-34.167 1.5 -40.5 4.5s-9.5 9.83301 -9.5 20.5zM250 275c0 10.667 3.16699 17.5 9.5 20.5s19.833 4.5 40.5 4.5s34.167 -1.5 40.5 -4.5s9.5 -9.83301 9.5 -20.5s-3.16699 -17.5 -9.5 -20.5s-19.833 -4.5 -40.5 -4.5s-34.167 1.5 -40.5 4.5s-9.5 9.83301 -9.5 20.5zM100 275
c0 10.667 3.16699 17.5 9.5 20.5s19.833 4.5 40.5 4.5s34.167 -1.5 40.5 -4.5s9.5 -9.83301 9.5 -20.5s-3.16699 -17.5 -9.5 -20.5s-19.833 -4.5 -40.5 -4.5s-34.167 1.5 -40.5 4.5s-9.5 9.83301 -9.5 20.5zM150 375c0 10.667 3.16699 17.5 9.5 20.5s19.833 4.5 40.5 4.5
s34.167 -1.5 40.5 -4.5s9.5 -9.83301 9.5 -20.5s-3.16699 -17.5 -9.5 -20.5s-19.833 -4.5 -40.5 -4.5s-34.167 1.5 -40.5 4.5s-9.5 9.83301 -9.5 20.5zM200 475c0 10.667 3.16699 17.5 9.5 20.5s19.833 4.5 40.5 4.5s34.167 -1.5 40.5 -4.5s9.5 -9.83301 9.5 -20.5
s-3.16699 -17.5 -9.5 -20.5s-19.833 -4.5 -40.5 -4.5s-34.167 1.5 -40.5 4.5s-9.5 9.83301 -9.5 20.5zM50 475c0 10.667 3.16699 17.5 9.5 20.5s19.833 4.5 40.5 4.5s34.167 -1.5 40.5 -4.5s9.5 -9.83301 9.5 -20.5s-3.16699 -17.5 -9.5 -20.5s-19.833 -4.5 -40.5 -4.5
s-34.167 1.5 -40.5 4.5s-9.5 9.83301 -9.5 20.5zM250 575c0 10.667 3.16699 17.5 9.5 20.5s19.833 4.5 40.5 4.5s34.167 -1.5 40.5 -4.5s9.5 -9.83301 9.5 -20.5s-3.16699 -17.5 -9.5 -20.5s-19.833 -4.5 -40.5 -4.5s-34.167 1.5 -40.5 4.5s-9.5 9.83301 -9.5 20.5zM0 575
c0 11.333 5.33301 18.333 16 21s38.667 4 84 4s73.333 -1.33301 84 -4s16 -9.66699 16 -21s-5.33301 -18.333 -16 -21s-38.667 -4 -84 -4s-73.333 1.33301 -84 4s-16 9.66699 -16 21zM300 675c0 10.667 3.16699 17.5 9.5 20.5s19.833 4.5 40.5 4.5s34.167 -1.5 40.5 -4.5
s9.5 -9.83301 9.5 -20.5s-3.16699 -17.5 -9.5 -20.5s-19.833 -4.5 -40.5 -4.5s-34.167 1.5 -40.5 4.5s-9.5 9.83301 -9.5 20.5zM50 675c0 10.667 3.16699 17.5 9.5 20.5s19.833 4.5 40.5 4.5s34.167 -1.5 40.5 -4.5s9.5 -9.83301 9.5 -20.5s-3.16699 -17.5 -9.5 -20.5
s-19.833 -4.5 -40.5 -4.5s-34.167 1.5 -40.5 4.5s-9.5 9.83301 -9.5 20.5z" />
    <glyph glyph-name="ampersand" unicode="&#x26;" 
d="M50 75c0 10 5 16.333 15 19c14.667 4 68 6 160 6c100.667 0 156.334 -3 167.001 -9c5.33301 -2.66699 8 -8 8 -16c0 -10 -5 -16.333 -15 -19c-14.667 -4 -68 -6 -160 -6c-100.667 0 -156.334 3 -167.001 9c-5.33301 2.66699 -8 8 -8 16zM250 175
c0 10.667 3.16699 17.5 9.5 20.5s19.833 4.5 40.5 4.5s34.167 -1.5 40.5 -4.5s9.5 -9.83301 9.5 -20.5s-3.16699 -17.5 -9.5 -20.5s-19.833 -4.5 -40.5 -4.5s-34.167 1.5 -40.5 4.5s-9.5 9.83301 -9.5 20.5zM0 175c0 10.667 3.16699 17.5 9.5 20.5s19.833 4.5 40.5 4.5
s34.167 -1.5 40.5 -4.5s9.5 -9.83301 9.5 -20.5s-3.16699 -17.5 -9.5 -20.5s-19.833 -4.5 -40.5 -4.5s-34.167 1.5 -40.5 4.5s-9.5 9.83301 -9.5 20.5zM200 275c0 11.333 5.33301 18.333 16 21s38.667 4 84 4s73.333 -1.33301 84 -4s16 -9.66699 16 -21
s-5.33301 -18.333 -16 -21s-38.667 -4 -84 -4s-73.333 1.33301 -84 4s-16 9.66699 -16 21zM0 275c0 10.667 3.16699 17.5 9.5 20.5s19.833 4.5 40.5 4.5s34.167 -1.5 40.5 -4.5s9.5 -9.83301 9.5 -20.5s-3.16699 -17.5 -9.5 -20.5s-19.833 -4.5 -40.5 -4.5
s-34.167 1.5 -40.5 4.5s-9.5 9.83301 -9.5 20.5zM50 375c0 11.333 5.33301 18.333 16 21s38.667 4 84 4s73.333 -1.33301 84 -4s16 -9.66699 16 -21s-5.33301 -18.333 -16 -21s-38.667 -4 -84 -4s-73.333 1.33301 -84 4s-16 9.66699 -16 21zM200 475
c0 10.667 3.16699 17.5 9.5 20.5s19.833 4.5 40.5 4.5s34.167 -1.5 40.5 -4.5s9.5 -9.83301 9.5 -20.5s-3.16699 -17.5 -9.5 -20.5s-19.833 -4.5 -40.5 -4.5s-34.167 1.5 -40.5 4.5s-9.5 9.83301 -9.5 20.5zM0 475c0 10.667 3.16699 17.5 9.5 20.5s19.833 4.5 40.5 4.5
s34.167 -1.5 40.5 -4.5s9.5 -9.83301 9.5 -20.5s-3.16699 -17.5 -9.5 -20.5s-19.833 -4.5 -40.5 -4.5s-34.167 1.5 -40.5 4.5s-9.5 9.83301 -9.5 20.5zM200 575c0 10.667 3.16699 17.5 9.5 20.5s19.833 4.5 40.5 4.5s34.167 -1.5 40.5 -4.5s9.5 -9.83301 9.5 -20.5
s-3.16699 -17.5 -9.5 -20.5s-19.833 -4.5 -40.5 -4.5s-34.167 1.5 -40.5 4.5s-9.5 9.83301 -9.5 20.5zM0 575c0 10.667 3.16699 17.5 9.5 20.5s19.833 4.5 40.5 4.5s34.167 -1.5 40.5 -4.5s9.5 -9.83301 9.5 -20.5s-3.16699 -17.5 -9.5 -20.5s-19.833 -4.5 -40.5 -4.5
s-34.167 1.5 -40.5 4.5s-9.5 9.83301 -9.5 20.5zM50 675c0 11.333 5.33301 18.333 16 21s38.667 4 84 4s73.333 -1.33301 84 -4s16 -9.66699 16 -21s-5.33301 -18.333 -16 -21s-38.667 -4 -84 -4s-73.333 1.33301 -84 4s-16 9.66699 -16 21z" />
    <glyph glyph-name="quotesingle" unicode="'" 
d="M100 475c0 10.667 3.16699 17.5 9.5 20.5s19.833 4.5 40.5 4.5s34.167 -1.5 40.5 -4.5s9.5 -9.83301 9.5 -20.5s-3.16699 -17.5 -9.5 -20.5s-19.833 -4.5 -40.5 -4.5s-34.167 1.5 -40.5 4.5s-9.5 9.83301 -9.5 20.5zM150 575c0 10.667 3.16699 17.5 9.5 20.5
s19.833 4.5 40.5 4.5s34.167 -1.5 40.5 -4.5s9.5 -9.83301 9.5 -20.5s-3.16699 -17.5 -9.5 -20.5s-19.833 -4.5 -40.5 -4.5s-34.167 1.5 -40.5 4.5s-9.5 9.83301 -9.5 20.5zM150 675c0 11.333 4.33301 18.333 13 21s29.334 4 62.001 4s53.334 -1.33301 62.001 -4
s13 -9.66699 13 -21s-4.33301 -18.333 -13 -21s-29.334 -4 -62.001 -4s-53.334 1.33301 -62.001 4s-13 9.66699 -13 21z" />
    <glyph glyph-name="parenleft" unicode="(" 
d="M200 75c0 10.667 3.16699 17.5 9.5 20.5s19.833 4.5 40.5 4.5s34.167 -1.5 40.5 -4.5s9.5 -9.83301 9.5 -20.5s-3.16699 -17.5 -9.5 -20.5s-19.833 -4.5 -40.5 -4.5s-34.167 1.5 -40.5 4.5s-9.5 9.83301 -9.5 20.5zM150 175c0 10.667 3.16699 17.5 9.5 20.5
s19.833 4.5 40.5 4.5s34.167 -1.5 40.5 -4.5s9.5 -9.83301 9.5 -20.5s-3.16699 -17.5 -9.5 -20.5s-19.833 -4.5 -40.5 -4.5s-34.167 1.5 -40.5 4.5s-9.5 9.83301 -9.5 20.5zM100 275c0 10.667 3.16699 17.5 9.5 20.5s19.833 4.5 40.5 4.5s34.167 -1.5 40.5 -4.5
s9.5 -9.83301 9.5 -20.5s-3.16699 -17.5 -9.5 -20.5s-19.833 -4.5 -40.5 -4.5s-34.167 1.5 -40.5 4.5s-9.5 9.83301 -9.5 20.5zM100 375c0 10.667 3.16699 17.5 9.5 20.5s19.833 4.5 40.5 4.5s34.167 -1.5 40.5 -4.5s9.5 -9.83301 9.5 -20.5s-3.16699 -17.5 -9.5 -20.5
s-19.833 -4.5 -40.5 -4.5s-34.167 1.5 -40.5 4.5s-9.5 9.83301 -9.5 20.5zM100 475c0 10.667 3.16699 17.5 9.5 20.5s19.833 4.5 40.5 4.5s34.167 -1.5 40.5 -4.5s9.5 -9.83301 9.5 -20.5s-3.16699 -17.5 -9.5 -20.5s-19.833 -4.5 -40.5 -4.5s-34.167 1.5 -40.5 4.5
s-9.5 9.83301 -9.5 20.5zM150 575c0 10.667 3.16699 17.5 9.5 20.5s19.833 4.5 40.5 4.5s34.167 -1.5 40.5 -4.5s9.5 -9.83301 9.5 -20.5s-3.16699 -17.5 -9.5 -20.5s-19.833 -4.5 -40.5 -4.5s-34.167 1.5 -40.5 4.5s-9.5 9.83301 -9.5 20.5zM200 675
c0 10.667 3.16699 17.5 9.5 20.5s19.833 4.5 40.5 4.5s34.167 -1.5 40.5 -4.5s9.5 -9.83301 9.5 -20.5s-3.16699 -17.5 -9.5 -20.5s-19.833 -4.5 -40.5 -4.5s-34.167 1.5 -40.5 4.5s-9.5 9.83301 -9.5 20.5z" />
    <glyph glyph-name="parenright" unicode=")" 
d="M100 75c0 10.667 3.16699 17.5 9.5 20.5s19.833 4.5 40.5 4.5s34.167 -1.5 40.5 -4.5s9.5 -9.83301 9.5 -20.5s-3.16699 -17.5 -9.5 -20.5s-19.833 -4.5 -40.5 -4.5s-34.167 1.5 -40.5 4.5s-9.5 9.83301 -9.5 20.5zM150 175c0 10.667 3.16699 17.5 9.5 20.5
s19.833 4.5 40.5 4.5s34.167 -1.5 40.5 -4.5s9.5 -9.83301 9.5 -20.5s-3.16699 -17.5 -9.5 -20.5s-19.833 -4.5 -40.5 -4.5s-34.167 1.5 -40.5 4.5s-9.5 9.83301 -9.5 20.5zM200 275c0 10.667 3.16699 17.5 9.5 20.5s19.833 4.5 40.5 4.5s34.167 -1.5 40.5 -4.5
s9.5 -9.83301 9.5 -20.5s-3.16699 -17.5 -9.5 -20.5s-19.833 -4.5 -40.5 -4.5s-34.167 1.5 -40.5 4.5s-9.5 9.83301 -9.5 20.5zM200 375c0 10.667 3.16699 17.5 9.5 20.5s19.833 4.5 40.5 4.5s34.167 -1.5 40.5 -4.5s9.5 -9.83301 9.5 -20.5s-3.16699 -17.5 -9.5 -20.5
s-19.833 -4.5 -40.5 -4.5s-34.167 1.5 -40.5 4.5s-9.5 9.83301 -9.5 20.5zM200 475c0 10.667 3.16699 17.5 9.5 20.5s19.833 4.5 40.5 4.5s34.167 -1.5 40.5 -4.5s9.5 -9.83301 9.5 -20.5s-3.16699 -17.5 -9.5 -20.5s-19.833 -4.5 -40.5 -4.5s-34.167 1.5 -40.5 4.5
s-9.5 9.83301 -9.5 20.5zM150 575c0 10.667 3.16699 17.5 9.5 20.5s19.833 4.5 40.5 4.5s34.167 -1.5 40.5 -4.5s9.5 -9.83301 9.5 -20.5s-3.16699 -17.5 -9.5 -20.5s-19.833 -4.5 -40.5 -4.5s-34.167 1.5 -40.5 4.5s-9.5 9.83301 -9.5 20.5zM100 675
c0 10.667 3.16699 17.5 9.5 20.5s19.833 4.5 40.5 4.5s34.167 -1.5 40.5 -4.5s9.5 -9.83301 9.5 -20.5s-3.16699 -17.5 -9.5 -20.5s-19.833 -4.5 -40.5 -4.5s-34.167 1.5 -40.5 4.5s-9.5 9.83301 -9.5 20.5z" />
    <glyph glyph-name="asterisk" unicode="*" 
d="M250 175c0 10.667 3.16699 17.5 9.5 20.5s19.833 4.5 40.5 4.5s34.167 -1.5 40.5 -4.5s9.5 -9.83301 9.5 -20.5s-3.16699 -17.5 -9.5 -20.5s-19.833 -4.5 -40.5 -4.5s-34.167 1.5 -40.5 4.5s-9.5 9.83301 -9.5 20.5zM50 175c0 10.667 3.16699 17.5 9.5 20.5
s19.833 4.5 40.5 4.5s34.167 -1.5 40.5 -4.5s9.5 -9.83301 9.5 -20.5s-3.16699 -17.5 -9.5 -20.5s-19.833 -4.5 -40.5 -4.5s-34.167 1.5 -40.5 4.5s-9.5 9.83301 -9.5 20.5zM100 275c0 11.333 5.33301 18.333 16 21s38.667 4 84 4s73.333 -1.33301 84 -4s16 -9.66699 16 -21
s-5.33301 -18.333 -16 -21s-38.667 -4 -84 -4s-73.333 1.33301 -84 4s-16 9.66699 -16 21zM0 375c0 10 5 16.333 15 19c16 4 77.667 6 185 6c115.333 0 179 -3 191 -9c6 -2.66699 9 -8 9 -16c0 -10 -5 -16.333 -15 -19c-16 -4 -77.667 -6 -185 -6c-115.333 0 -179 3 -191 9
c-6 2.66699 -9 8 -9 16zM100 475c0 11.333 5.33301 18.333 16 21s38.667 4 84 4s73.333 -1.33301 84 -4s16 -9.66699 16 -21s-5.33301 -18.333 -16 -21s-38.667 -4 -84 -4s-73.333 1.33301 -84 4s-16 9.66699 -16 21zM250 575c0 10.667 3.16699 17.5 9.5 20.5
s19.833 4.5 40.5 4.5s34.167 -1.5 40.5 -4.5s9.5 -9.83301 9.5 -20.5s-3.16699 -17.5 -9.5 -20.5s-19.833 -4.5 -40.5 -4.5s-34.167 1.5 -40.5 4.5s-9.5 9.83301 -9.5 20.5zM50 575c0 10.667 3.16699 17.5 9.5 20.5s19.833 4.5 40.5 4.5s34.167 -1.5 40.5 -4.5
s9.5 -9.83301 9.5 -20.5s-3.16699 -17.5 -9.5 -20.5s-19.833 -4.5 -40.5 -4.5s-34.167 1.5 -40.5 4.5s-9.5 9.83301 -9.5 20.5z" />
    <glyph glyph-name="plus" unicode="+" 
d="M150 175c0 10.667 3.16699 17.5 9.5 20.5s19.833 4.5 40.5 4.5s34.167 -1.5 40.5 -4.5s9.5 -9.83301 9.5 -20.5s-3.16699 -17.5 -9.5 -20.5s-19.833 -4.5 -40.5 -4.5s-34.167 1.5 -40.5 4.5s-9.5 9.83301 -9.5 20.5zM150 275c0 10.667 3.16699 17.5 9.5 20.5
s19.833 4.5 40.5 4.5s34.167 -1.5 40.5 -4.5s9.5 -9.83301 9.5 -20.5s-3.16699 -17.5 -9.5 -20.5s-19.833 -4.5 -40.5 -4.5s-34.167 1.5 -40.5 4.5s-9.5 9.83301 -9.5 20.5zM0 375c0 10 5 16.333 15 19c16 4 77.667 6 185 6c115.333 0 179 -3 191 -9c6 -2.66699 9 -8 9 -16
c0 -10 -5 -16.333 -15 -19c-16 -4 -77.667 -6 -185 -6c-115.333 0 -179 3 -191 9c-6 2.66699 -9 8 -9 16zM150 475c0 10.667 3.16699 17.5 9.5 20.5s19.833 4.5 40.5 4.5s34.167 -1.5 40.5 -4.5s9.5 -9.83301 9.5 -20.5s-3.16699 -17.5 -9.5 -20.5s-19.833 -4.5 -40.5 -4.5
s-34.167 1.5 -40.5 4.5s-9.5 9.83301 -9.5 20.5zM150 575c0 10.667 3.16699 17.5 9.5 20.5s19.833 4.5 40.5 4.5s34.167 -1.5 40.5 -4.5s9.5 -9.83301 9.5 -20.5s-3.16699 -17.5 -9.5 -20.5s-19.833 -4.5 -40.5 -4.5s-34.167 1.5 -40.5 4.5s-9.5 9.83301 -9.5 20.5z" />
    <glyph glyph-name="comma" unicode="," 
d="M50 -25c0 10.667 3.16699 17.5 9.5 20.5s19.833 4.5 40.5 4.5s34.167 -1.5 40.5 -4.5s9.5 -9.83301 9.5 -20.5s-3.16699 -17.5 -9.5 -20.5s-19.833 -4.5 -40.5 -4.5s-34.167 1.5 -40.5 4.5s-9.5 9.83301 -9.5 20.5zM100 75c0 10.667 3.16699 17.5 9.5 20.5
s19.833 4.5 40.5 4.5s34.167 -1.5 40.5 -4.5s9.5 -9.83301 9.5 -20.5s-3.16699 -17.5 -9.5 -20.5s-19.833 -4.5 -40.5 -4.5s-34.167 1.5 -40.5 4.5s-9.5 9.83301 -9.5 20.5zM100 175c0 11.333 4.33301 18.333 13 21s29.334 4 62.001 4s53.334 -1.33301 62.001 -4
s13 -9.66699 13 -21s-4.33301 -18.333 -13 -21s-29.334 -4 -62.001 -4s-53.334 1.33301 -62.001 4s-13 9.66699 -13 21z" />
    <glyph glyph-name="hyphen" unicode="-" 
d="M0 375c0 10 5 16.333 15 19c16 4 77.667 6 185 6c115.333 0 179 -3 191 -9c6 -2.66699 9 -8 9 -16c0 -10 -5 -16.333 -15 -19c-16 -4 -77.667 -6 -185 -6c-115.333 0 -179 3 -191 9c-6 2.66699 -9 8 -9 16z" />
    <glyph glyph-name="period" unicode="." 
d="M100 75c0 11.333 4.33301 18.333 13 21s29.334 4 62.001 4s53.334 -1.33301 62.001 -4s13 -9.66699 13 -21s-4.33301 -18.333 -13 -21s-29.334 -4 -62.001 -4s-53.334 1.33301 -62.001 4s-13 9.66699 -13 21zM100 175c0 11.333 4.33301 18.333 13 21s29.334 4 62.001 4
s53.334 -1.33301 62.001 -4s13 -9.66699 13 -21s-4.33301 -18.333 -13 -21s-29.334 -4 -62.001 -4s-53.334 1.33301 -62.001 4s-13 9.66699 -13 21z" />
    <glyph glyph-name="slash" unicode="/" 
d="M0 75c0 10.667 3.16699 17.5 9.5 20.5s19.833 4.5 40.5 4.5s34.167 -1.5 40.5 -4.5s9.5 -9.83301 9.5 -20.5s-3.16699 -17.5 -9.5 -20.5s-19.833 -4.5 -40.5 -4.5s-34.167 1.5 -40.5 4.5s-9.5 9.83301 -9.5 20.5zM50 175c0 10.667 3.16699 17.5 9.5 20.5
s19.833 4.5 40.5 4.5s34.167 -1.5 40.5 -4.5s9.5 -9.83301 9.5 -20.5s-3.16699 -17.5 -9.5 -20.5s-19.833 -4.5 -40.5 -4.5s-34.167 1.5 -40.5 4.5s-9.5 9.83301 -9.5 20.5zM100 275c0 10.667 3.16699 17.5 9.5 20.5s19.833 4.5 40.5 4.5s34.167 -1.5 40.5 -4.5
s9.5 -9.83301 9.5 -20.5s-3.16699 -17.5 -9.5 -20.5s-19.833 -4.5 -40.5 -4.5s-34.167 1.5 -40.5 4.5s-9.5 9.83301 -9.5 20.5zM150 375c0 10.667 3.16699 17.5 9.5 20.5s19.833 4.5 40.5 4.5s34.167 -1.5 40.5 -4.5s9.5 -9.83301 9.5 -20.5s-3.16699 -17.5 -9.5 -20.5
s-19.833 -4.5 -40.5 -4.5s-34.167 1.5 -40.5 4.5s-9.5 9.83301 -9.5 20.5zM200 475c0 10.667 3.16699 17.5 9.5 20.5s19.833 4.5 40.5 4.5s34.167 -1.5 40.5 -4.5s9.5 -9.83301 9.5 -20.5s-3.16699 -17.5 -9.5 -20.5s-19.833 -4.5 -40.5 -4.5s-34.167 1.5 -40.5 4.5
s-9.5 9.83301 -9.5 20.5zM250 575c0 10.667 3.16699 17.5 9.5 20.5s19.833 4.5 40.5 4.5s34.167 -1.5 40.5 -4.5s9.5 -9.83301 9.5 -20.5s-3.16699 -17.5 -9.5 -20.5s-19.833 -4.5 -40.5 -4.5s-34.167 1.5 -40.5 4.5s-9.5 9.83301 -9.5 20.5zM300 675
c0 10.667 3.16699 17.5 9.5 20.5s19.833 4.5 40.5 4.5s34.167 -1.5 40.5 -4.5s9.5 -9.83301 9.5 -20.5s-3.16699 -17.5 -9.5 -20.5s-19.833 -4.5 -40.5 -4.5s-34.167 1.5 -40.5 4.5s-9.5 9.83301 -9.5 20.5z" />
    <glyph glyph-name="zero" unicode="0" 
d="M100 75c0 11.333 5.33301 18.333 16 21s38.667 4 84 4s73.333 -1.33301 84 -4s16 -9.66699 16 -21s-5.33301 -18.333 -16 -21s-38.667 -4 -84 -4s-73.333 1.33301 -84 4s-16 9.66699 -16 21zM250 175c0 10.667 3.16699 17.5 9.5 20.5s19.833 4.5 40.5 4.5
s34.167 -1.5 40.5 -4.5s9.5 -9.83301 9.5 -20.5s-3.16699 -17.5 -9.5 -20.5s-19.833 -4.5 -40.5 -4.5s-34.167 1.5 -40.5 4.5s-9.5 9.83301 -9.5 20.5zM50 175c0 10.667 3.16699 17.5 9.5 20.5s19.833 4.5 40.5 4.5s34.167 -1.5 40.5 -4.5s9.5 -9.83301 9.5 -20.5
s-3.16699 -17.5 -9.5 -20.5s-19.833 -4.5 -40.5 -4.5s-34.167 1.5 -40.5 4.5s-9.5 9.83301 -9.5 20.5zM300 275c0 10.667 3.16699 17.5 9.5 20.5s19.833 4.5 40.5 4.5s34.167 -1.5 40.5 -4.5s9.5 -9.83301 9.5 -20.5s-3.16699 -17.5 -9.5 -20.5s-19.833 -4.5 -40.5 -4.5
s-34.167 1.5 -40.5 4.5s-9.5 9.83301 -9.5 20.5zM0 275c0 10.667 3.16699 17.5 9.5 20.5s19.833 4.5 40.5 4.5s34.167 -1.5 40.5 -4.5s9.5 -9.83301 9.5 -20.5s-3.16699 -17.5 -9.5 -20.5s-19.833 -4.5 -40.5 -4.5s-34.167 1.5 -40.5 4.5s-9.5 9.83301 -9.5 20.5zM300 375
c0 10.667 3.16699 17.5 9.5 20.5s19.833 4.5 40.5 4.5s34.167 -1.5 40.5 -4.5s9.5 -9.83301 9.5 -20.5s-3.16699 -17.5 -9.5 -20.5s-19.833 -4.5 -40.5 -4.5s-34.167 1.5 -40.5 4.5s-9.5 9.83301 -9.5 20.5zM0 375c0 10.667 3.16699 17.5 9.5 20.5s19.833 4.5 40.5 4.5
s34.167 -1.5 40.5 -4.5s9.5 -9.83301 9.5 -20.5s-3.16699 -17.5 -9.5 -20.5s-19.833 -4.5 -40.5 -4.5s-34.167 1.5 -40.5 4.5s-9.5 9.83301 -9.5 20.5zM300 475c0 10.667 3.16699 17.5 9.5 20.5s19.833 4.5 40.5 4.5s34.167 -1.5 40.5 -4.5s9.5 -9.83301 9.5 -20.5
s-3.16699 -17.5 -9.5 -20.5s-19.833 -4.5 -40.5 -4.5s-34.167 1.5 -40.5 4.5s-9.5 9.83301 -9.5 20.5zM0 475c0 10.667 3.16699 17.5 9.5 20.5s19.833 4.5 40.5 4.5s34.167 -1.5 40.5 -4.5s9.5 -9.83301 9.5 -20.5s-3.16699 -17.5 -9.5 -20.5s-19.833 -4.5 -40.5 -4.5
s-34.167 1.5 -40.5 4.5s-9.5 9.83301 -9.5 20.5zM250 575c0 10.667 3.16699 17.5 9.5 20.5s19.833 4.5 40.5 4.5s34.167 -1.5 40.5 -4.5s9.5 -9.83301 9.5 -20.5s-3.16699 -17.5 -9.5 -20.5s-19.833 -4.5 -40.5 -4.5s-34.167 1.5 -40.5 4.5s-9.5 9.83301 -9.5 20.5zM50 575
c0 10.667 3.16699 17.5 9.5 20.5s19.833 4.5 40.5 4.5s34.167 -1.5 40.5 -4.5s9.5 -9.83301 9.5 -20.5s-3.16699 -17.5 -9.5 -20.5s-19.833 -4.5 -40.5 -4.5s-34.167 1.5 -40.5 4.5s-9.5 9.83301 -9.5 20.5zM100 675c0 11.333 5.33301 18.333 16 21s38.667 4 84 4
s73.333 -1.33301 84 -4s16 -9.66699 16 -21s-5.33301 -18.333 -16 -21s-38.667 -4 -84 -4s-73.333 1.33301 -84 4s-16 9.66699 -16 21z" />
    <glyph glyph-name="one" unicode="1" 
d="M50 75c0 10.667 5 17.334 15 20.001c12.667 3.33301 57.667 5 135 5c86 0 133.667 -3 143 -9c4.66699 -2.66699 7 -8 7 -16c0 -10.667 -5 -17.334 -15 -20.001c-12.667 -3.33301 -57.667 -5 -135 -5c-86 0 -133.667 3 -143 9c-4.66699 2.66699 -7 8 -7 16zM150 175
c0 10.667 3.16699 17.5 9.5 20.5s19.833 4.5 40.5 4.5s34.167 -1.5 40.5 -4.5s9.5 -9.83301 9.5 -20.5s-3.16699 -17.5 -9.5 -20.5s-19.833 -4.5 -40.5 -4.5s-34.167 1.5 -40.5 4.5s-9.5 9.83301 -9.5 20.5zM150 275c0 10.667 3.16699 17.5 9.5 20.5s19.833 4.5 40.5 4.5
s34.167 -1.5 40.5 -4.5s9.5 -9.83301 9.5 -20.5s-3.16699 -17.5 -9.5 -20.5s-19.833 -4.5 -40.5 -4.5s-34.167 1.5 -40.5 4.5s-9.5 9.83301 -9.5 20.5zM150 375c0 10.667 3.16699 17.5 9.5 20.5s19.833 4.5 40.5 4.5s34.167 -1.5 40.5 -4.5s9.5 -9.83301 9.5 -20.5
s-3.16699 -17.5 -9.5 -20.5s-19.833 -4.5 -40.5 -4.5s-34.167 1.5 -40.5 4.5s-9.5 9.83301 -9.5 20.5zM50 475c0 11.333 5.33301 18.333 16 21s38.667 4 84 4s73.333 -1.33301 84 -4s16 -9.66699 16 -21s-5.33301 -18.333 -16 -21s-38.667 -4 -84 -4s-73.333 1.33301 -84 4
s-16 9.66699 -16 21zM100 575c0 11.333 4.33301 18.333 13 21s29.334 4 62.001 4s53.334 -1.33301 62.001 -4s13 -9.66699 13 -21s-4.33301 -18.333 -13 -21s-29.334 -4 -62.001 -4s-53.334 1.33301 -62.001 4s-13 9.66699 -13 21zM150 675c0 10.667 3.16699 17.5 9.5 20.5
s19.833 4.5 40.5 4.5s34.167 -1.5 40.5 -4.5s9.5 -9.83301 9.5 -20.5s-3.16699 -17.5 -9.5 -20.5s-19.833 -4.5 -40.5 -4.5s-34.167 1.5 -40.5 4.5s-9.5 9.83301 -9.5 20.5z" />
    <glyph glyph-name="two" unicode="2" 
d="M0 75c0 10 5 16.333 15 19c16 4 77.667 6 185 6c115.333 0 179 -3 191 -9c6 -2.66699 9 -8 9 -16c0 -10 -5 -16.333 -15 -19c-16 -4 -77.667 -6 -185 -6c-115.333 0 -179 3 -191 9c-6 2.66699 -9 8 -9 16zM0 175c0 10.667 3.16699 17.5 9.5 20.5s19.833 4.5 40.5 4.5
s34.167 -1.5 40.5 -4.5s9.5 -9.83301 9.5 -20.5s-3.16699 -17.5 -9.5 -20.5s-19.833 -4.5 -40.5 -4.5s-34.167 1.5 -40.5 4.5s-9.5 9.83301 -9.5 20.5zM50 275c0 11.333 4.33301 18.333 13 21s29.334 4 62.001 4s53.334 -1.33301 62.001 -4s13 -9.66699 13 -21
s-4.33301 -18.333 -13 -21s-29.334 -4 -62.001 -4s-53.334 1.33301 -62.001 4s-13 9.66699 -13 21zM150 375c0 11.333 5.33301 18.333 16 21s38.667 4 84 4s73.333 -1.33301 84 -4s16 -9.66699 16 -21s-5.33301 -18.333 -16 -21s-38.667 -4 -84 -4s-73.333 1.33301 -84 4
s-16 9.66699 -16 21zM300 475c0 10.667 3.16699 17.5 9.5 20.5s19.833 4.5 40.5 4.5s34.167 -1.5 40.5 -4.5s9.5 -9.83301 9.5 -20.5s-3.16699 -17.5 -9.5 -20.5s-19.833 -4.5 -40.5 -4.5s-34.167 1.5 -40.5 4.5s-9.5 9.83301 -9.5 20.5zM300 575
c0 10.667 3.16699 17.5 9.5 20.5s19.833 4.5 40.5 4.5s34.167 -1.5 40.5 -4.5s9.5 -9.83301 9.5 -20.5s-3.16699 -17.5 -9.5 -20.5s-19.833 -4.5 -40.5 -4.5s-34.167 1.5 -40.5 4.5s-9.5 9.83301 -9.5 20.5zM0 575c0 10.667 3.16699 17.5 9.5 20.5s19.833 4.5 40.5 4.5
s34.167 -1.5 40.5 -4.5s9.5 -9.83301 9.5 -20.5s-3.16699 -17.5 -9.5 -20.5s-19.833 -4.5 -40.5 -4.5s-34.167 1.5 -40.5 4.5s-9.5 9.83301 -9.5 20.5zM50 675c0 10.667 5 17.334 15 20.001c12.667 3.33301 57.667 5 135 5c86 0 133.667 -3 143 -9
c4.66699 -2.66699 7 -8 7 -16c0 -10.667 -5 -17.334 -15 -20.001c-12.667 -3.33301 -57.667 -5 -135 -5c-86 0 -133.667 3 -143 9c-4.66699 2.66699 -7 8 -7 16z" />
    <glyph glyph-name="three" unicode="3" 
d="M50 75c0 10.667 5 17.334 15 20.001c12.667 3.33301 57.667 5 135 5c86 0 133.667 -3 143 -9c4.66699 -2.66699 7 -8 7 -16c0 -10.667 -5 -17.334 -15 -20.001c-12.667 -3.33301 -57.667 -5 -135 -5c-86 0 -133.667 3 -143 9c-4.66699 2.66699 -7 8 -7 16zM300 175
c0 10.667 3.16699 17.5 9.5 20.5s19.833 4.5 40.5 4.5s34.167 -1.5 40.5 -4.5s9.5 -9.83301 9.5 -20.5s-3.16699 -17.5 -9.5 -20.5s-19.833 -4.5 -40.5 -4.5s-34.167 1.5 -40.5 4.5s-9.5 9.83301 -9.5 20.5zM0 175c0 10.667 3.16699 17.5 9.5 20.5s19.833 4.5 40.5 4.5
s34.167 -1.5 40.5 -4.5s9.5 -9.83301 9.5 -20.5s-3.16699 -17.5 -9.5 -20.5s-19.833 -4.5 -40.5 -4.5s-34.167 1.5 -40.5 4.5s-9.5 9.83301 -9.5 20.5zM300 275c0 10.667 3.16699 17.5 9.5 20.5s19.833 4.5 40.5 4.5s34.167 -1.5 40.5 -4.5s9.5 -9.83301 9.5 -20.5
s-3.16699 -17.5 -9.5 -20.5s-19.833 -4.5 -40.5 -4.5s-34.167 1.5 -40.5 4.5s-9.5 9.83301 -9.5 20.5zM150 375c0 11.333 5.33301 18.333 16 21s38.667 4 84 4s73.333 -1.33301 84 -4s16 -9.66699 16 -21s-5.33301 -18.333 -16 -21s-38.667 -4 -84 -4s-73.333 1.33301 -84 4
s-16 9.66699 -16 21zM200 475c0 10.667 3.16699 17.5 9.5 20.5s19.833 4.5 40.5 4.5s34.167 -1.5 40.5 -4.5s9.5 -9.83301 9.5 -20.5s-3.16699 -17.5 -9.5 -20.5s-19.833 -4.5 -40.5 -4.5s-34.167 1.5 -40.5 4.5s-9.5 9.83301 -9.5 20.5zM250 575
c0 10.667 3.16699 17.5 9.5 20.5s19.833 4.5 40.5 4.5s34.167 -1.5 40.5 -4.5s9.5 -9.83301 9.5 -20.5s-3.16699 -17.5 -9.5 -20.5s-19.833 -4.5 -40.5 -4.5s-34.167 1.5 -40.5 4.5s-9.5 9.83301 -9.5 20.5zM0 675c0 10 5 16.333 15 19c16 4 77.667 6 185 6
c115.333 0 179 -3 191 -9c6 -2.66699 9 -8 9 -16c0 -10 -5 -16.333 -15 -19c-16 -4 -77.667 -6 -185 -6c-115.333 0 -179 3 -191 9c-6 2.66699 -9 8 -9 16z" />
    <glyph glyph-name="four" unicode="4" 
d="M200 75c0 10.667 3.16699 17.5 9.5 20.5s19.833 4.5 40.5 4.5s34.167 -1.5 40.5 -4.5s9.5 -9.83301 9.5 -20.5s-3.16699 -17.5 -9.5 -20.5s-19.833 -4.5 -40.5 -4.5s-34.167 1.5 -40.5 4.5s-9.5 9.83301 -9.5 20.5zM200 175c0 10.667 3.16699 17.5 9.5 20.5
s19.833 4.5 40.5 4.5s34.167 -1.5 40.5 -4.5s9.5 -9.83301 9.5 -20.5s-3.16699 -17.5 -9.5 -20.5s-19.833 -4.5 -40.5 -4.5s-34.167 1.5 -40.5 4.5s-9.5 9.83301 -9.5 20.5zM0 275c0 10 5 16.333 15 19c16 4 77.667 6 185 6c115.333 0 179 -3 191 -9c6 -2.66699 9 -8 9 -16
c0 -10 -5 -16.333 -15 -19c-16 -4 -77.667 -6 -185 -6c-115.333 0 -179 3 -191 9c-6 2.66699 -9 8 -9 16zM200 375c0 10.667 3.16699 17.5 9.5 20.5s19.833 4.5 40.5 4.5s34.167 -1.5 40.5 -4.5s9.5 -9.83301 9.5 -20.5s-3.16699 -17.5 -9.5 -20.5s-19.833 -4.5 -40.5 -4.5
s-34.167 1.5 -40.5 4.5s-9.5 9.83301 -9.5 20.5zM50 375c0 10.667 3.16699 17.5 9.5 20.5s19.833 4.5 40.5 4.5s34.167 -1.5 40.5 -4.5s9.5 -9.83301 9.5 -20.5s-3.16699 -17.5 -9.5 -20.5s-19.833 -4.5 -40.5 -4.5s-34.167 1.5 -40.5 4.5s-9.5 9.83301 -9.5 20.5zM100 475
c0 11.333 5.33301 18.333 16 21s38.667 4 84 4s73.333 -1.33301 84 -4s16 -9.66699 16 -21s-5.33301 -18.333 -16 -21s-38.667 -4 -84 -4s-73.333 1.33301 -84 4s-16 9.66699 -16 21zM150 575c0 11.333 4.33301 18.333 13 21s29.334 4 62.001 4s53.334 -1.33301 62.001 -4
s13 -9.66699 13 -21s-4.33301 -18.333 -13 -21s-29.334 -4 -62.001 -4s-53.334 1.33301 -62.001 4s-13 9.66699 -13 21zM200 675c0 10.667 3.16699 17.5 9.5 20.5s19.833 4.5 40.5 4.5s34.167 -1.5 40.5 -4.5s9.5 -9.83301 9.5 -20.5s-3.16699 -17.5 -9.5 -20.5
s-19.833 -4.5 -40.5 -4.5s-34.167 1.5 -40.5 4.5s-9.5 9.83301 -9.5 20.5z" />
    <glyph glyph-name="five" unicode="5" 
d="M50 75c0 10.667 5 17.334 15 20.001c12.667 3.33301 57.667 5 135 5c86 0 133.667 -3 143 -9c4.66699 -2.66699 7 -8 7 -16c0 -10.667 -5 -17.334 -15 -20.001c-12.667 -3.33301 -57.667 -5 -135 -5c-86 0 -133.667 3 -143 9c-4.66699 2.66699 -7 8 -7 16zM300 175
c0 10.667 3.16699 17.5 9.5 20.5s19.833 4.5 40.5 4.5s34.167 -1.5 40.5 -4.5s9.5 -9.83301 9.5 -20.5s-3.16699 -17.5 -9.5 -20.5s-19.833 -4.5 -40.5 -4.5s-34.167 1.5 -40.5 4.5s-9.5 9.83301 -9.5 20.5zM0 175c0 10.667 3.16699 17.5 9.5 20.5s19.833 4.5 40.5 4.5
s34.167 -1.5 40.5 -4.5s9.5 -9.83301 9.5 -20.5s-3.16699 -17.5 -9.5 -20.5s-19.833 -4.5 -40.5 -4.5s-34.167 1.5 -40.5 4.5s-9.5 9.83301 -9.5 20.5zM300 275c0 10.667 3.16699 17.5 9.5 20.5s19.833 4.5 40.5 4.5s34.167 -1.5 40.5 -4.5s9.5 -9.83301 9.5 -20.5
s-3.16699 -17.5 -9.5 -20.5s-19.833 -4.5 -40.5 -4.5s-34.167 1.5 -40.5 4.5s-9.5 9.83301 -9.5 20.5zM300 375c0 10.667 3.16699 17.5 9.5 20.5s19.833 4.5 40.5 4.5s34.167 -1.5 40.5 -4.5s9.5 -9.83301 9.5 -20.5s-3.16699 -17.5 -9.5 -20.5s-19.833 -4.5 -40.5 -4.5
s-34.167 1.5 -40.5 4.5s-9.5 9.83301 -9.5 20.5zM0 375c0 11.333 4.33301 18.333 13 21s29.334 4 62.001 4s53.334 -1.33301 62.001 -4s13 -9.66699 13 -21s-4.33301 -18.333 -13 -21s-29.334 -4 -62.001 -4s-53.334 1.33301 -62.001 4s-13 9.66699 -13 21zM0 475
c0 10 5 16.333 15 19c14.667 4 68 6 160 6c100.667 0 156.334 -3 167.001 -9c5.33301 -2.66699 8 -8 8 -16c0 -10 -5 -16.333 -15 -19c-14.667 -4 -68 -6 -160 -6c-100.667 0 -156.334 3 -167.001 9c-5.33301 2.66699 -8 8 -8 16zM0 575c0 10.667 3.16699 17.5 9.5 20.5
s19.833 4.5 40.5 4.5s34.167 -1.5 40.5 -4.5s9.5 -9.83301 9.5 -20.5s-3.16699 -17.5 -9.5 -20.5s-19.833 -4.5 -40.5 -4.5s-34.167 1.5 -40.5 4.5s-9.5 9.83301 -9.5 20.5zM0 675c0 10 5 16.333 15 19c16 4 77.667 6 185 6c115.333 0 179 -3 191 -9c6 -2.66699 9 -8 9 -16
c0 -10 -5 -16.333 -15 -19c-16 -4 -77.667 -6 -185 -6c-115.333 0 -179 3 -191 9c-6 2.66699 -9 8 -9 16z" />
    <glyph glyph-name="six" unicode="6" 
d="M50 75c0 10.667 5 17.334 15 20.001c12.667 3.33301 57.667 5 135 5c86 0 133.667 -3 143 -9c4.66699 -2.66699 7 -8 7 -16c0 -10.667 -5 -17.334 -15 -20.001c-12.667 -3.33301 -57.667 -5 -135 -5c-86 0 -133.667 3 -143 9c-4.66699 2.66699 -7 8 -7 16zM300 175
c0 10.667 3.16699 17.5 9.5 20.5s19.833 4.5 40.5 4.5s34.167 -1.5 40.5 -4.5s9.5 -9.83301 9.5 -20.5s-3.16699 -17.5 -9.5 -20.5s-19.833 -4.5 -40.5 -4.5s-34.167 1.5 -40.5 4.5s-9.5 9.83301 -9.5 20.5zM0 175c0 10.667 3.16699 17.5 9.5 20.5s19.833 4.5 40.5 4.5
s34.167 -1.5 40.5 -4.5s9.5 -9.83301 9.5 -20.5s-3.16699 -17.5 -9.5 -20.5s-19.833 -4.5 -40.5 -4.5s-34.167 1.5 -40.5 4.5s-9.5 9.83301 -9.5 20.5zM300 275c0 10.667 3.16699 17.5 9.5 20.5s19.833 4.5 40.5 4.5s34.167 -1.5 40.5 -4.5s9.5 -9.83301 9.5 -20.5
s-3.16699 -17.5 -9.5 -20.5s-19.833 -4.5 -40.5 -4.5s-34.167 1.5 -40.5 4.5s-9.5 9.83301 -9.5 20.5zM0 275c0 11.333 4.33301 18.333 13 21s29.334 4 62.001 4s53.334 -1.33301 62.001 -4s13 -9.66699 13 -21s-4.33301 -18.333 -13 -21s-29.334 -4 -62.001 -4
s-53.334 1.33301 -62.001 4s-13 9.66699 -13 21zM0 375c0 10 5 16.333 15 19c14.667 4 68 6 160 6c100.667 0 156.334 -3 167.001 -9c5.33301 -2.66699 8 -8 8 -16c0 -10 -5 -16.333 -15 -19c-14.667 -4 -68 -6 -160 -6c-100.667 0 -156.334 3 -167.001 9
c-5.33301 2.66699 -8 8 -8 16zM0 475c0 10.667 3.16699 17.5 9.5 20.5s19.833 4.5 40.5 4.5s34.167 -1.5 40.5 -4.5s9.5 -9.83301 9.5 -20.5s-3.16699 -17.5 -9.5 -20.5s-19.833 -4.5 -40.5 -4.5s-34.167 1.5 -40.5 4.5s-9.5 9.83301 -9.5 20.5zM50 575
c0 10.667 3.16699 17.5 9.5 20.5s19.833 4.5 40.5 4.5s34.167 -1.5 40.5 -4.5s9.5 -9.83301 9.5 -20.5s-3.16699 -17.5 -9.5 -20.5s-19.833 -4.5 -40.5 -4.5s-34.167 1.5 -40.5 4.5s-9.5 9.83301 -9.5 20.5zM100 675c0 6 0.833008 10.5 2.5 13.5s7.33398 5.5 17.001 7.5
s21.834 3.16699 36.501 3.5s37.667 0.5 69 0.5s54.333 -0.166992 69 -0.5s26.834 -1.5 36.501 -3.5s15.334 -4.5 17.001 -7.5s2.5 -7.5 2.5 -13.5s-0.833008 -10.5 -2.5 -13.5s-7.33398 -5.5 -17.001 -7.5s-21.834 -3.16699 -36.501 -3.5s-37.667 -0.5 -69 -0.5
s-54.333 0.166992 -69 0.5s-26.834 1.5 -36.501 3.5s-15.334 4.5 -17.001 7.5s-2.5 7.5 -2.5 13.5z" />
    <glyph glyph-name="seven" unicode="7" 
d="M100 75c0 10.667 3.16699 17.5 9.5 20.5s19.833 4.5 40.5 4.5s34.167 -1.5 40.5 -4.5s9.5 -9.83301 9.5 -20.5s-3.16699 -17.5 -9.5 -20.5s-19.833 -4.5 -40.5 -4.5s-34.167 1.5 -40.5 4.5s-9.5 9.83301 -9.5 20.5zM100 175c0 10.667 3.16699 17.5 9.5 20.5
s19.833 4.5 40.5 4.5s34.167 -1.5 40.5 -4.5s9.5 -9.83301 9.5 -20.5s-3.16699 -17.5 -9.5 -20.5s-19.833 -4.5 -40.5 -4.5s-34.167 1.5 -40.5 4.5s-9.5 9.83301 -9.5 20.5zM150 275c0 10.667 3.16699 17.5 9.5 20.5s19.833 4.5 40.5 4.5s34.167 -1.5 40.5 -4.5
s9.5 -9.83301 9.5 -20.5s-3.16699 -17.5 -9.5 -20.5s-19.833 -4.5 -40.5 -4.5s-34.167 1.5 -40.5 4.5s-9.5 9.83301 -9.5 20.5zM200 375c0 10.667 3.16699 17.5 9.5 20.5s19.833 4.5 40.5 4.5s34.167 -1.5 40.5 -4.5s9.5 -9.83301 9.5 -20.5s-3.16699 -17.5 -9.5 -20.5
s-19.833 -4.5 -40.5 -4.5s-34.167 1.5 -40.5 4.5s-9.5 9.83301 -9.5 20.5zM250 475c0 10.667 3.16699 17.5 9.5 20.5s19.833 4.5 40.5 4.5s34.167 -1.5 40.5 -4.5s9.5 -9.83301 9.5 -20.5s-3.16699 -17.5 -9.5 -20.5s-19.833 -4.5 -40.5 -4.5s-34.167 1.5 -40.5 4.5
s-9.5 9.83301 -9.5 20.5zM300 575c0 10.667 3.16699 17.5 9.5 20.5s19.833 4.5 40.5 4.5s34.167 -1.5 40.5 -4.5s9.5 -9.83301 9.5 -20.5s-3.16699 -17.5 -9.5 -20.5s-19.833 -4.5 -40.5 -4.5s-34.167 1.5 -40.5 4.5s-9.5 9.83301 -9.5 20.5zM0 675c0 10 5 16.333 15 19
c16 4 77.667 6 185 6c115.333 0 179 -3 191 -9c6 -2.66699 9 -8 9 -16c0 -10 -5 -16.333 -15 -19c-16 -4 -77.667 -6 -185 -6c-115.333 0 -179 3 -191 9c-6 2.66699 -9 8 -9 16z" />
    <glyph glyph-name="eight" unicode="8" 
d="M50 75c0 10.667 5 17.334 15 20.001c12.667 3.33301 57.667 5 135 5c86 0 133.667 -3 143 -9c4.66699 -2.66699 7 -8 7 -16c0 -10.667 -5 -17.334 -15 -20.001c-12.667 -3.33301 -57.667 -5 -135 -5c-86 0 -133.667 3 -143 9c-4.66699 2.66699 -7 8 -7 16zM300 175
c0 10.667 3.16699 17.5 9.5 20.5s19.833 4.5 40.5 4.5s34.167 -1.5 40.5 -4.5s9.5 -9.83301 9.5 -20.5s-3.16699 -17.5 -9.5 -20.5s-19.833 -4.5 -40.5 -4.5s-34.167 1.5 -40.5 4.5s-9.5 9.83301 -9.5 20.5zM0 175c0 10.667 3.16699 17.5 9.5 20.5s19.833 4.5 40.5 4.5
s34.167 -1.5 40.5 -4.5s9.5 -9.83301 9.5 -20.5s-3.16699 -17.5 -9.5 -20.5s-19.833 -4.5 -40.5 -4.5s-34.167 1.5 -40.5 4.5s-9.5 9.83301 -9.5 20.5zM300 275c0 10.667 3.16699 17.5 9.5 20.5s19.833 4.5 40.5 4.5s34.167 -1.5 40.5 -4.5s9.5 -9.83301 9.5 -20.5
s-3.16699 -17.5 -9.5 -20.5s-19.833 -4.5 -40.5 -4.5s-34.167 1.5 -40.5 4.5s-9.5 9.83301 -9.5 20.5zM0 275c0 10.667 3.16699 17.5 9.5 20.5s19.833 4.5 40.5 4.5s34.167 -1.5 40.5 -4.5s9.5 -9.83301 9.5 -20.5s-3.16699 -17.5 -9.5 -20.5s-19.833 -4.5 -40.5 -4.5
s-34.167 1.5 -40.5 4.5s-9.5 9.83301 -9.5 20.5zM50 375c0 10.667 5 17.334 15 20.001c12.667 3.33301 57.667 5 135 5c86 0 133.667 -3 143 -9c4.66699 -2.66699 7 -8 7 -16c0 -10.667 -5 -17.334 -15 -20.001c-12.667 -3.33301 -57.667 -5 -135 -5
c-86 0 -133.667 3 -143 9c-4.66699 2.66699 -7 8 -7 16zM300 475c0 10.667 3.16699 17.5 9.5 20.5s19.833 4.5 40.5 4.5s34.167 -1.5 40.5 -4.5s9.5 -9.83301 9.5 -20.5s-3.16699 -17.5 -9.5 -20.5s-19.833 -4.5 -40.5 -4.5s-34.167 1.5 -40.5 4.5s-9.5 9.83301 -9.5 20.5z
M0 475c0 10.667 3.16699 17.5 9.5 20.5s19.833 4.5 40.5 4.5s34.167 -1.5 40.5 -4.5s9.5 -9.83301 9.5 -20.5s-3.16699 -17.5 -9.5 -20.5s-19.833 -4.5 -40.5 -4.5s-34.167 1.5 -40.5 4.5s-9.5 9.83301 -9.5 20.5zM300 575c0 10.667 3.16699 17.5 9.5 20.5
s19.833 4.5 40.5 4.5s34.167 -1.5 40.5 -4.5s9.5 -9.83301 9.5 -20.5s-3.16699 -17.5 -9.5 -20.5s-19.833 -4.5 -40.5 -4.5s-34.167 1.5 -40.5 4.5s-9.5 9.83301 -9.5 20.5zM0 575c0 10.667 3.16699 17.5 9.5 20.5s19.833 4.5 40.5 4.5s34.167 -1.5 40.5 -4.5
s9.5 -9.83301 9.5 -20.5s-3.16699 -17.5 -9.5 -20.5s-19.833 -4.5 -40.5 -4.5s-34.167 1.5 -40.5 4.5s-9.5 9.83301 -9.5 20.5zM50 675c0 10.667 5 17.334 15 20.001c12.667 3.33301 57.667 5 135 5c86 0 133.667 -3 143 -9c4.66699 -2.66699 7 -8 7 -16
c0 -10.667 -5 -17.334 -15 -20.001c-12.667 -3.33301 -57.667 -5 -135 -5c-86 0 -133.667 3 -143 9c-4.66699 2.66699 -7 8 -7 16z" />
    <glyph glyph-name="nine" unicode="9" 
d="M50 75c0 6 0.833008 10.5 2.5 13.5s7.33398 5.5 17.001 7.5s21.834 3.16699 36.501 3.5s37.667 0.5 69 0.5s54.333 -0.166992 69 -0.5s26.834 -1.5 36.501 -3.5s15.334 -4.5 17.001 -7.5s2.5 -7.5 2.5 -13.5s-0.833008 -10.5 -2.5 -13.5s-7.33398 -5.5 -17.001 -7.5
s-21.834 -3.16699 -36.501 -3.5s-37.667 -0.5 -69 -0.5s-54.333 0.166992 -69 0.5s-26.834 1.5 -36.501 3.5s-15.334 4.5 -17.001 7.5s-2.5 7.5 -2.5 13.5zM250 175c0 10.667 3.16699 17.5 9.5 20.5s19.833 4.5 40.5 4.5s34.167 -1.5 40.5 -4.5s9.5 -9.83301 9.5 -20.5
s-3.16699 -17.5 -9.5 -20.5s-19.833 -4.5 -40.5 -4.5s-34.167 1.5 -40.5 4.5s-9.5 9.83301 -9.5 20.5zM300 275c0 10.667 3.16699 17.5 9.5 20.5s19.833 4.5 40.5 4.5s34.167 -1.5 40.5 -4.5s9.5 -9.83301 9.5 -20.5s-3.16699 -17.5 -9.5 -20.5s-19.833 -4.5 -40.5 -4.5
s-34.167 1.5 -40.5 4.5s-9.5 9.83301 -9.5 20.5zM50 375c0 10 5 16.333 15 19c14.667 4 68 6 160 6c100.667 0 156.334 -3 167.001 -9c5.33301 -2.66699 8 -8 8 -16c0 -10 -5 -16.333 -15 -19c-14.667 -4 -68 -6 -160 -6c-100.667 0 -156.334 3 -167.001 9
c-5.33301 2.66699 -8 8 -8 16zM250 475c0 11.333 4.33301 18.333 13 21s29.334 4 62.001 4c33.333 0 54.166 -1.33301 62.499 -4s12.5 -9.66699 12.5 -21s-4.16699 -18.333 -12.5 -21s-29.166 -4 -62.499 -4c-32.667 0 -53.334 1.33301 -62.001 4s-13 9.66699 -13 21zM0 475
c0 10.667 3.16699 17.5 9.5 20.5s19.833 4.5 40.5 4.5s34.167 -1.5 40.5 -4.5s9.5 -9.83301 9.5 -20.5s-3.16699 -17.5 -9.5 -20.5s-19.833 -4.5 -40.5 -4.5s-34.167 1.5 -40.5 4.5s-9.5 9.83301 -9.5 20.5zM300 575c0 10.667 3.16699 17.5 9.5 20.5s19.833 4.5 40.5 4.5
s34.167 -1.5 40.5 -4.5s9.5 -9.83301 9.5 -20.5s-3.16699 -17.5 -9.5 -20.5s-19.833 -4.5 -40.5 -4.5s-34.167 1.5 -40.5 4.5s-9.5 9.83301 -9.5 20.5zM0 575c0 10.667 3.16699 17.5 9.5 20.5s19.833 4.5 40.5 4.5s34.167 -1.5 40.5 -4.5s9.5 -9.83301 9.5 -20.5
s-3.16699 -17.5 -9.5 -20.5s-19.833 -4.5 -40.5 -4.5s-34.167 1.5 -40.5 4.5s-9.5 9.83301 -9.5 20.5zM50 675c0 10.667 5 17.334 15 20.001c12.667 3.33301 57.667 5 135 5c86 0 133.667 -3 143 -9c4.66699 -2.66699 7 -8 7 -16c0 -10.667 -5 -17.334 -15 -20.001
c-12.667 -3.33301 -57.667 -5 -135 -5c-86 0 -133.667 3 -143 9c-4.66699 2.66699 -7 8 -7 16z" />
    <glyph glyph-name="colon" unicode=":" 
d="M100 75c0 11.333 4.33301 18.333 13 21s29.334 4 62.001 4s53.334 -1.33301 62.001 -4s13 -9.66699 13 -21s-4.33301 -18.333 -13 -21s-29.334 -4 -62.001 -4s-53.334 1.33301 -62.001 4s-13 9.66699 -13 21zM100 175c0 11.333 4.33301 18.333 13 21s29.334 4 62.001 4
s53.334 -1.33301 62.001 -4s13 -9.66699 13 -21s-4.33301 -18.333 -13 -21s-29.334 -4 -62.001 -4s-53.334 1.33301 -62.001 4s-13 9.66699 -13 21zM100 475c0 11.333 4.33301 18.333 13 21s29.334 4 62.001 4s53.334 -1.33301 62.001 -4s13 -9.66699 13 -21
s-4.33301 -18.333 -13 -21s-29.334 -4 -62.001 -4s-53.334 1.33301 -62.001 4s-13 9.66699 -13 21zM100 575c0 11.333 4.33301 18.333 13 21s29.334 4 62.001 4s53.334 -1.33301 62.001 -4s13 -9.66699 13 -21s-4.33301 -18.333 -13 -21s-29.334 -4 -62.001 -4
s-53.334 1.33301 -62.001 4s-13 9.66699 -13 21z" />
    <glyph glyph-name="semicolon" unicode=";" 
d="M50 -25c0 10.667 3.16699 17.5 9.5 20.5s19.833 4.5 40.5 4.5s34.167 -1.5 40.5 -4.5s9.5 -9.83301 9.5 -20.5s-3.16699 -17.5 -9.5 -20.5s-19.833 -4.5 -40.5 -4.5s-34.167 1.5 -40.5 4.5s-9.5 9.83301 -9.5 20.5zM100 75c0 10.667 3.16699 17.5 9.5 20.5
s19.833 4.5 40.5 4.5s34.167 -1.5 40.5 -4.5s9.5 -9.83301 9.5 -20.5s-3.16699 -17.5 -9.5 -20.5s-19.833 -4.5 -40.5 -4.5s-34.167 1.5 -40.5 4.5s-9.5 9.83301 -9.5 20.5zM100 175c0 11.333 4.33301 18.333 13 21s29.334 4 62.001 4s53.334 -1.33301 62.001 -4
s13 -9.66699 13 -21s-4.33301 -18.333 -13 -21s-29.334 -4 -62.001 -4s-53.334 1.33301 -62.001 4s-13 9.66699 -13 21zM100 475c0 11.333 4.33301 18.333 13 21s29.334 4 62.001 4s53.334 -1.33301 62.001 -4s13 -9.66699 13 -21s-4.33301 -18.333 -13 -21
s-29.334 -4 -62.001 -4s-53.334 1.33301 -62.001 4s-13 9.66699 -13 21zM100 575c0 11.333 4.33301 18.333 13 21s29.334 4 62.001 4s53.334 -1.33301 62.001 -4s13 -9.66699 13 -21s-4.33301 -18.333 -13 -21s-29.334 -4 -62.001 -4s-53.334 1.33301 -62.001 4
s-13 9.66699 -13 21z" />
    <glyph glyph-name="less" unicode="&#x3c;" 
d="M300 75c0 10.667 3.16699 17.5 9.5 20.5s19.833 4.5 40.5 4.5s34.167 -1.5 40.5 -4.5s9.5 -9.83301 9.5 -20.5s-3.16699 -17.5 -9.5 -20.5s-19.833 -4.5 -40.5 -4.5s-34.167 1.5 -40.5 4.5s-9.5 9.83301 -9.5 20.5zM200 175c0 10.667 3.16699 17.5 9.5 20.5
s19.833 4.5 40.5 4.5s34.167 -1.5 40.5 -4.5s9.5 -9.83301 9.5 -20.5s-3.16699 -17.5 -9.5 -20.5s-19.833 -4.5 -40.5 -4.5s-34.167 1.5 -40.5 4.5s-9.5 9.83301 -9.5 20.5zM100 275c0 10.667 3.16699 17.5 9.5 20.5s19.833 4.5 40.5 4.5s34.167 -1.5 40.5 -4.5
s9.5 -9.83301 9.5 -20.5s-3.16699 -17.5 -9.5 -20.5s-19.833 -4.5 -40.5 -4.5s-34.167 1.5 -40.5 4.5s-9.5 9.83301 -9.5 20.5zM0 375c0 10.667 3.16699 17.5 9.5 20.5s19.833 4.5 40.5 4.5s34.167 -1.5 40.5 -4.5s9.5 -9.83301 9.5 -20.5s-3.16699 -17.5 -9.5 -20.5
s-19.833 -4.5 -40.5 -4.5s-34.167 1.5 -40.5 4.5s-9.5 9.83301 -9.5 20.5zM100 475c0 10.667 3.16699 17.5 9.5 20.5s19.833 4.5 40.5 4.5s34.167 -1.5 40.5 -4.5s9.5 -9.83301 9.5 -20.5s-3.16699 -17.5 -9.5 -20.5s-19.833 -4.5 -40.5 -4.5s-34.167 1.5 -40.5 4.5
s-9.5 9.83301 -9.5 20.5zM200 575c0 10.667 3.16699 17.5 9.5 20.5s19.833 4.5 40.5 4.5s34.167 -1.5 40.5 -4.5s9.5 -9.83301 9.5 -20.5s-3.16699 -17.5 -9.5 -20.5s-19.833 -4.5 -40.5 -4.5s-34.167 1.5 -40.5 4.5s-9.5 9.83301 -9.5 20.5zM300 675
c0 10.667 3.16699 17.5 9.5 20.5s19.833 4.5 40.5 4.5s34.167 -1.5 40.5 -4.5s9.5 -9.83301 9.5 -20.5s-3.16699 -17.5 -9.5 -20.5s-19.833 -4.5 -40.5 -4.5s-34.167 1.5 -40.5 4.5s-9.5 9.83301 -9.5 20.5z" />
    <glyph glyph-name="equal" unicode="=" 
d="M0 275c0 10 5 16.333 15 19c16 4 77.667 6 185 6c115.333 0 179 -3 191 -9c6 -2.66699 9 -8 9 -16c0 -10 -5 -16.333 -15 -19c-16 -4 -77.667 -6 -185 -6c-115.333 0 -179 3 -191 9c-6 2.66699 -9 8 -9 16zM0 475c0 10 5 16.333 15 19c16 4 77.667 6 185 6
c115.333 0 179 -3 191 -9c6 -2.66699 9 -8 9 -16c0 -10 -5 -16.333 -15 -19c-16 -4 -77.667 -6 -185 -6c-115.333 0 -179 3 -191 9c-6 2.66699 -9 8 -9 16z" />
    <glyph glyph-name="greater" unicode="&#x3e;" 
d="M0 75c0 10.667 3.16699 17.5 9.5 20.5s19.833 4.5 40.5 4.5s34.167 -1.5 40.5 -4.5s9.5 -9.83301 9.5 -20.5s-3.16699 -17.5 -9.5 -20.5s-19.833 -4.5 -40.5 -4.5s-34.167 1.5 -40.5 4.5s-9.5 9.83301 -9.5 20.5zM100 175c0 10.667 3.16699 17.5 9.5 20.5
s19.833 4.5 40.5 4.5s34.167 -1.5 40.5 -4.5s9.5 -9.83301 9.5 -20.5s-3.16699 -17.5 -9.5 -20.5s-19.833 -4.5 -40.5 -4.5s-34.167 1.5 -40.5 4.5s-9.5 9.83301 -9.5 20.5zM200 275c0 10.667 3.16699 17.5 9.5 20.5s19.833 4.5 40.5 4.5s34.167 -1.5 40.5 -4.5
s9.5 -9.83301 9.5 -20.5s-3.16699 -17.5 -9.5 -20.5s-19.833 -4.5 -40.5 -4.5s-34.167 1.5 -40.5 4.5s-9.5 9.83301 -9.5 20.5zM300 375c0 10.667 3.16699 17.5 9.5 20.5s19.833 4.5 40.5 4.5s34.167 -1.5 40.5 -4.5s9.5 -9.83301 9.5 -20.5s-3.16699 -17.5 -9.5 -20.5
s-19.833 -4.5 -40.5 -4.5s-34.167 1.5 -40.5 4.5s-9.5 9.83301 -9.5 20.5zM200 475c0 10.667 3.16699 17.5 9.5 20.5s19.833 4.5 40.5 4.5s34.167 -1.5 40.5 -4.5s9.5 -9.83301 9.5 -20.5s-3.16699 -17.5 -9.5 -20.5s-19.833 -4.5 -40.5 -4.5s-34.167 1.5 -40.5 4.5
s-9.5 9.83301 -9.5 20.5zM100 575c0 10.667 3.16699 17.5 9.5 20.5s19.833 4.5 40.5 4.5s34.167 -1.5 40.5 -4.5s9.5 -9.83301 9.5 -20.5s-3.16699 -17.5 -9.5 -20.5s-19.833 -4.5 -40.5 -4.5s-34.167 1.5 -40.5 4.5s-9.5 9.83301 -9.5 20.5zM0 675
c0 10.667 3.16699 17.5 9.5 20.5s19.833 4.5 40.5 4.5s34.167 -1.5 40.5 -4.5s9.5 -9.83301 9.5 -20.5s-3.16699 -17.5 -9.5 -20.5s-19.833 -4.5 -40.5 -4.5s-34.167 1.5 -40.5 4.5s-9.5 9.83301 -9.5 20.5z" />
    <glyph glyph-name="question" unicode="?" 
d="M150 75c0 10.667 3.16699 17.5 9.5 20.5s19.833 4.5 40.5 4.5s34.167 -1.5 40.5 -4.5s9.5 -9.83301 9.5 -20.5s-3.16699 -17.5 -9.5 -20.5s-19.833 -4.5 -40.5 -4.5s-34.167 1.5 -40.5 4.5s-9.5 9.83301 -9.5 20.5zM150 275c0 10.667 3.16699 17.5 9.5 20.5
s19.833 4.5 40.5 4.5s34.167 -1.5 40.5 -4.5s9.5 -9.83301 9.5 -20.5s-3.16699 -17.5 -9.5 -20.5s-19.833 -4.5 -40.5 -4.5s-34.167 1.5 -40.5 4.5s-9.5 9.83301 -9.5 20.5zM150 375c0 10.667 3.16699 17.5 9.5 20.5s19.833 4.5 40.5 4.5s34.167 -1.5 40.5 -4.5
s9.5 -9.83301 9.5 -20.5s-3.16699 -17.5 -9.5 -20.5s-19.833 -4.5 -40.5 -4.5s-34.167 1.5 -40.5 4.5s-9.5 9.83301 -9.5 20.5zM200 475c0 11.333 4.33301 18.333 13 21s29.334 4 62.001 4s53.334 -1.33301 62.001 -4s13 -9.66699 13 -21s-4.33301 -18.333 -13 -21
s-29.334 -4 -62.001 -4s-53.334 1.33301 -62.001 4s-13 9.66699 -13 21zM300 575c0 10.667 3.16699 17.5 9.5 20.5s19.833 4.5 40.5 4.5s34.167 -1.5 40.5 -4.5s9.5 -9.83301 9.5 -20.5s-3.16699 -17.5 -9.5 -20.5s-19.833 -4.5 -40.5 -4.5s-34.167 1.5 -40.5 4.5
s-9.5 9.83301 -9.5 20.5zM0 575c0 10.667 3.16699 17.5 9.5 20.5s19.833 4.5 40.5 4.5s34.167 -1.5 40.5 -4.5s9.5 -9.83301 9.5 -20.5s-3.16699 -17.5 -9.5 -20.5s-19.833 -4.5 -40.5 -4.5s-34.167 1.5 -40.5 4.5s-9.5 9.83301 -9.5 20.5zM50 675
c0 10.667 5 17.334 15 20.001c12.667 3.33301 57.667 5 135 5c86 0 133.667 -3 143 -9c4.66699 -2.66699 7 -8 7 -16c0 -10.667 -5 -17.334 -15 -20.001c-12.667 -3.33301 -57.667 -5 -135 -5c-86 0 -133.667 3 -143 9c-4.66699 2.66699 -7 8 -7 16z" />
    <glyph glyph-name="at" unicode="@" 
d="M50 75c0 10.667 5 17.334 15 20.001c12.667 3.33301 57.667 5 135 5c86 0 133.667 -3 143 -9c4.66699 -2.66699 7 -8 7 -16c0 -10.667 -5 -17.334 -15 -20.001c-12.667 -3.33301 -57.667 -5 -135 -5c-86 0 -133.667 3 -143 9c-4.66699 2.66699 -7 8 -7 16zM0 175
c0 10.667 3.16699 17.5 9.5 20.5s19.833 4.5 40.5 4.5s34.167 -1.5 40.5 -4.5s9.5 -9.83301 9.5 -20.5s-3.16699 -17.5 -9.5 -20.5s-19.833 -4.5 -40.5 -4.5s-34.167 1.5 -40.5 4.5s-9.5 9.83301 -9.5 20.5zM150 275c0 6 0.833008 10.5 2.5 13.5s7.33398 5.5 17.001 7.5
s21.834 3.16699 36.501 3.5s37.667 0.5 69 0.5s54.333 -0.166992 69 -0.5s26.834 -1.5 36.501 -3.5s15.334 -4.5 17.001 -7.5s2.5 -7.5 2.5 -13.5s-0.833008 -10.5 -2.5 -13.5s-7.33398 -5.5 -17.001 -7.5s-21.834 -3.16699 -36.501 -3.5s-37.667 -0.5 -69 -0.5
s-54.333 0.166992 -69 0.5s-26.834 1.5 -36.501 3.5s-15.334 4.5 -17.001 7.5s-2.5 7.5 -2.5 13.5zM0 275c0 10.667 3.16699 17.5 9.5 20.5s19.833 4.5 40.5 4.5s34.167 -1.5 40.5 -4.5s9.5 -9.83301 9.5 -20.5s-3.16699 -17.5 -9.5 -20.5s-19.833 -4.5 -40.5 -4.5
s-34.167 1.5 -40.5 4.5s-9.5 9.83301 -9.5 20.5zM250 375c0 11.333 4.33301 18.333 13 21s29.334 4 62.001 4c33.333 0 54.166 -1.33301 62.499 -4s12.5 -9.66699 12.5 -21s-4.16699 -18.333 -12.5 -21s-29.166 -4 -62.499 -4c-32.667 0 -53.334 1.33301 -62.001 4
s-13 9.66699 -13 21zM0 375c0 11.333 5.33301 18.333 16 21s38.667 4 84 4s73.333 -1.33301 84 -4s16 -9.66699 16 -21s-5.33301 -18.333 -16 -21s-38.667 -4 -84 -4s-73.333 1.33301 -84 4s-16 9.66699 -16 21zM150 475c0 6 0.833008 10.5 2.5 13.5s7.33398 5.5 17.001 7.5
s21.834 3.16699 36.501 3.5s37.667 0.5 69 0.5s54.333 -0.166992 69 -0.5s26.834 -1.5 36.501 -3.5s15.334 -4.5 17.001 -7.5s2.5 -7.5 2.5 -13.5s-0.833008 -10.5 -2.5 -13.5s-7.33398 -5.5 -17.001 -7.5s-21.834 -3.16699 -36.501 -3.5s-37.667 -0.5 -69 -0.5
s-54.333 0.166992 -69 0.5s-26.834 1.5 -36.501 3.5s-15.334 4.5 -17.001 7.5s-2.5 7.5 -2.5 13.5zM0 475c0 10.667 3.16699 17.5 9.5 20.5s19.833 4.5 40.5 4.5s34.167 -1.5 40.5 -4.5s9.5 -9.83301 9.5 -20.5s-3.16699 -17.5 -9.5 -20.5s-19.833 -4.5 -40.5 -4.5
s-34.167 1.5 -40.5 4.5s-9.5 9.83301 -9.5 20.5zM300 575c0 10.667 3.16699 17.5 9.5 20.5s19.833 4.5 40.5 4.5s34.167 -1.5 40.5 -4.5s9.5 -9.83301 9.5 -20.5s-3.16699 -17.5 -9.5 -20.5s-19.833 -4.5 -40.5 -4.5s-34.167 1.5 -40.5 4.5s-9.5 9.83301 -9.5 20.5zM0 575
c0 10.667 3.16699 17.5 9.5 20.5s19.833 4.5 40.5 4.5s34.167 -1.5 40.5 -4.5s9.5 -9.83301 9.5 -20.5s-3.16699 -17.5 -9.5 -20.5s-19.833 -4.5 -40.5 -4.5s-34.167 1.5 -40.5 4.5s-9.5 9.83301 -9.5 20.5zM50 675c0 10.667 5 17.334 15 20.001
c12.667 3.33301 57.667 5 135 5c86 0 133.667 -3 143 -9c4.66699 -2.66699 7 -8 7 -16c0 -10.667 -5 -17.334 -15 -20.001c-12.667 -3.33301 -57.667 -5 -135 -5c-86 0 -133.667 3 -143 9c-4.66699 2.66699 -7 8 -7 16z" />
    <glyph glyph-name="A" unicode="A" 
d="M300 75c0 10.667 3.16699 17.5 9.5 20.5s19.833 4.5 40.5 4.5s34.167 -1.5 40.5 -4.5s9.5 -9.83301 9.5 -20.5s-3.16699 -17.5 -9.5 -20.5s-19.833 -4.5 -40.5 -4.5s-34.167 1.5 -40.5 4.5s-9.5 9.83301 -9.5 20.5zM0 75c0 10.667 3.16699 17.5 9.5 20.5
s19.833 4.5 40.5 4.5s34.167 -1.5 40.5 -4.5s9.5 -9.83301 9.5 -20.5s-3.16699 -17.5 -9.5 -20.5s-19.833 -4.5 -40.5 -4.5s-34.167 1.5 -40.5 4.5s-9.5 9.83301 -9.5 20.5zM300 175c0 10.667 3.16699 17.5 9.5 20.5s19.833 4.5 40.5 4.5s34.167 -1.5 40.5 -4.5
s9.5 -9.83301 9.5 -20.5s-3.16699 -17.5 -9.5 -20.5s-19.833 -4.5 -40.5 -4.5s-34.167 1.5 -40.5 4.5s-9.5 9.83301 -9.5 20.5zM0 175c0 10.667 3.16699 17.5 9.5 20.5s19.833 4.5 40.5 4.5s34.167 -1.5 40.5 -4.5s9.5 -9.83301 9.5 -20.5s-3.16699 -17.5 -9.5 -20.5
s-19.833 -4.5 -40.5 -4.5s-34.167 1.5 -40.5 4.5s-9.5 9.83301 -9.5 20.5zM0 275c0 10 5 16.333 15 19c16 4 77.667 6 185 6c115.333 0 179 -3 191 -9c6 -2.66699 9 -8 9 -16c0 -10 -5 -16.333 -15 -19c-16 -4 -77.667 -6 -185 -6c-115.333 0 -179 3 -191 9
c-6 2.66699 -9 8 -9 16zM300 375c0 10.667 3.16699 17.5 9.5 20.5s19.833 4.5 40.5 4.5s34.167 -1.5 40.5 -4.5s9.5 -9.83301 9.5 -20.5s-3.16699 -17.5 -9.5 -20.5s-19.833 -4.5 -40.5 -4.5s-34.167 1.5 -40.5 4.5s-9.5 9.83301 -9.5 20.5zM0 375
c0 10.667 3.16699 17.5 9.5 20.5s19.833 4.5 40.5 4.5s34.167 -1.5 40.5 -4.5s9.5 -9.83301 9.5 -20.5s-3.16699 -17.5 -9.5 -20.5s-19.833 -4.5 -40.5 -4.5s-34.167 1.5 -40.5 4.5s-9.5 9.83301 -9.5 20.5zM250 475c0 10.667 3.16699 17.5 9.5 20.5s19.833 4.5 40.5 4.5
s34.167 -1.5 40.5 -4.5s9.5 -9.83301 9.5 -20.5s-3.16699 -17.5 -9.5 -20.5s-19.833 -4.5 -40.5 -4.5s-34.167 1.5 -40.5 4.5s-9.5 9.83301 -9.5 20.5zM50 475c0 10.667 3.16699 17.5 9.5 20.5s19.833 4.5 40.5 4.5s34.167 -1.5 40.5 -4.5s9.5 -9.83301 9.5 -20.5
s-3.16699 -17.5 -9.5 -20.5s-19.833 -4.5 -40.5 -4.5s-34.167 1.5 -40.5 4.5s-9.5 9.83301 -9.5 20.5zM100 575c0 11.333 5.33301 18.333 16 21s38.667 4 84 4s73.333 -1.33301 84 -4s16 -9.66699 16 -21s-5.33301 -18.333 -16 -21s-38.667 -4 -84 -4s-73.333 1.33301 -84 4
s-16 9.66699 -16 21zM150 675c0 10.667 3.16699 17.5 9.5 20.5s19.833 4.5 40.5 4.5s34.167 -1.5 40.5 -4.5s9.5 -9.83301 9.5 -20.5s-3.16699 -17.5 -9.5 -20.5s-19.833 -4.5 -40.5 -4.5s-34.167 1.5 -40.5 4.5s-9.5 9.83301 -9.5 20.5z" />
    <glyph glyph-name="B" unicode="B" 
d="M0 75c0 10 5 16.333 15 19c14.667 4 68 6 160 6c100.667 0 156.334 -3 167.001 -9c5.33301 -2.66699 8 -8 8 -16c0 -10 -5 -16.333 -15 -19c-14.667 -4 -68 -6 -160 -6c-100.667 0 -156.334 3 -167.001 9c-5.33301 2.66699 -8 8 -8 16zM300 175
c0 10.667 3.16699 17.5 9.5 20.5s19.833 4.5 40.5 4.5s34.167 -1.5 40.5 -4.5s9.5 -9.83301 9.5 -20.5s-3.16699 -17.5 -9.5 -20.5s-19.833 -4.5 -40.5 -4.5s-34.167 1.5 -40.5 4.5s-9.5 9.83301 -9.5 20.5zM50 175c0 10.667 3.16699 17.5 9.5 20.5s19.833 4.5 40.5 4.5
s34.167 -1.5 40.5 -4.5s9.5 -9.83301 9.5 -20.5s-3.16699 -17.5 -9.5 -20.5s-19.833 -4.5 -40.5 -4.5s-34.167 1.5 -40.5 4.5s-9.5 9.83301 -9.5 20.5zM300 275c0 10.667 3.16699 17.5 9.5 20.5s19.833 4.5 40.5 4.5s34.167 -1.5 40.5 -4.5s9.5 -9.83301 9.5 -20.5
s-3.16699 -17.5 -9.5 -20.5s-19.833 -4.5 -40.5 -4.5s-34.167 1.5 -40.5 4.5s-9.5 9.83301 -9.5 20.5zM50 275c0 10.667 3.16699 17.5 9.5 20.5s19.833 4.5 40.5 4.5s34.167 -1.5 40.5 -4.5s9.5 -9.83301 9.5 -20.5s-3.16699 -17.5 -9.5 -20.5s-19.833 -4.5 -40.5 -4.5
s-34.167 1.5 -40.5 4.5s-9.5 9.83301 -9.5 20.5zM50 375c0 10.667 5 17.334 15 20.001c12.667 3.33301 57.667 5 135 5c86 0 133.667 -3 143 -9c4.66699 -2.66699 7 -8 7 -16c0 -10.667 -5 -17.334 -15 -20.001c-12.667 -3.33301 -57.667 -5 -135 -5
c-86 0 -133.667 3 -143 9c-4.66699 2.66699 -7 8 -7 16zM300 475c0 10.667 3.16699 17.5 9.5 20.5s19.833 4.5 40.5 4.5s34.167 -1.5 40.5 -4.5s9.5 -9.83301 9.5 -20.5s-3.16699 -17.5 -9.5 -20.5s-19.833 -4.5 -40.5 -4.5s-34.167 1.5 -40.5 4.5s-9.5 9.83301 -9.5 20.5z
M50 475c0 10.667 3.16699 17.5 9.5 20.5s19.833 4.5 40.5 4.5s34.167 -1.5 40.5 -4.5s9.5 -9.83301 9.5 -20.5s-3.16699 -17.5 -9.5 -20.5s-19.833 -4.5 -40.5 -4.5s-34.167 1.5 -40.5 4.5s-9.5 9.83301 -9.5 20.5zM300 575c0 10.667 3.16699 17.5 9.5 20.5
s19.833 4.5 40.5 4.5s34.167 -1.5 40.5 -4.5s9.5 -9.83301 9.5 -20.5s-3.16699 -17.5 -9.5 -20.5s-19.833 -4.5 -40.5 -4.5s-34.167 1.5 -40.5 4.5s-9.5 9.83301 -9.5 20.5zM50 575c0 10.667 3.16699 17.5 9.5 20.5s19.833 4.5 40.5 4.5s34.167 -1.5 40.5 -4.5
s9.5 -9.83301 9.5 -20.5s-3.16699 -17.5 -9.5 -20.5s-19.833 -4.5 -40.5 -4.5s-34.167 1.5 -40.5 4.5s-9.5 9.83301 -9.5 20.5zM0 675c0 10 5 16.333 15 19c14.667 4 68 6 160 6c100.667 0 156.334 -3 167.001 -9c5.33301 -2.66699 8 -8 8 -16c0 -10 -5 -16.333 -15 -19
c-14.667 -4 -68 -6 -160 -6c-100.667 0 -156.334 3 -167.001 9c-5.33301 2.66699 -8 8 -8 16z" />
    <glyph glyph-name="C" unicode="C" 
d="M100 75c0 6 0.833008 10.5 2.5 13.5s7.33398 5.5 17.001 7.5s21.834 3.16699 36.501 3.5s37.667 0.5 69 0.5s54.333 -0.166992 69 -0.5s26.834 -1.5 36.501 -3.5s15.334 -4.5 17.001 -7.5s2.5 -7.5 2.5 -13.5s-0.833008 -10.5 -2.5 -13.5s-7.33398 -5.5 -17.001 -7.5
s-21.834 -3.16699 -36.501 -3.5s-37.667 -0.5 -69 -0.5s-54.333 0.166992 -69 0.5s-26.834 1.5 -36.501 3.5s-15.334 4.5 -17.001 7.5s-2.5 7.5 -2.5 13.5zM300 175c0 10.667 3.16699 17.5 9.5 20.5s19.833 4.5 40.5 4.5s34.167 -1.5 40.5 -4.5s9.5 -9.83301 9.5 -20.5
s-3.16699 -17.5 -9.5 -20.5s-19.833 -4.5 -40.5 -4.5s-34.167 1.5 -40.5 4.5s-9.5 9.83301 -9.5 20.5zM50 175c0 10.667 3.16699 17.5 9.5 20.5s19.833 4.5 40.5 4.5s34.167 -1.5 40.5 -4.5s9.5 -9.83301 9.5 -20.5s-3.16699 -17.5 -9.5 -20.5s-19.833 -4.5 -40.5 -4.5
s-34.167 1.5 -40.5 4.5s-9.5 9.83301 -9.5 20.5zM0 275c0 10.667 3.16699 17.5 9.5 20.5s19.833 4.5 40.5 4.5s34.167 -1.5 40.5 -4.5s9.5 -9.83301 9.5 -20.5s-3.16699 -17.5 -9.5 -20.5s-19.833 -4.5 -40.5 -4.5s-34.167 1.5 -40.5 4.5s-9.5 9.83301 -9.5 20.5zM0 375
c0 10.667 3.16699 17.5 9.5 20.5s19.833 4.5 40.5 4.5s34.167 -1.5 40.5 -4.5s9.5 -9.83301 9.5 -20.5s-3.16699 -17.5 -9.5 -20.5s-19.833 -4.5 -40.5 -4.5s-34.167 1.5 -40.5 4.5s-9.5 9.83301 -9.5 20.5zM0 475c0 10.667 3.16699 17.5 9.5 20.5s19.833 4.5 40.5 4.5
s34.167 -1.5 40.5 -4.5s9.5 -9.83301 9.5 -20.5s-3.16699 -17.5 -9.5 -20.5s-19.833 -4.5 -40.5 -4.5s-34.167 1.5 -40.5 4.5s-9.5 9.83301 -9.5 20.5zM300 575c0 10.667 3.16699 17.5 9.5 20.5s19.833 4.5 40.5 4.5s34.167 -1.5 40.5 -4.5s9.5 -9.83301 9.5 -20.5
s-3.16699 -17.5 -9.5 -20.5s-19.833 -4.5 -40.5 -4.5s-34.167 1.5 -40.5 4.5s-9.5 9.83301 -9.5 20.5zM50 575c0 10.667 3.16699 17.5 9.5 20.5s19.833 4.5 40.5 4.5s34.167 -1.5 40.5 -4.5s9.5 -9.83301 9.5 -20.5s-3.16699 -17.5 -9.5 -20.5s-19.833 -4.5 -40.5 -4.5
s-34.167 1.5 -40.5 4.5s-9.5 9.83301 -9.5 20.5zM100 675c0 6 0.833008 10.5 2.5 13.5s7.33398 5.5 17.001 7.5s21.834 3.16699 36.501 3.5s37.667 0.5 69 0.5s54.333 -0.166992 69 -0.5s26.834 -1.5 36.501 -3.5s15.334 -4.5 17.001 -7.5s2.5 -7.5 2.5 -13.5
s-0.833008 -10.5 -2.5 -13.5s-7.33398 -5.5 -17.001 -7.5s-21.834 -3.16699 -36.501 -3.5s-37.667 -0.5 -69 -0.5s-54.333 0.166992 -69 0.5s-26.834 1.5 -36.501 3.5s-15.334 4.5 -17.001 7.5s-2.5 7.5 -2.5 13.5z" />
    <glyph glyph-name="D" unicode="D" 
d="M0 75c0 10.667 5 17.334 15 20.001c12.667 3.33301 57.667 5 135 5c86 0 133.667 -3 143 -9c4.66699 -2.66699 7 -8 7 -16c0 -10.667 -5 -17.334 -15 -20.001c-12.667 -3.33301 -57.667 -5 -135 -5c-86 0 -133.667 3 -143 9c-4.66699 2.66699 -7 8 -7 16zM250 175
c0 10.667 3.16699 17.5 9.5 20.5s19.833 4.5 40.5 4.5s34.167 -1.5 40.5 -4.5s9.5 -9.83301 9.5 -20.5s-3.16699 -17.5 -9.5 -20.5s-19.833 -4.5 -40.5 -4.5s-34.167 1.5 -40.5 4.5s-9.5 9.83301 -9.5 20.5zM50 175c0 10.667 3.16699 17.5 9.5 20.5s19.833 4.5 40.5 4.5
s34.167 -1.5 40.5 -4.5s9.5 -9.83301 9.5 -20.5s-3.16699 -17.5 -9.5 -20.5s-19.833 -4.5 -40.5 -4.5s-34.167 1.5 -40.5 4.5s-9.5 9.83301 -9.5 20.5zM300 275c0 10.667 3.16699 17.5 9.5 20.5s19.833 4.5 40.5 4.5s34.167 -1.5 40.5 -4.5s9.5 -9.83301 9.5 -20.5
s-3.16699 -17.5 -9.5 -20.5s-19.833 -4.5 -40.5 -4.5s-34.167 1.5 -40.5 4.5s-9.5 9.83301 -9.5 20.5zM50 275c0 10.667 3.16699 17.5 9.5 20.5s19.833 4.5 40.5 4.5s34.167 -1.5 40.5 -4.5s9.5 -9.83301 9.5 -20.5s-3.16699 -17.5 -9.5 -20.5s-19.833 -4.5 -40.5 -4.5
s-34.167 1.5 -40.5 4.5s-9.5 9.83301 -9.5 20.5zM300 375c0 10.667 3.16699 17.5 9.5 20.5s19.833 4.5 40.5 4.5s34.167 -1.5 40.5 -4.5s9.5 -9.83301 9.5 -20.5s-3.16699 -17.5 -9.5 -20.5s-19.833 -4.5 -40.5 -4.5s-34.167 1.5 -40.5 4.5s-9.5 9.83301 -9.5 20.5zM50 375
c0 10.667 3.16699 17.5 9.5 20.5s19.833 4.5 40.5 4.5s34.167 -1.5 40.5 -4.5s9.5 -9.83301 9.5 -20.5s-3.16699 -17.5 -9.5 -20.5s-19.833 -4.5 -40.5 -4.5s-34.167 1.5 -40.5 4.5s-9.5 9.83301 -9.5 20.5zM300 475c0 10.667 3.16699 17.5 9.5 20.5s19.833 4.5 40.5 4.5
s34.167 -1.5 40.5 -4.5s9.5 -9.83301 9.5 -20.5s-3.16699 -17.5 -9.5 -20.5s-19.833 -4.5 -40.5 -4.5s-34.167 1.5 -40.5 4.5s-9.5 9.83301 -9.5 20.5zM50 475c0 10.667 3.16699 17.5 9.5 20.5s19.833 4.5 40.5 4.5s34.167 -1.5 40.5 -4.5s9.5 -9.83301 9.5 -20.5
s-3.16699 -17.5 -9.5 -20.5s-19.833 -4.5 -40.5 -4.5s-34.167 1.5 -40.5 4.5s-9.5 9.83301 -9.5 20.5zM250 575c0 10.667 3.16699 17.5 9.5 20.5s19.833 4.5 40.5 4.5s34.167 -1.5 40.5 -4.5s9.5 -9.83301 9.5 -20.5s-3.16699 -17.5 -9.5 -20.5s-19.833 -4.5 -40.5 -4.5
s-34.167 1.5 -40.5 4.5s-9.5 9.83301 -9.5 20.5zM50 575c0 10.667 3.16699 17.5 9.5 20.5s19.833 4.5 40.5 4.5s34.167 -1.5 40.5 -4.5s9.5 -9.83301 9.5 -20.5s-3.16699 -17.5 -9.5 -20.5s-19.833 -4.5 -40.5 -4.5s-34.167 1.5 -40.5 4.5s-9.5 9.83301 -9.5 20.5zM0 675
c0 10.667 5 17.334 15 20.001c12.667 3.33301 57.667 5 135 5c86 0 133.667 -3 143 -9c4.66699 -2.66699 7 -8 7 -16c0 -10.667 -5 -17.334 -15 -20.001c-12.667 -3.33301 -57.667 -5 -135 -5c-86 0 -133.667 3 -143 9c-4.66699 2.66699 -7 8 -7 16z" />
    <glyph glyph-name="E" unicode="E" 
d="M0 75c0 10 5 16.333 15 19c16 4 77.667 6 185 6c115.333 0 179 -3 191 -9c6 -2.66699 9 -8 9 -16c0 -10 -5 -16.333 -15 -19c-16 -4 -77.667 -6 -185 -6c-115.333 0 -179 3 -191 9c-6 2.66699 -9 8 -9 16zM0 175c0 10.667 3.16699 17.5 9.5 20.5s19.833 4.5 40.5 4.5
s34.167 -1.5 40.5 -4.5s9.5 -9.83301 9.5 -20.5s-3.16699 -17.5 -9.5 -20.5s-19.833 -4.5 -40.5 -4.5s-34.167 1.5 -40.5 4.5s-9.5 9.83301 -9.5 20.5zM0 275c0 10.667 3.16699 17.5 9.5 20.5s19.833 4.5 40.5 4.5s34.167 -1.5 40.5 -4.5s9.5 -9.83301 9.5 -20.5
s-3.16699 -17.5 -9.5 -20.5s-19.833 -4.5 -40.5 -4.5s-34.167 1.5 -40.5 4.5s-9.5 9.83301 -9.5 20.5zM0 375c0 10.667 5 17.334 15 20.001c12.667 3.33301 57.667 5 135 5c86 0 133.667 -3 143 -9c4.66699 -2.66699 7 -8 7 -16c0 -10.667 -5 -17.334 -15 -20.001
c-12.667 -3.33301 -57.667 -5 -135 -5c-86 0 -133.667 3 -143 9c-4.66699 2.66699 -7 8 -7 16zM0 475c0 10.667 3.16699 17.5 9.5 20.5s19.833 4.5 40.5 4.5s34.167 -1.5 40.5 -4.5s9.5 -9.83301 9.5 -20.5s-3.16699 -17.5 -9.5 -20.5s-19.833 -4.5 -40.5 -4.5
s-34.167 1.5 -40.5 4.5s-9.5 9.83301 -9.5 20.5zM0 575c0 10.667 3.16699 17.5 9.5 20.5s19.833 4.5 40.5 4.5s34.167 -1.5 40.5 -4.5s9.5 -9.83301 9.5 -20.5s-3.16699 -17.5 -9.5 -20.5s-19.833 -4.5 -40.5 -4.5s-34.167 1.5 -40.5 4.5s-9.5 9.83301 -9.5 20.5zM0 675
c0 10 5 16.333 15 19c16 4 77.667 6 185 6c115.333 0 179 -3 191 -9c6 -2.66699 9 -8 9 -16c0 -10 -5 -16.333 -15 -19c-16 -4 -77.667 -6 -185 -6c-115.333 0 -179 3 -191 9c-6 2.66699 -9 8 -9 16z" />
    <glyph glyph-name="F" unicode="F" 
d="M0 75c0 10.667 3.16699 17.5 9.5 20.5s19.833 4.5 40.5 4.5s34.167 -1.5 40.5 -4.5s9.5 -9.83301 9.5 -20.5s-3.16699 -17.5 -9.5 -20.5s-19.833 -4.5 -40.5 -4.5s-34.167 1.5 -40.5 4.5s-9.5 9.83301 -9.5 20.5zM0 175c0 10.667 3.16699 17.5 9.5 20.5
s19.833 4.5 40.5 4.5s34.167 -1.5 40.5 -4.5s9.5 -9.83301 9.5 -20.5s-3.16699 -17.5 -9.5 -20.5s-19.833 -4.5 -40.5 -4.5s-34.167 1.5 -40.5 4.5s-9.5 9.83301 -9.5 20.5zM0 275c0 10.667 3.16699 17.5 9.5 20.5s19.833 4.5 40.5 4.5s34.167 -1.5 40.5 -4.5
s9.5 -9.83301 9.5 -20.5s-3.16699 -17.5 -9.5 -20.5s-19.833 -4.5 -40.5 -4.5s-34.167 1.5 -40.5 4.5s-9.5 9.83301 -9.5 20.5zM0 375c0 10.667 5 17.334 15 20.001c12.667 3.33301 57.667 5 135 5c86 0 133.667 -3 143 -9c4.66699 -2.66699 7 -8 7 -16
c0 -10.667 -5 -17.334 -15 -20.001c-12.667 -3.33301 -57.667 -5 -135 -5c-86 0 -133.667 3 -143 9c-4.66699 2.66699 -7 8 -7 16zM0 475c0 10.667 3.16699 17.5 9.5 20.5s19.833 4.5 40.5 4.5s34.167 -1.5 40.5 -4.5s9.5 -9.83301 9.5 -20.5s-3.16699 -17.5 -9.5 -20.5
s-19.833 -4.5 -40.5 -4.5s-34.167 1.5 -40.5 4.5s-9.5 9.83301 -9.5 20.5zM0 575c0 10.667 3.16699 17.5 9.5 20.5s19.833 4.5 40.5 4.5s34.167 -1.5 40.5 -4.5s9.5 -9.83301 9.5 -20.5s-3.16699 -17.5 -9.5 -20.5s-19.833 -4.5 -40.5 -4.5s-34.167 1.5 -40.5 4.5
s-9.5 9.83301 -9.5 20.5zM0 675c0 10 5 16.333 15 19c16 4 77.667 6 185 6c115.333 0 179 -3 191 -9c6 -2.66699 9 -8 9 -16c0 -10 -5 -16.333 -15 -19c-16 -4 -77.667 -6 -185 -6c-115.333 0 -179 3 -191 9c-6 2.66699 -9 8 -9 16z" />
    <glyph glyph-name="G" unicode="G" 
d="M100 75c0 6 0.833008 10.5 2.5 13.5s7.33398 5.5 17.001 7.5s21.834 3.16699 36.501 3.5s37.667 0.5 69 0.5s54.333 -0.166992 69 -0.5s26.834 -1.5 36.501 -3.5s15.334 -4.5 17.001 -7.5s2.5 -7.5 2.5 -13.5s-0.833008 -10.5 -2.5 -13.5s-7.33398 -5.5 -17.001 -7.5
s-21.834 -3.16699 -36.501 -3.5s-37.667 -0.5 -69 -0.5s-54.333 0.166992 -69 0.5s-26.834 1.5 -36.501 3.5s-15.334 4.5 -17.001 7.5s-2.5 7.5 -2.5 13.5zM300 175c0 10.667 3.16699 17.5 9.5 20.5s19.833 4.5 40.5 4.5s34.167 -1.5 40.5 -4.5s9.5 -9.83301 9.5 -20.5
s-3.16699 -17.5 -9.5 -20.5s-19.833 -4.5 -40.5 -4.5s-34.167 1.5 -40.5 4.5s-9.5 9.83301 -9.5 20.5zM50 175c0 10.667 3.16699 17.5 9.5 20.5s19.833 4.5 40.5 4.5s34.167 -1.5 40.5 -4.5s9.5 -9.83301 9.5 -20.5s-3.16699 -17.5 -9.5 -20.5s-19.833 -4.5 -40.5 -4.5
s-34.167 1.5 -40.5 4.5s-9.5 9.83301 -9.5 20.5zM200 275c0 11.333 5.33301 18.333 16 21s38.667 4 84 4s73.333 -1.33301 84 -4s16 -9.66699 16 -21s-5.33301 -18.333 -16 -21s-38.667 -4 -84 -4s-73.333 1.33301 -84 4s-16 9.66699 -16 21zM0 275
c0 10.667 3.16699 17.5 9.5 20.5s19.833 4.5 40.5 4.5s34.167 -1.5 40.5 -4.5s9.5 -9.83301 9.5 -20.5s-3.16699 -17.5 -9.5 -20.5s-19.833 -4.5 -40.5 -4.5s-34.167 1.5 -40.5 4.5s-9.5 9.83301 -9.5 20.5zM0 375c0 10.667 3.16699 17.5 9.5 20.5s19.833 4.5 40.5 4.5
s34.167 -1.5 40.5 -4.5s9.5 -9.83301 9.5 -20.5s-3.16699 -17.5 -9.5 -20.5s-19.833 -4.5 -40.5 -4.5s-34.167 1.5 -40.5 4.5s-9.5 9.83301 -9.5 20.5zM0 475c0 10.667 3.16699 17.5 9.5 20.5s19.833 4.5 40.5 4.5s34.167 -1.5 40.5 -4.5s9.5 -9.83301 9.5 -20.5
s-3.16699 -17.5 -9.5 -20.5s-19.833 -4.5 -40.5 -4.5s-34.167 1.5 -40.5 4.5s-9.5 9.83301 -9.5 20.5zM300 575c0 10.667 3.16699 17.5 9.5 20.5s19.833 4.5 40.5 4.5s34.167 -1.5 40.5 -4.5s9.5 -9.83301 9.5 -20.5s-3.16699 -17.5 -9.5 -20.5s-19.833 -4.5 -40.5 -4.5
s-34.167 1.5 -40.5 4.5s-9.5 9.83301 -9.5 20.5zM50 575c0 10.667 3.16699 17.5 9.5 20.5s19.833 4.5 40.5 4.5s34.167 -1.5 40.5 -4.5s9.5 -9.83301 9.5 -20.5s-3.16699 -17.5 -9.5 -20.5s-19.833 -4.5 -40.5 -4.5s-34.167 1.5 -40.5 4.5s-9.5 9.83301 -9.5 20.5zM100 675
c0 6 0.833008 10.5 2.5 13.5s7.33398 5.5 17.001 7.5s21.834 3.16699 36.501 3.5s37.667 0.5 69 0.5s54.333 -0.166992 69 -0.5s26.834 -1.5 36.501 -3.5s15.334 -4.5 17.001 -7.5s2.5 -7.5 2.5 -13.5s-0.833008 -10.5 -2.5 -13.5s-7.33398 -5.5 -17.001 -7.5
s-21.834 -3.16699 -36.501 -3.5s-37.667 -0.5 -69 -0.5s-54.333 0.166992 -69 0.5s-26.834 1.5 -36.501 3.5s-15.334 4.5 -17.001 7.5s-2.5 7.5 -2.5 13.5z" />
    <glyph glyph-name="H" unicode="H" 
d="M300 75c0 10.667 3.16699 17.5 9.5 20.5s19.833 4.5 40.5 4.5s34.167 -1.5 40.5 -4.5s9.5 -9.83301 9.5 -20.5s-3.16699 -17.5 -9.5 -20.5s-19.833 -4.5 -40.5 -4.5s-34.167 1.5 -40.5 4.5s-9.5 9.83301 -9.5 20.5zM0 75c0 10.667 3.16699 17.5 9.5 20.5
s19.833 4.5 40.5 4.5s34.167 -1.5 40.5 -4.5s9.5 -9.83301 9.5 -20.5s-3.16699 -17.5 -9.5 -20.5s-19.833 -4.5 -40.5 -4.5s-34.167 1.5 -40.5 4.5s-9.5 9.83301 -9.5 20.5zM300 175c0 10.667 3.16699 17.5 9.5 20.5s19.833 4.5 40.5 4.5s34.167 -1.5 40.5 -4.5
s9.5 -9.83301 9.5 -20.5s-3.16699 -17.5 -9.5 -20.5s-19.833 -4.5 -40.5 -4.5s-34.167 1.5 -40.5 4.5s-9.5 9.83301 -9.5 20.5zM0 175c0 10.667 3.16699 17.5 9.5 20.5s19.833 4.5 40.5 4.5s34.167 -1.5 40.5 -4.5s9.5 -9.83301 9.5 -20.5s-3.16699 -17.5 -9.5 -20.5
s-19.833 -4.5 -40.5 -4.5s-34.167 1.5 -40.5 4.5s-9.5 9.83301 -9.5 20.5zM300 275c0 10.667 3.16699 17.5 9.5 20.5s19.833 4.5 40.5 4.5s34.167 -1.5 40.5 -4.5s9.5 -9.83301 9.5 -20.5s-3.16699 -17.5 -9.5 -20.5s-19.833 -4.5 -40.5 -4.5s-34.167 1.5 -40.5 4.5
s-9.5 9.83301 -9.5 20.5zM0 275c0 10.667 3.16699 17.5 9.5 20.5s19.833 4.5 40.5 4.5s34.167 -1.5 40.5 -4.5s9.5 -9.83301 9.5 -20.5s-3.16699 -17.5 -9.5 -20.5s-19.833 -4.5 -40.5 -4.5s-34.167 1.5 -40.5 4.5s-9.5 9.83301 -9.5 20.5zM0 375c0 10 5 16.333 15 19
c16 4 77.667 6 185 6c115.333 0 179 -3 191 -9c6 -2.66699 9 -8 9 -16c0 -10 -5 -16.333 -15 -19c-16 -4 -77.667 -6 -185 -6c-115.333 0 -179 3 -191 9c-6 2.66699 -9 8 -9 16zM300 475c0 10.667 3.16699 17.5 9.5 20.5s19.833 4.5 40.5 4.5s34.167 -1.5 40.5 -4.5
s9.5 -9.83301 9.5 -20.5s-3.16699 -17.5 -9.5 -20.5s-19.833 -4.5 -40.5 -4.5s-34.167 1.5 -40.5 4.5s-9.5 9.83301 -9.5 20.5zM0 475c0 10.667 3.16699 17.5 9.5 20.5s19.833 4.5 40.5 4.5s34.167 -1.5 40.5 -4.5s9.5 -9.83301 9.5 -20.5s-3.16699 -17.5 -9.5 -20.5
s-19.833 -4.5 -40.5 -4.5s-34.167 1.5 -40.5 4.5s-9.5 9.83301 -9.5 20.5zM300 575c0 10.667 3.16699 17.5 9.5 20.5s19.833 4.5 40.5 4.5s34.167 -1.5 40.5 -4.5s9.5 -9.83301 9.5 -20.5s-3.16699 -17.5 -9.5 -20.5s-19.833 -4.5 -40.5 -4.5s-34.167 1.5 -40.5 4.5
s-9.5 9.83301 -9.5 20.5zM0 575c0 10.667 3.16699 17.5 9.5 20.5s19.833 4.5 40.5 4.5s34.167 -1.5 40.5 -4.5s9.5 -9.83301 9.5 -20.5s-3.16699 -17.5 -9.5 -20.5s-19.833 -4.5 -40.5 -4.5s-34.167 1.5 -40.5 4.5s-9.5 9.83301 -9.5 20.5zM300 675
c0 10.667 3.16699 17.5 9.5 20.5s19.833 4.5 40.5 4.5s34.167 -1.5 40.5 -4.5s9.5 -9.83301 9.5 -20.5s-3.16699 -17.5 -9.5 -20.5s-19.833 -4.5 -40.5 -4.5s-34.167 1.5 -40.5 4.5s-9.5 9.83301 -9.5 20.5zM0 675c0 10.667 3.16699 17.5 9.5 20.5s19.833 4.5 40.5 4.5
s34.167 -1.5 40.5 -4.5s9.5 -9.83301 9.5 -20.5s-3.16699 -17.5 -9.5 -20.5s-19.833 -4.5 -40.5 -4.5s-34.167 1.5 -40.5 4.5s-9.5 9.83301 -9.5 20.5z" />
    <glyph glyph-name="I" unicode="I" 
d="M50 75c0 10.667 5 17.334 15 20.001c12.667 3.33301 57.667 5 135 5c86 0 133.667 -3 143 -9c4.66699 -2.66699 7 -8 7 -16c0 -10.667 -5 -17.334 -15 -20.001c-12.667 -3.33301 -57.667 -5 -135 -5c-86 0 -133.667 3 -143 9c-4.66699 2.66699 -7 8 -7 16zM150 175
c0 10.667 3.16699 17.5 9.5 20.5s19.833 4.5 40.5 4.5s34.167 -1.5 40.5 -4.5s9.5 -9.83301 9.5 -20.5s-3.16699 -17.5 -9.5 -20.5s-19.833 -4.5 -40.5 -4.5s-34.167 1.5 -40.5 4.5s-9.5 9.83301 -9.5 20.5zM150 275c0 10.667 3.16699 17.5 9.5 20.5s19.833 4.5 40.5 4.5
s34.167 -1.5 40.5 -4.5s9.5 -9.83301 9.5 -20.5s-3.16699 -17.5 -9.5 -20.5s-19.833 -4.5 -40.5 -4.5s-34.167 1.5 -40.5 4.5s-9.5 9.83301 -9.5 20.5zM150 375c0 10.667 3.16699 17.5 9.5 20.5s19.833 4.5 40.5 4.5s34.167 -1.5 40.5 -4.5s9.5 -9.83301 9.5 -20.5
s-3.16699 -17.5 -9.5 -20.5s-19.833 -4.5 -40.5 -4.5s-34.167 1.5 -40.5 4.5s-9.5 9.83301 -9.5 20.5zM150 475c0 10.667 3.16699 17.5 9.5 20.5s19.833 4.5 40.5 4.5s34.167 -1.5 40.5 -4.5s9.5 -9.83301 9.5 -20.5s-3.16699 -17.5 -9.5 -20.5s-19.833 -4.5 -40.5 -4.5
s-34.167 1.5 -40.5 4.5s-9.5 9.83301 -9.5 20.5zM150 575c0 10.667 3.16699 17.5 9.5 20.5s19.833 4.5 40.5 4.5s34.167 -1.5 40.5 -4.5s9.5 -9.83301 9.5 -20.5s-3.16699 -17.5 -9.5 -20.5s-19.833 -4.5 -40.5 -4.5s-34.167 1.5 -40.5 4.5s-9.5 9.83301 -9.5 20.5zM50 675
c0 10.667 5 17.334 15 20.001c12.667 3.33301 57.667 5 135 5c86 0 133.667 -3 143 -9c4.66699 -2.66699 7 -8 7 -16c0 -10.667 -5 -17.334 -15 -20.001c-12.667 -3.33301 -57.667 -5 -135 -5c-86 0 -133.667 3 -143 9c-4.66699 2.66699 -7 8 -7 16z" />
    <glyph glyph-name="J" unicode="J" 
d="M50 75c0 6 0.833008 10.5 2.5 13.5s7.33398 5.5 17.001 7.5s21.834 3.16699 36.501 3.5s37.667 0.5 69 0.5s54.333 -0.166992 69 -0.5s26.834 -1.5 36.501 -3.5s15.334 -4.5 17.001 -7.5s2.5 -7.5 2.5 -13.5s-0.833008 -10.5 -2.5 -13.5s-7.33398 -5.5 -17.001 -7.5
s-21.834 -3.16699 -36.501 -3.5s-37.667 -0.5 -69 -0.5s-54.333 0.166992 -69 0.5s-26.834 1.5 -36.501 3.5s-15.334 4.5 -17.001 7.5s-2.5 7.5 -2.5 13.5zM250 175c0 10.667 3.16699 17.5 9.5 20.5s19.833 4.5 40.5 4.5s34.167 -1.5 40.5 -4.5s9.5 -9.83301 9.5 -20.5
s-3.16699 -17.5 -9.5 -20.5s-19.833 -4.5 -40.5 -4.5s-34.167 1.5 -40.5 4.5s-9.5 9.83301 -9.5 20.5zM0 175c0 10.667 3.16699 17.5 9.5 20.5s19.833 4.5 40.5 4.5s34.167 -1.5 40.5 -4.5s9.5 -9.83301 9.5 -20.5s-3.16699 -17.5 -9.5 -20.5s-19.833 -4.5 -40.5 -4.5
s-34.167 1.5 -40.5 4.5s-9.5 9.83301 -9.5 20.5zM250 275c0 10.667 3.16699 17.5 9.5 20.5s19.833 4.5 40.5 4.5s34.167 -1.5 40.5 -4.5s9.5 -9.83301 9.5 -20.5s-3.16699 -17.5 -9.5 -20.5s-19.833 -4.5 -40.5 -4.5s-34.167 1.5 -40.5 4.5s-9.5 9.83301 -9.5 20.5zM250 375
c0 10.667 3.16699 17.5 9.5 20.5s19.833 4.5 40.5 4.5s34.167 -1.5 40.5 -4.5s9.5 -9.83301 9.5 -20.5s-3.16699 -17.5 -9.5 -20.5s-19.833 -4.5 -40.5 -4.5s-34.167 1.5 -40.5 4.5s-9.5 9.83301 -9.5 20.5zM250 475c0 10.667 3.16699 17.5 9.5 20.5s19.833 4.5 40.5 4.5
s34.167 -1.5 40.5 -4.5s9.5 -9.83301 9.5 -20.5s-3.16699 -17.5 -9.5 -20.5s-19.833 -4.5 -40.5 -4.5s-34.167 1.5 -40.5 4.5s-9.5 9.83301 -9.5 20.5zM250 575c0 10.667 3.16699 17.5 9.5 20.5s19.833 4.5 40.5 4.5s34.167 -1.5 40.5 -4.5s9.5 -9.83301 9.5 -20.5
s-3.16699 -17.5 -9.5 -20.5s-19.833 -4.5 -40.5 -4.5s-34.167 1.5 -40.5 4.5s-9.5 9.83301 -9.5 20.5zM200 675c0 11.333 5.33301 18.333 16 21s38.667 4 84 4s73.333 -1.33301 84 -4s16 -9.66699 16 -21s-5.33301 -18.333 -16 -21s-38.667 -4 -84 -4s-73.333 1.33301 -84 4
s-16 9.66699 -16 21z" />
    <glyph glyph-name="K" unicode="K" 
d="M300 75c0 10.667 3.16699 17.5 9.5 20.5s19.833 4.5 40.5 4.5s34.167 -1.5 40.5 -4.5s9.5 -9.83301 9.5 -20.5s-3.16699 -17.5 -9.5 -20.5s-19.833 -4.5 -40.5 -4.5s-34.167 1.5 -40.5 4.5s-9.5 9.83301 -9.5 20.5zM0 75c0 10.667 3.16699 17.5 9.5 20.5
s19.833 4.5 40.5 4.5s34.167 -1.5 40.5 -4.5s9.5 -9.83301 9.5 -20.5s-3.16699 -17.5 -9.5 -20.5s-19.833 -4.5 -40.5 -4.5s-34.167 1.5 -40.5 4.5s-9.5 9.83301 -9.5 20.5zM200 175c0 11.333 4.33301 18.333 13 21s29.334 4 62.001 4s53.334 -1.33301 62.001 -4
s13 -9.66699 13 -21s-4.33301 -18.333 -13 -21s-29.334 -4 -62.001 -4s-53.334 1.33301 -62.001 4s-13 9.66699 -13 21zM0 175c0 10.667 3.16699 17.5 9.5 20.5s19.833 4.5 40.5 4.5s34.167 -1.5 40.5 -4.5s9.5 -9.83301 9.5 -20.5s-3.16699 -17.5 -9.5 -20.5
s-19.833 -4.5 -40.5 -4.5s-34.167 1.5 -40.5 4.5s-9.5 9.83301 -9.5 20.5zM0 275c0 6 0.833008 10.5 2.5 13.5s7.33398 5.5 17.001 7.5s21.834 3.16699 36.501 3.5s37.667 0.5 69 0.5s54.333 -0.166992 69 -0.5s26.834 -1.5 36.501 -3.5s15.334 -4.5 17.001 -7.5
s2.5 -7.5 2.5 -13.5s-0.833008 -10.5 -2.5 -13.5s-7.33398 -5.5 -17.001 -7.5s-21.834 -3.16699 -36.501 -3.5s-37.667 -0.5 -69 -0.5s-54.333 0.166992 -69 0.5s-26.834 1.5 -36.501 3.5s-15.334 4.5 -17.001 7.5s-2.5 7.5 -2.5 13.5zM0 375c0 11.333 4.33301 18.333 13 21
s29.334 4 62.001 4s53.334 -1.33301 62.001 -4s13 -9.66699 13 -21s-4.33301 -18.333 -13 -21s-29.334 -4 -62.001 -4s-53.334 1.33301 -62.001 4s-13 9.66699 -13 21zM0 475c0 6 0.833008 10.5 2.5 13.5s7.33398 5.5 17.001 7.5s21.834 3.16699 36.501 3.5
s37.667 0.5 69 0.5s54.333 -0.166992 69 -0.5s26.834 -1.5 36.501 -3.5s15.334 -4.5 17.001 -7.5s2.5 -7.5 2.5 -13.5s-0.833008 -10.5 -2.5 -13.5s-7.33398 -5.5 -17.001 -7.5s-21.834 -3.16699 -36.501 -3.5s-37.667 -0.5 -69 -0.5s-54.333 0.166992 -69 0.5
s-26.834 1.5 -36.501 3.5s-15.334 4.5 -17.001 7.5s-2.5 7.5 -2.5 13.5zM200 575c0 11.333 4.33301 18.333 13 21s29.334 4 62.001 4s53.334 -1.33301 62.001 -4s13 -9.66699 13 -21s-4.33301 -18.333 -13 -21s-29.334 -4 -62.001 -4s-53.334 1.33301 -62.001 4
s-13 9.66699 -13 21zM0 575c0 10.667 3.16699 17.5 9.5 20.5s19.833 4.5 40.5 4.5s34.167 -1.5 40.5 -4.5s9.5 -9.83301 9.5 -20.5s-3.16699 -17.5 -9.5 -20.5s-19.833 -4.5 -40.5 -4.5s-34.167 1.5 -40.5 4.5s-9.5 9.83301 -9.5 20.5zM300 675
c0 10.667 3.16699 17.5 9.5 20.5s19.833 4.5 40.5 4.5s34.167 -1.5 40.5 -4.5s9.5 -9.83301 9.5 -20.5s-3.16699 -17.5 -9.5 -20.5s-19.833 -4.5 -40.5 -4.5s-34.167 1.5 -40.5 4.5s-9.5 9.83301 -9.5 20.5zM0 675c0 10.667 3.16699 17.5 9.5 20.5s19.833 4.5 40.5 4.5
s34.167 -1.5 40.5 -4.5s9.5 -9.83301 9.5 -20.5s-3.16699 -17.5 -9.5 -20.5s-19.833 -4.5 -40.5 -4.5s-34.167 1.5 -40.5 4.5s-9.5 9.83301 -9.5 20.5z" />
    <glyph glyph-name="L" unicode="L" 
d="M0 75c0 10 5 16.333 15 19c16 4 77.667 6 185 6c115.333 0 179 -3 191 -9c6 -2.66699 9 -8 9 -16c0 -10 -5 -16.333 -15 -19c-16 -4 -77.667 -6 -185 -6c-115.333 0 -179 3 -191 9c-6 2.66699 -9 8 -9 16zM0 175c0 10.667 3.16699 17.5 9.5 20.5s19.833 4.5 40.5 4.5
s34.167 -1.5 40.5 -4.5s9.5 -9.83301 9.5 -20.5s-3.16699 -17.5 -9.5 -20.5s-19.833 -4.5 -40.5 -4.5s-34.167 1.5 -40.5 4.5s-9.5 9.83301 -9.5 20.5zM0 275c0 10.667 3.16699 17.5 9.5 20.5s19.833 4.5 40.5 4.5s34.167 -1.5 40.5 -4.5s9.5 -9.83301 9.5 -20.5
s-3.16699 -17.5 -9.5 -20.5s-19.833 -4.5 -40.5 -4.5s-34.167 1.5 -40.5 4.5s-9.5 9.83301 -9.5 20.5zM0 375c0 10.667 3.16699 17.5 9.5 20.5s19.833 4.5 40.5 4.5s34.167 -1.5 40.5 -4.5s9.5 -9.83301 9.5 -20.5s-3.16699 -17.5 -9.5 -20.5s-19.833 -4.5 -40.5 -4.5
s-34.167 1.5 -40.5 4.5s-9.5 9.83301 -9.5 20.5zM0 475c0 10.667 3.16699 17.5 9.5 20.5s19.833 4.5 40.5 4.5s34.167 -1.5 40.5 -4.5s9.5 -9.83301 9.5 -20.5s-3.16699 -17.5 -9.5 -20.5s-19.833 -4.5 -40.5 -4.5s-34.167 1.5 -40.5 4.5s-9.5 9.83301 -9.5 20.5zM0 575
c0 10.667 3.16699 17.5 9.5 20.5s19.833 4.5 40.5 4.5s34.167 -1.5 40.5 -4.5s9.5 -9.83301 9.5 -20.5s-3.16699 -17.5 -9.5 -20.5s-19.833 -4.5 -40.5 -4.5s-34.167 1.5 -40.5 4.5s-9.5 9.83301 -9.5 20.5zM0 675c0 10.667 3.16699 17.5 9.5 20.5s19.833 4.5 40.5 4.5
s34.167 -1.5 40.5 -4.5s9.5 -9.83301 9.5 -20.5s-3.16699 -17.5 -9.5 -20.5s-19.833 -4.5 -40.5 -4.5s-34.167 1.5 -40.5 4.5s-9.5 9.83301 -9.5 20.5z" />
    <glyph glyph-name="M" unicode="M" 
d="M300 75c0 10.667 3.16699 17.5 9.5 20.5s19.833 4.5 40.5 4.5s34.167 -1.5 40.5 -4.5s9.5 -9.83301 9.5 -20.5s-3.16699 -17.5 -9.5 -20.5s-19.833 -4.5 -40.5 -4.5s-34.167 1.5 -40.5 4.5s-9.5 9.83301 -9.5 20.5zM0 75c0 10.667 3.16699 17.5 9.5 20.5
s19.833 4.5 40.5 4.5s34.167 -1.5 40.5 -4.5s9.5 -9.83301 9.5 -20.5s-3.16699 -17.5 -9.5 -20.5s-19.833 -4.5 -40.5 -4.5s-34.167 1.5 -40.5 4.5s-9.5 9.83301 -9.5 20.5zM300 175c0 10.667 3.16699 17.5 9.5 20.5s19.833 4.5 40.5 4.5s34.167 -1.5 40.5 -4.5
s9.5 -9.83301 9.5 -20.5s-3.16699 -17.5 -9.5 -20.5s-19.833 -4.5 -40.5 -4.5s-34.167 1.5 -40.5 4.5s-9.5 9.83301 -9.5 20.5zM0 175c0 10.667 3.16699 17.5 9.5 20.5s19.833 4.5 40.5 4.5s34.167 -1.5 40.5 -4.5s9.5 -9.83301 9.5 -20.5s-3.16699 -17.5 -9.5 -20.5
s-19.833 -4.5 -40.5 -4.5s-34.167 1.5 -40.5 4.5s-9.5 9.83301 -9.5 20.5zM300 275c0 10.667 3.16699 17.5 9.5 20.5s19.833 4.5 40.5 4.5s34.167 -1.5 40.5 -4.5s9.5 -9.83301 9.5 -20.5s-3.16699 -17.5 -9.5 -20.5s-19.833 -4.5 -40.5 -4.5s-34.167 1.5 -40.5 4.5
s-9.5 9.83301 -9.5 20.5zM0 275c0 10.667 3.16699 17.5 9.5 20.5s19.833 4.5 40.5 4.5s34.167 -1.5 40.5 -4.5s9.5 -9.83301 9.5 -20.5s-3.16699 -17.5 -9.5 -20.5s-19.833 -4.5 -40.5 -4.5s-34.167 1.5 -40.5 4.5s-9.5 9.83301 -9.5 20.5zM300 375
c0 10.667 3.16699 17.5 9.5 20.5s19.833 4.5 40.5 4.5s34.167 -1.5 40.5 -4.5s9.5 -9.83301 9.5 -20.5s-3.16699 -17.5 -9.5 -20.5s-19.833 -4.5 -40.5 -4.5s-34.167 1.5 -40.5 4.5s-9.5 9.83301 -9.5 20.5zM150 375c0 10.667 3.16699 17.5 9.5 20.5s19.833 4.5 40.5 4.5
s34.167 -1.5 40.5 -4.5s9.5 -9.83301 9.5 -20.5s-3.16699 -17.5 -9.5 -20.5s-19.833 -4.5 -40.5 -4.5s-34.167 1.5 -40.5 4.5s-9.5 9.83301 -9.5 20.5zM0 375c0 10.667 3.16699 17.5 9.5 20.5s19.833 4.5 40.5 4.5s34.167 -1.5 40.5 -4.5s9.5 -9.83301 9.5 -20.5
s-3.16699 -17.5 -9.5 -20.5s-19.833 -4.5 -40.5 -4.5s-34.167 1.5 -40.5 4.5s-9.5 9.83301 -9.5 20.5zM0 475c0 10 5 16.333 15 19c16 4 77.667 6 185 6c115.333 0 179 -3 191 -9c6 -2.66699 9 -8 9 -16c0 -10 -5 -16.333 -15 -19c-16 -4 -77.667 -6 -185 -6
c-115.333 0 -179 3 -191 9c-6 2.66699 -9 8 -9 16zM250 575c0 11.333 4.33301 18.333 13 21s29.334 4 62.001 4c33.333 0 54.166 -1.33301 62.499 -4s12.5 -9.66699 12.5 -21s-4.16699 -18.333 -12.5 -21s-29.166 -4 -62.499 -4c-32.667 0 -53.334 1.33301 -62.001 4
s-13 9.66699 -13 21zM0 575c0 11.333 4.33301 18.333 13 21s29.334 4 62.001 4s53.334 -1.33301 62.001 -4s13 -9.66699 13 -21s-4.33301 -18.333 -13 -21s-29.334 -4 -62.001 -4s-53.334 1.33301 -62.001 4s-13 9.66699 -13 21zM300 675c0 10.667 3.16699 17.5 9.5 20.5
s19.833 4.5 40.5 4.5s34.167 -1.5 40.5 -4.5s9.5 -9.83301 9.5 -20.5s-3.16699 -17.5 -9.5 -20.5s-19.833 -4.5 -40.5 -4.5s-34.167 1.5 -40.5 4.5s-9.5 9.83301 -9.5 20.5zM0 675c0 10.667 3.16699 17.5 9.5 20.5s19.833 4.5 40.5 4.5s34.167 -1.5 40.5 -4.5
s9.5 -9.83301 9.5 -20.5s-3.16699 -17.5 -9.5 -20.5s-19.833 -4.5 -40.5 -4.5s-34.167 1.5 -40.5 4.5s-9.5 9.83301 -9.5 20.5z" />
    <glyph glyph-name="N" unicode="N" 
d="M300 75c0 10.667 3.16699 17.5 9.5 20.5s19.833 4.5 40.5 4.5s34.167 -1.5 40.5 -4.5s9.5 -9.83301 9.5 -20.5s-3.16699 -17.5 -9.5 -20.5s-19.833 -4.5 -40.5 -4.5s-34.167 1.5 -40.5 4.5s-9.5 9.83301 -9.5 20.5zM0 75c0 10.667 3.16699 17.5 9.5 20.5
s19.833 4.5 40.5 4.5s34.167 -1.5 40.5 -4.5s9.5 -9.83301 9.5 -20.5s-3.16699 -17.5 -9.5 -20.5s-19.833 -4.5 -40.5 -4.5s-34.167 1.5 -40.5 4.5s-9.5 9.83301 -9.5 20.5zM250 175c0 11.333 4.33301 18.333 13 21s29.334 4 62.001 4c33.333 0 54.166 -1.33301 62.499 -4
s12.5 -9.66699 12.5 -21s-4.16699 -18.333 -12.5 -21s-29.166 -4 -62.499 -4c-32.667 0 -53.334 1.33301 -62.001 4s-13 9.66699 -13 21zM0 175c0 10.667 3.16699 17.5 9.5 20.5s19.833 4.5 40.5 4.5s34.167 -1.5 40.5 -4.5s9.5 -9.83301 9.5 -20.5
s-3.16699 -17.5 -9.5 -20.5s-19.833 -4.5 -40.5 -4.5s-34.167 1.5 -40.5 4.5s-9.5 9.83301 -9.5 20.5zM200 275c0 11.333 5.33301 18.333 16 21s38.667 4 84 4s73.333 -1.33301 84 -4s16 -9.66699 16 -21s-5.33301 -18.333 -16 -21s-38.667 -4 -84 -4s-73.333 1.33301 -84 4
s-16 9.66699 -16 21zM0 275c0 10.667 3.16699 17.5 9.5 20.5s19.833 4.5 40.5 4.5s34.167 -1.5 40.5 -4.5s9.5 -9.83301 9.5 -20.5s-3.16699 -17.5 -9.5 -20.5s-19.833 -4.5 -40.5 -4.5s-34.167 1.5 -40.5 4.5s-9.5 9.83301 -9.5 20.5zM300 375
c0 10.667 3.16699 17.5 9.5 20.5s19.833 4.5 40.5 4.5s34.167 -1.5 40.5 -4.5s9.5 -9.83301 9.5 -20.5s-3.16699 -17.5 -9.5 -20.5s-19.833 -4.5 -40.5 -4.5s-34.167 1.5 -40.5 4.5s-9.5 9.83301 -9.5 20.5zM150 375c0 10.667 3.16699 17.5 9.5 20.5s19.833 4.5 40.5 4.5
s34.167 -1.5 40.5 -4.5s9.5 -9.83301 9.5 -20.5s-3.16699 -17.5 -9.5 -20.5s-19.833 -4.5 -40.5 -4.5s-34.167 1.5 -40.5 4.5s-9.5 9.83301 -9.5 20.5zM0 375c0 10.667 3.16699 17.5 9.5 20.5s19.833 4.5 40.5 4.5s34.167 -1.5 40.5 -4.5s9.5 -9.83301 9.5 -20.5
s-3.16699 -17.5 -9.5 -20.5s-19.833 -4.5 -40.5 -4.5s-34.167 1.5 -40.5 4.5s-9.5 9.83301 -9.5 20.5zM300 475c0 10.667 3.16699 17.5 9.5 20.5s19.833 4.5 40.5 4.5s34.167 -1.5 40.5 -4.5s9.5 -9.83301 9.5 -20.5s-3.16699 -17.5 -9.5 -20.5s-19.833 -4.5 -40.5 -4.5
s-34.167 1.5 -40.5 4.5s-9.5 9.83301 -9.5 20.5zM0 475c0 11.333 5.33301 18.333 16 21s38.667 4 84 4s73.333 -1.33301 84 -4s16 -9.66699 16 -21s-5.33301 -18.333 -16 -21s-38.667 -4 -84 -4s-73.333 1.33301 -84 4s-16 9.66699 -16 21zM300 575
c0 10.667 3.16699 17.5 9.5 20.5s19.833 4.5 40.5 4.5s34.167 -1.5 40.5 -4.5s9.5 -9.83301 9.5 -20.5s-3.16699 -17.5 -9.5 -20.5s-19.833 -4.5 -40.5 -4.5s-34.167 1.5 -40.5 4.5s-9.5 9.83301 -9.5 20.5zM0 575c0 11.333 4.33301 18.333 13 21s29.334 4 62.001 4
s53.334 -1.33301 62.001 -4s13 -9.66699 13 -21s-4.33301 -18.333 -13 -21s-29.334 -4 -62.001 -4s-53.334 1.33301 -62.001 4s-13 9.66699 -13 21zM300 675c0 10.667 3.16699 17.5 9.5 20.5s19.833 4.5 40.5 4.5s34.167 -1.5 40.5 -4.5s9.5 -9.83301 9.5 -20.5
s-3.16699 -17.5 -9.5 -20.5s-19.833 -4.5 -40.5 -4.5s-34.167 1.5 -40.5 4.5s-9.5 9.83301 -9.5 20.5zM0 675c0 10.667 3.16699 17.5 9.5 20.5s19.833 4.5 40.5 4.5s34.167 -1.5 40.5 -4.5s9.5 -9.83301 9.5 -20.5s-3.16699 -17.5 -9.5 -20.5s-19.833 -4.5 -40.5 -4.5
s-34.167 1.5 -40.5 4.5s-9.5 9.83301 -9.5 20.5z" />
    <glyph glyph-name="O" unicode="O" 
d="M50 75c0 10.667 5 17.334 15 20.001c12.667 3.33301 57.667 5 135 5c86 0 133.667 -3 143 -9c4.66699 -2.66699 7 -8 7 -16c0 -10.667 -5 -17.334 -15 -20.001c-12.667 -3.33301 -57.667 -5 -135 -5c-86 0 -133.667 3 -143 9c-4.66699 2.66699 -7 8 -7 16zM300 175
c0 10.667 3.16699 17.5 9.5 20.5s19.833 4.5 40.5 4.5s34.167 -1.5 40.5 -4.5s9.5 -9.83301 9.5 -20.5s-3.16699 -17.5 -9.5 -20.5s-19.833 -4.5 -40.5 -4.5s-34.167 1.5 -40.5 4.5s-9.5 9.83301 -9.5 20.5zM0 175c0 10.667 3.16699 17.5 9.5 20.5s19.833 4.5 40.5 4.5
s34.167 -1.5 40.5 -4.5s9.5 -9.83301 9.5 -20.5s-3.16699 -17.5 -9.5 -20.5s-19.833 -4.5 -40.5 -4.5s-34.167 1.5 -40.5 4.5s-9.5 9.83301 -9.5 20.5zM300 275c0 10.667 3.16699 17.5 9.5 20.5s19.833 4.5 40.5 4.5s34.167 -1.5 40.5 -4.5s9.5 -9.83301 9.5 -20.5
s-3.16699 -17.5 -9.5 -20.5s-19.833 -4.5 -40.5 -4.5s-34.167 1.5 -40.5 4.5s-9.5 9.83301 -9.5 20.5zM0 275c0 10.667 3.16699 17.5 9.5 20.5s19.833 4.5 40.5 4.5s34.167 -1.5 40.5 -4.5s9.5 -9.83301 9.5 -20.5s-3.16699 -17.5 -9.5 -20.5s-19.833 -4.5 -40.5 -4.5
s-34.167 1.5 -40.5 4.5s-9.5 9.83301 -9.5 20.5zM300 375c0 10.667 3.16699 17.5 9.5 20.5s19.833 4.5 40.5 4.5s34.167 -1.5 40.5 -4.5s9.5 -9.83301 9.5 -20.5s-3.16699 -17.5 -9.5 -20.5s-19.833 -4.5 -40.5 -4.5s-34.167 1.5 -40.5 4.5s-9.5 9.83301 -9.5 20.5zM0 375
c0 10.667 3.16699 17.5 9.5 20.5s19.833 4.5 40.5 4.5s34.167 -1.5 40.5 -4.5s9.5 -9.83301 9.5 -20.5s-3.16699 -17.5 -9.5 -20.5s-19.833 -4.5 -40.5 -4.5s-34.167 1.5 -40.5 4.5s-9.5 9.83301 -9.5 20.5zM300 475c0 10.667 3.16699 17.5 9.5 20.5s19.833 4.5 40.5 4.5
s34.167 -1.5 40.5 -4.5s9.5 -9.83301 9.5 -20.5s-3.16699 -17.5 -9.5 -20.5s-19.833 -4.5 -40.5 -4.5s-34.167 1.5 -40.5 4.5s-9.5 9.83301 -9.5 20.5zM0 475c0 10.667 3.16699 17.5 9.5 20.5s19.833 4.5 40.5 4.5s34.167 -1.5 40.5 -4.5s9.5 -9.83301 9.5 -20.5
s-3.16699 -17.5 -9.5 -20.5s-19.833 -4.5 -40.5 -4.5s-34.167 1.5 -40.5 4.5s-9.5 9.83301 -9.5 20.5zM300 575c0 10.667 3.16699 17.5 9.5 20.5s19.833 4.5 40.5 4.5s34.167 -1.5 40.5 -4.5s9.5 -9.83301 9.5 -20.5s-3.16699 -17.5 -9.5 -20.5s-19.833 -4.5 -40.5 -4.5
s-34.167 1.5 -40.5 4.5s-9.5 9.83301 -9.5 20.5zM0 575c0 10.667 3.16699 17.5 9.5 20.5s19.833 4.5 40.5 4.5s34.167 -1.5 40.5 -4.5s9.5 -9.83301 9.5 -20.5s-3.16699 -17.5 -9.5 -20.5s-19.833 -4.5 -40.5 -4.5s-34.167 1.5 -40.5 4.5s-9.5 9.83301 -9.5 20.5zM50 675
c0 10.667 5 17.334 15 20.001c12.667 3.33301 57.667 5 135 5c86 0 133.667 -3 143 -9c4.66699 -2.66699 7 -8 7 -16c0 -10.667 -5 -17.334 -15 -20.001c-12.667 -3.33301 -57.667 -5 -135 -5c-86 0 -133.667 3 -143 9c-4.66699 2.66699 -7 8 -7 16z" />
    <glyph glyph-name="P" unicode="P" 
d="M0 75c0 10.667 3.16699 17.5 9.5 20.5s19.833 4.5 40.5 4.5s34.167 -1.5 40.5 -4.5s9.5 -9.83301 9.5 -20.5s-3.16699 -17.5 -9.5 -20.5s-19.833 -4.5 -40.5 -4.5s-34.167 1.5 -40.5 4.5s-9.5 9.83301 -9.5 20.5zM0 175c0 10.667 3.16699 17.5 9.5 20.5
s19.833 4.5 40.5 4.5s34.167 -1.5 40.5 -4.5s9.5 -9.83301 9.5 -20.5s-3.16699 -17.5 -9.5 -20.5s-19.833 -4.5 -40.5 -4.5s-34.167 1.5 -40.5 4.5s-9.5 9.83301 -9.5 20.5zM0 275c0 10.667 3.16699 17.5 9.5 20.5s19.833 4.5 40.5 4.5s34.167 -1.5 40.5 -4.5
s9.5 -9.83301 9.5 -20.5s-3.16699 -17.5 -9.5 -20.5s-19.833 -4.5 -40.5 -4.5s-34.167 1.5 -40.5 4.5s-9.5 9.83301 -9.5 20.5zM0 375c0 10 5 16.333 15 19c14.667 4 68 6 160 6c100.667 0 156.334 -3 167.001 -9c5.33301 -2.66699 8 -8 8 -16c0 -10 -5 -16.333 -15 -19
c-14.667 -4 -68 -6 -160 -6c-100.667 0 -156.334 3 -167.001 9c-5.33301 2.66699 -8 8 -8 16zM300 475c0 10.667 3.16699 17.5 9.5 20.5s19.833 4.5 40.5 4.5s34.167 -1.5 40.5 -4.5s9.5 -9.83301 9.5 -20.5s-3.16699 -17.5 -9.5 -20.5s-19.833 -4.5 -40.5 -4.5
s-34.167 1.5 -40.5 4.5s-9.5 9.83301 -9.5 20.5zM0 475c0 10.667 3.16699 17.5 9.5 20.5s19.833 4.5 40.5 4.5s34.167 -1.5 40.5 -4.5s9.5 -9.83301 9.5 -20.5s-3.16699 -17.5 -9.5 -20.5s-19.833 -4.5 -40.5 -4.5s-34.167 1.5 -40.5 4.5s-9.5 9.83301 -9.5 20.5zM300 575
c0 10.667 3.16699 17.5 9.5 20.5s19.833 4.5 40.5 4.5s34.167 -1.5 40.5 -4.5s9.5 -9.83301 9.5 -20.5s-3.16699 -17.5 -9.5 -20.5s-19.833 -4.5 -40.5 -4.5s-34.167 1.5 -40.5 4.5s-9.5 9.83301 -9.5 20.5zM0 575c0 10.667 3.16699 17.5 9.5 20.5s19.833 4.5 40.5 4.5
s34.167 -1.5 40.5 -4.5s9.5 -9.83301 9.5 -20.5s-3.16699 -17.5 -9.5 -20.5s-19.833 -4.5 -40.5 -4.5s-34.167 1.5 -40.5 4.5s-9.5 9.83301 -9.5 20.5zM0 675c0 10 5 16.333 15 19c14.667 4 68 6 160 6c100.667 0 156.334 -3 167.001 -9c5.33301 -2.66699 8 -8 8 -16
c0 -10 -5 -16.333 -15 -19c-14.667 -4 -68 -6 -160 -6c-100.667 0 -156.334 3 -167.001 9c-5.33301 2.66699 -8 8 -8 16z" />
    <glyph glyph-name="Q" unicode="Q" 
d="M50 75c0 10 5 16.333 15 19c14.667 4 68 6 160 6c100.667 0 156.334 -3 167.001 -9c5.33301 -2.66699 8 -8 8 -16c0 -10 -5 -16.333 -15 -19c-14.667 -4 -68 -6 -160 -6c-100.667 0 -156.334 3 -167.001 9c-5.33301 2.66699 -8 8 -8 16zM250 175
c0 10.667 3.16699 17.5 9.5 20.5s19.833 4.5 40.5 4.5s34.167 -1.5 40.5 -4.5s9.5 -9.83301 9.5 -20.5s-3.16699 -17.5 -9.5 -20.5s-19.833 -4.5 -40.5 -4.5s-34.167 1.5 -40.5 4.5s-9.5 9.83301 -9.5 20.5zM0 175c0 10.667 3.16699 17.5 9.5 20.5s19.833 4.5 40.5 4.5
s34.167 -1.5 40.5 -4.5s9.5 -9.83301 9.5 -20.5s-3.16699 -17.5 -9.5 -20.5s-19.833 -4.5 -40.5 -4.5s-34.167 1.5 -40.5 4.5s-9.5 9.83301 -9.5 20.5zM200 275c0 11.333 5.33301 18.333 16 21s38.667 4 84 4s73.333 -1.33301 84 -4s16 -9.66699 16 -21
s-5.33301 -18.333 -16 -21s-38.667 -4 -84 -4s-73.333 1.33301 -84 4s-16 9.66699 -16 21zM0 275c0 10.667 3.16699 17.5 9.5 20.5s19.833 4.5 40.5 4.5s34.167 -1.5 40.5 -4.5s9.5 -9.83301 9.5 -20.5s-3.16699 -17.5 -9.5 -20.5s-19.833 -4.5 -40.5 -4.5
s-34.167 1.5 -40.5 4.5s-9.5 9.83301 -9.5 20.5zM300 375c0 10.667 3.16699 17.5 9.5 20.5s19.833 4.5 40.5 4.5s34.167 -1.5 40.5 -4.5s9.5 -9.83301 9.5 -20.5s-3.16699 -17.5 -9.5 -20.5s-19.833 -4.5 -40.5 -4.5s-34.167 1.5 -40.5 4.5s-9.5 9.83301 -9.5 20.5zM0 375
c0 10.667 3.16699 17.5 9.5 20.5s19.833 4.5 40.5 4.5s34.167 -1.5 40.5 -4.5s9.5 -9.83301 9.5 -20.5s-3.16699 -17.5 -9.5 -20.5s-19.833 -4.5 -40.5 -4.5s-34.167 1.5 -40.5 4.5s-9.5 9.83301 -9.5 20.5zM300 475c0 10.667 3.16699 17.5 9.5 20.5s19.833 4.5 40.5 4.5
s34.167 -1.5 40.5 -4.5s9.5 -9.83301 9.5 -20.5s-3.16699 -17.5 -9.5 -20.5s-19.833 -4.5 -40.5 -4.5s-34.167 1.5 -40.5 4.5s-9.5 9.83301 -9.5 20.5zM0 475c0 10.667 3.16699 17.5 9.5 20.5s19.833 4.5 40.5 4.5s34.167 -1.5 40.5 -4.5s9.5 -9.83301 9.5 -20.5
s-3.16699 -17.5 -9.5 -20.5s-19.833 -4.5 -40.5 -4.5s-34.167 1.5 -40.5 4.5s-9.5 9.83301 -9.5 20.5zM300 575c0 10.667 3.16699 17.5 9.5 20.5s19.833 4.5 40.5 4.5s34.167 -1.5 40.5 -4.5s9.5 -9.83301 9.5 -20.5s-3.16699 -17.5 -9.5 -20.5s-19.833 -4.5 -40.5 -4.5
s-34.167 1.5 -40.5 4.5s-9.5 9.83301 -9.5 20.5zM0 575c0 10.667 3.16699 17.5 9.5 20.5s19.833 4.5 40.5 4.5s34.167 -1.5 40.5 -4.5s9.5 -9.83301 9.5 -20.5s-3.16699 -17.5 -9.5 -20.5s-19.833 -4.5 -40.5 -4.5s-34.167 1.5 -40.5 4.5s-9.5 9.83301 -9.5 20.5zM50 675
c0 10.667 5 17.334 15 20.001c12.667 3.33301 57.667 5 135 5c86 0 133.667 -3 143 -9c4.66699 -2.66699 7 -8 7 -16c0 -10.667 -5 -17.334 -15 -20.001c-12.667 -3.33301 -57.667 -5 -135 -5c-86 0 -133.667 3 -143 9c-4.66699 2.66699 -7 8 -7 16z" />
    <glyph glyph-name="R" unicode="R" 
d="M300 75c0 10.667 3.16699 17.5 9.5 20.5s19.833 4.5 40.5 4.5s34.167 -1.5 40.5 -4.5s9.5 -9.83301 9.5 -20.5s-3.16699 -17.5 -9.5 -20.5s-19.833 -4.5 -40.5 -4.5s-34.167 1.5 -40.5 4.5s-9.5 9.83301 -9.5 20.5zM0 75c0 10.667 3.16699 17.5 9.5 20.5
s19.833 4.5 40.5 4.5s34.167 -1.5 40.5 -4.5s9.5 -9.83301 9.5 -20.5s-3.16699 -17.5 -9.5 -20.5s-19.833 -4.5 -40.5 -4.5s-34.167 1.5 -40.5 4.5s-9.5 9.83301 -9.5 20.5zM250 175c0 10.667 3.16699 17.5 9.5 20.5s19.833 4.5 40.5 4.5s34.167 -1.5 40.5 -4.5
s9.5 -9.83301 9.5 -20.5s-3.16699 -17.5 -9.5 -20.5s-19.833 -4.5 -40.5 -4.5s-34.167 1.5 -40.5 4.5s-9.5 9.83301 -9.5 20.5zM0 175c0 10.667 3.16699 17.5 9.5 20.5s19.833 4.5 40.5 4.5s34.167 -1.5 40.5 -4.5s9.5 -9.83301 9.5 -20.5s-3.16699 -17.5 -9.5 -20.5
s-19.833 -4.5 -40.5 -4.5s-34.167 1.5 -40.5 4.5s-9.5 9.83301 -9.5 20.5zM200 275c0 10.667 3.16699 17.5 9.5 20.5s19.833 4.5 40.5 4.5s34.167 -1.5 40.5 -4.5s9.5 -9.83301 9.5 -20.5s-3.16699 -17.5 -9.5 -20.5s-19.833 -4.5 -40.5 -4.5s-34.167 1.5 -40.5 4.5
s-9.5 9.83301 -9.5 20.5zM0 275c0 10.667 3.16699 17.5 9.5 20.5s19.833 4.5 40.5 4.5s34.167 -1.5 40.5 -4.5s9.5 -9.83301 9.5 -20.5s-3.16699 -17.5 -9.5 -20.5s-19.833 -4.5 -40.5 -4.5s-34.167 1.5 -40.5 4.5s-9.5 9.83301 -9.5 20.5zM0 375c0 10 5 16.333 15 19
c14.667 4 68 6 160 6c100.667 0 156.334 -3 167.001 -9c5.33301 -2.66699 8 -8 8 -16c0 -10 -5 -16.333 -15 -19c-14.667 -4 -68 -6 -160 -6c-100.667 0 -156.334 3 -167.001 9c-5.33301 2.66699 -8 8 -8 16zM300 475c0 10.667 3.16699 17.5 9.5 20.5s19.833 4.5 40.5 4.5
s34.167 -1.5 40.5 -4.5s9.5 -9.83301 9.5 -20.5s-3.16699 -17.5 -9.5 -20.5s-19.833 -4.5 -40.5 -4.5s-34.167 1.5 -40.5 4.5s-9.5 9.83301 -9.5 20.5zM0 475c0 10.667 3.16699 17.5 9.5 20.5s19.833 4.5 40.5 4.5s34.167 -1.5 40.5 -4.5s9.5 -9.83301 9.5 -20.5
s-3.16699 -17.5 -9.5 -20.5s-19.833 -4.5 -40.5 -4.5s-34.167 1.5 -40.5 4.5s-9.5 9.83301 -9.5 20.5zM300 575c0 10.667 3.16699 17.5 9.5 20.5s19.833 4.5 40.5 4.5s34.167 -1.5 40.5 -4.5s9.5 -9.83301 9.5 -20.5s-3.16699 -17.5 -9.5 -20.5s-19.833 -4.5 -40.5 -4.5
s-34.167 1.5 -40.5 4.5s-9.5 9.83301 -9.5 20.5zM0 575c0 10.667 3.16699 17.5 9.5 20.5s19.833 4.5 40.5 4.5s34.167 -1.5 40.5 -4.5s9.5 -9.83301 9.5 -20.5s-3.16699 -17.5 -9.5 -20.5s-19.833 -4.5 -40.5 -4.5s-34.167 1.5 -40.5 4.5s-9.5 9.83301 -9.5 20.5zM0 675
c0 10 5 16.333 15 19c14.667 4 68 6 160 6c100.667 0 156.334 -3 167.001 -9c5.33301 -2.66699 8 -8 8 -16c0 -10 -5 -16.333 -15 -19c-14.667 -4 -68 -6 -160 -6c-100.667 0 -156.334 3 -167.001 9c-5.33301 2.66699 -8 8 -8 16z" />
    <glyph glyph-name="S" unicode="S" 
d="M50 75c0 10.667 5 17.334 15 20.001c12.667 3.33301 57.667 5 135 5c86 0 133.667 -3 143 -9c4.66699 -2.66699 7 -8 7 -16c0 -10.667 -5 -17.334 -15 -20.001c-12.667 -3.33301 -57.667 -5 -135 -5c-86 0 -133.667 3 -143 9c-4.66699 2.66699 -7 8 -7 16zM300 175
c0 10.667 3.16699 17.5 9.5 20.5s19.833 4.5 40.5 4.5s34.167 -1.5 40.5 -4.5s9.5 -9.83301 9.5 -20.5s-3.16699 -17.5 -9.5 -20.5s-19.833 -4.5 -40.5 -4.5s-34.167 1.5 -40.5 4.5s-9.5 9.83301 -9.5 20.5zM0 175c0 10.667 3.16699 17.5 9.5 20.5s19.833 4.5 40.5 4.5
s34.167 -1.5 40.5 -4.5s9.5 -9.83301 9.5 -20.5s-3.16699 -17.5 -9.5 -20.5s-19.833 -4.5 -40.5 -4.5s-34.167 1.5 -40.5 4.5s-9.5 9.83301 -9.5 20.5zM300 275c0 10.667 3.16699 17.5 9.5 20.5s19.833 4.5 40.5 4.5s34.167 -1.5 40.5 -4.5s9.5 -9.83301 9.5 -20.5
s-3.16699 -17.5 -9.5 -20.5s-19.833 -4.5 -40.5 -4.5s-34.167 1.5 -40.5 4.5s-9.5 9.83301 -9.5 20.5zM50 375c0 10.667 5 17.334 15 20.001c12.667 3.33301 57.667 5 135 5c86 0 133.667 -3 143 -9c4.66699 -2.66699 7 -8 7 -16c0 -10.667 -5 -17.334 -15 -20.001
c-12.667 -3.33301 -57.667 -5 -135 -5c-86 0 -133.667 3 -143 9c-4.66699 2.66699 -7 8 -7 16zM0 475c0 10.667 3.16699 17.5 9.5 20.5s19.833 4.5 40.5 4.5s34.167 -1.5 40.5 -4.5s9.5 -9.83301 9.5 -20.5s-3.16699 -17.5 -9.5 -20.5s-19.833 -4.5 -40.5 -4.5
s-34.167 1.5 -40.5 4.5s-9.5 9.83301 -9.5 20.5zM300 575c0 10.667 3.16699 17.5 9.5 20.5s19.833 4.5 40.5 4.5s34.167 -1.5 40.5 -4.5s9.5 -9.83301 9.5 -20.5s-3.16699 -17.5 -9.5 -20.5s-19.833 -4.5 -40.5 -4.5s-34.167 1.5 -40.5 4.5s-9.5 9.83301 -9.5 20.5zM0 575
c0 10.667 3.16699 17.5 9.5 20.5s19.833 4.5 40.5 4.5s34.167 -1.5 40.5 -4.5s9.5 -9.83301 9.5 -20.5s-3.16699 -17.5 -9.5 -20.5s-19.833 -4.5 -40.5 -4.5s-34.167 1.5 -40.5 4.5s-9.5 9.83301 -9.5 20.5zM50 675c0 10.667 5 17.334 15 20.001
c12.667 3.33301 57.667 5 135 5c86 0 133.667 -3 143 -9c4.66699 -2.66699 7 -8 7 -16c0 -10.667 -5 -17.334 -15 -20.001c-12.667 -3.33301 -57.667 -5 -135 -5c-86 0 -133.667 3 -143 9c-4.66699 2.66699 -7 8 -7 16z" />
    <glyph glyph-name="T" unicode="T" 
d="M150 75c0 10.667 3.16699 17.5 9.5 20.5s19.833 4.5 40.5 4.5s34.167 -1.5 40.5 -4.5s9.5 -9.83301 9.5 -20.5s-3.16699 -17.5 -9.5 -20.5s-19.833 -4.5 -40.5 -4.5s-34.167 1.5 -40.5 4.5s-9.5 9.83301 -9.5 20.5zM150 175c0 10.667 3.16699 17.5 9.5 20.5
s19.833 4.5 40.5 4.5s34.167 -1.5 40.5 -4.5s9.5 -9.83301 9.5 -20.5s-3.16699 -17.5 -9.5 -20.5s-19.833 -4.5 -40.5 -4.5s-34.167 1.5 -40.5 4.5s-9.5 9.83301 -9.5 20.5zM150 275c0 10.667 3.16699 17.5 9.5 20.5s19.833 4.5 40.5 4.5s34.167 -1.5 40.5 -4.5
s9.5 -9.83301 9.5 -20.5s-3.16699 -17.5 -9.5 -20.5s-19.833 -4.5 -40.5 -4.5s-34.167 1.5 -40.5 4.5s-9.5 9.83301 -9.5 20.5zM150 375c0 10.667 3.16699 17.5 9.5 20.5s19.833 4.5 40.5 4.5s34.167 -1.5 40.5 -4.5s9.5 -9.83301 9.5 -20.5s-3.16699 -17.5 -9.5 -20.5
s-19.833 -4.5 -40.5 -4.5s-34.167 1.5 -40.5 4.5s-9.5 9.83301 -9.5 20.5zM150 475c0 10.667 3.16699 17.5 9.5 20.5s19.833 4.5 40.5 4.5s34.167 -1.5 40.5 -4.5s9.5 -9.83301 9.5 -20.5s-3.16699 -17.5 -9.5 -20.5s-19.833 -4.5 -40.5 -4.5s-34.167 1.5 -40.5 4.5
s-9.5 9.83301 -9.5 20.5zM150 575c0 10.667 3.16699 17.5 9.5 20.5s19.833 4.5 40.5 4.5s34.167 -1.5 40.5 -4.5s9.5 -9.83301 9.5 -20.5s-3.16699 -17.5 -9.5 -20.5s-19.833 -4.5 -40.5 -4.5s-34.167 1.5 -40.5 4.5s-9.5 9.83301 -9.5 20.5zM0 675c0 10 5 16.333 15 19
c16 4 77.667 6 185 6c115.333 0 179 -3 191 -9c6 -2.66699 9 -8 9 -16c0 -10 -5 -16.333 -15 -19c-16 -4 -77.667 -6 -185 -6c-115.333 0 -179 3 -191 9c-6 2.66699 -9 8 -9 16z" />
    <glyph glyph-name="U" unicode="U" 
d="M50 75c0 10.667 5 17.334 15 20.001c12.667 3.33301 57.667 5 135 5c86 0 133.667 -3 143 -9c4.66699 -2.66699 7 -8 7 -16c0 -10.667 -5 -17.334 -15 -20.001c-12.667 -3.33301 -57.667 -5 -135 -5c-86 0 -133.667 3 -143 9c-4.66699 2.66699 -7 8 -7 16zM300 175
c0 10.667 3.16699 17.5 9.5 20.5s19.833 4.5 40.5 4.5s34.167 -1.5 40.5 -4.5s9.5 -9.83301 9.5 -20.5s-3.16699 -17.5 -9.5 -20.5s-19.833 -4.5 -40.5 -4.5s-34.167 1.5 -40.5 4.5s-9.5 9.83301 -9.5 20.5zM0 175c0 10.667 3.16699 17.5 9.5 20.5s19.833 4.5 40.5 4.5
s34.167 -1.5 40.5 -4.5s9.5 -9.83301 9.5 -20.5s-3.16699 -17.5 -9.5 -20.5s-19.833 -4.5 -40.5 -4.5s-34.167 1.5 -40.5 4.5s-9.5 9.83301 -9.5 20.5zM300 275c0 10.667 3.16699 17.5 9.5 20.5s19.833 4.5 40.5 4.5s34.167 -1.5 40.5 -4.5s9.5 -9.83301 9.5 -20.5
s-3.16699 -17.5 -9.5 -20.5s-19.833 -4.5 -40.5 -4.5s-34.167 1.5 -40.5 4.5s-9.5 9.83301 -9.5 20.5zM0 275c0 10.667 3.16699 17.5 9.5 20.5s19.833 4.5 40.5 4.5s34.167 -1.5 40.5 -4.5s9.5 -9.83301 9.5 -20.5s-3.16699 -17.5 -9.5 -20.5s-19.833 -4.5 -40.5 -4.5
s-34.167 1.5 -40.5 4.5s-9.5 9.83301 -9.5 20.5zM300 375c0 10.667 3.16699 17.5 9.5 20.5s19.833 4.5 40.5 4.5s34.167 -1.5 40.5 -4.5s9.5 -9.83301 9.5 -20.5s-3.16699 -17.5 -9.5 -20.5s-19.833 -4.5 -40.5 -4.5s-34.167 1.5 -40.5 4.5s-9.5 9.83301 -9.5 20.5zM0 375
c0 10.667 3.16699 17.5 9.5 20.5s19.833 4.5 40.5 4.5s34.167 -1.5 40.5 -4.5s9.5 -9.83301 9.5 -20.5s-3.16699 -17.5 -9.5 -20.5s-19.833 -4.5 -40.5 -4.5s-34.167 1.5 -40.5 4.5s-9.5 9.83301 -9.5 20.5zM300 475c0 10.667 3.16699 17.5 9.5 20.5s19.833 4.5 40.5 4.5
s34.167 -1.5 40.5 -4.5s9.5 -9.83301 9.5 -20.5s-3.16699 -17.5 -9.5 -20.5s-19.833 -4.5 -40.5 -4.5s-34.167 1.5 -40.5 4.5s-9.5 9.83301 -9.5 20.5zM0 475c0 10.667 3.16699 17.5 9.5 20.5s19.833 4.5 40.5 4.5s34.167 -1.5 40.5 -4.5s9.5 -9.83301 9.5 -20.5
s-3.16699 -17.5 -9.5 -20.5s-19.833 -4.5 -40.5 -4.5s-34.167 1.5 -40.5 4.5s-9.5 9.83301 -9.5 20.5zM300 575c0 10.667 3.16699 17.5 9.5 20.5s19.833 4.5 40.5 4.5s34.167 -1.5 40.5 -4.5s9.5 -9.83301 9.5 -20.5s-3.16699 -17.5 -9.5 -20.5s-19.833 -4.5 -40.5 -4.5
s-34.167 1.5 -40.5 4.5s-9.5 9.83301 -9.5 20.5zM0 575c0 10.667 3.16699 17.5 9.5 20.5s19.833 4.5 40.5 4.5s34.167 -1.5 40.5 -4.5s9.5 -9.83301 9.5 -20.5s-3.16699 -17.5 -9.5 -20.5s-19.833 -4.5 -40.5 -4.5s-34.167 1.5 -40.5 4.5s-9.5 9.83301 -9.5 20.5zM300 675
c0 10.667 3.16699 17.5 9.5 20.5s19.833 4.5 40.5 4.5s34.167 -1.5 40.5 -4.5s9.5 -9.83301 9.5 -20.5s-3.16699 -17.5 -9.5 -20.5s-19.833 -4.5 -40.5 -4.5s-34.167 1.5 -40.5 4.5s-9.5 9.83301 -9.5 20.5zM0 675c0 10.667 3.16699 17.5 9.5 20.5s19.833 4.5 40.5 4.5
s34.167 -1.5 40.5 -4.5s9.5 -9.83301 9.5 -20.5s-3.16699 -17.5 -9.5 -20.5s-19.833 -4.5 -40.5 -4.5s-34.167 1.5 -40.5 4.5s-9.5 9.83301 -9.5 20.5z" />
    <glyph glyph-name="V" unicode="V" 
d="M150 75c0 10.667 3.16699 17.5 9.5 20.5s19.833 4.5 40.5 4.5s34.167 -1.5 40.5 -4.5s9.5 -9.83301 9.5 -20.5s-3.16699 -17.5 -9.5 -20.5s-19.833 -4.5 -40.5 -4.5s-34.167 1.5 -40.5 4.5s-9.5 9.83301 -9.5 20.5zM100 175c0 11.333 5.33301 18.333 16 21s38.667 4 84 4
s73.333 -1.33301 84 -4s16 -9.66699 16 -21s-5.33301 -18.333 -16 -21s-38.667 -4 -84 -4s-73.333 1.33301 -84 4s-16 9.66699 -16 21zM100 275c0 11.333 5.33301 18.333 16 21s38.667 4 84 4s73.333 -1.33301 84 -4s16 -9.66699 16 -21s-5.33301 -18.333 -16 -21
s-38.667 -4 -84 -4s-73.333 1.33301 -84 4s-16 9.66699 -16 21zM250 375c0 10.667 3.16699 17.5 9.5 20.5s19.833 4.5 40.5 4.5s34.167 -1.5 40.5 -4.5s9.5 -9.83301 9.5 -20.5s-3.16699 -17.5 -9.5 -20.5s-19.833 -4.5 -40.5 -4.5s-34.167 1.5 -40.5 4.5
s-9.5 9.83301 -9.5 20.5zM50 375c0 10.667 3.16699 17.5 9.5 20.5s19.833 4.5 40.5 4.5s34.167 -1.5 40.5 -4.5s9.5 -9.83301 9.5 -20.5s-3.16699 -17.5 -9.5 -20.5s-19.833 -4.5 -40.5 -4.5s-34.167 1.5 -40.5 4.5s-9.5 9.83301 -9.5 20.5zM250 475
c0 10.667 3.16699 17.5 9.5 20.5s19.833 4.5 40.5 4.5s34.167 -1.5 40.5 -4.5s9.5 -9.83301 9.5 -20.5s-3.16699 -17.5 -9.5 -20.5s-19.833 -4.5 -40.5 -4.5s-34.167 1.5 -40.5 4.5s-9.5 9.83301 -9.5 20.5zM50 475c0 10.667 3.16699 17.5 9.5 20.5s19.833 4.5 40.5 4.5
s34.167 -1.5 40.5 -4.5s9.5 -9.83301 9.5 -20.5s-3.16699 -17.5 -9.5 -20.5s-19.833 -4.5 -40.5 -4.5s-34.167 1.5 -40.5 4.5s-9.5 9.83301 -9.5 20.5zM300 575c0 10.667 3.16699 17.5 9.5 20.5s19.833 4.5 40.5 4.5s34.167 -1.5 40.5 -4.5s9.5 -9.83301 9.5 -20.5
s-3.16699 -17.5 -9.5 -20.5s-19.833 -4.5 -40.5 -4.5s-34.167 1.5 -40.5 4.5s-9.5 9.83301 -9.5 20.5zM0 575c0 10.667 3.16699 17.5 9.5 20.5s19.833 4.5 40.5 4.5s34.167 -1.5 40.5 -4.5s9.5 -9.83301 9.5 -20.5s-3.16699 -17.5 -9.5 -20.5s-19.833 -4.5 -40.5 -4.5
s-34.167 1.5 -40.5 4.5s-9.5 9.83301 -9.5 20.5zM300 675c0 10.667 3.16699 17.5 9.5 20.5s19.833 4.5 40.5 4.5s34.167 -1.5 40.5 -4.5s9.5 -9.83301 9.5 -20.5s-3.16699 -17.5 -9.5 -20.5s-19.833 -4.5 -40.5 -4.5s-34.167 1.5 -40.5 4.5s-9.5 9.83301 -9.5 20.5zM0 675
c0 10.667 3.16699 17.5 9.5 20.5s19.833 4.5 40.5 4.5s34.167 -1.5 40.5 -4.5s9.5 -9.83301 9.5 -20.5s-3.16699 -17.5 -9.5 -20.5s-19.833 -4.5 -40.5 -4.5s-34.167 1.5 -40.5 4.5s-9.5 9.83301 -9.5 20.5z" />
    <glyph glyph-name="W" unicode="W" 
d="M250 75c0 10.667 3.16699 17.5 9.5 20.5s19.833 4.5 40.5 4.5s34.167 -1.5 40.5 -4.5s9.5 -9.83301 9.5 -20.5s-3.16699 -17.5 -9.5 -20.5s-19.833 -4.5 -40.5 -4.5s-34.167 1.5 -40.5 4.5s-9.5 9.83301 -9.5 20.5zM50 75c0 10.667 3.16699 17.5 9.5 20.5
s19.833 4.5 40.5 4.5s34.167 -1.5 40.5 -4.5s9.5 -9.83301 9.5 -20.5s-3.16699 -17.5 -9.5 -20.5s-19.833 -4.5 -40.5 -4.5s-34.167 1.5 -40.5 4.5s-9.5 9.83301 -9.5 20.5zM0 175c0 10 5 16.333 15 19c16 4 77.667 6 185 6c115.333 0 179 -3 191 -9c6 -2.66699 9 -8 9 -16
c0 -10 -5 -16.333 -15 -19c-16 -4 -77.667 -6 -185 -6c-115.333 0 -179 3 -191 9c-6 2.66699 -9 8 -9 16zM300 275c0 10.667 3.16699 17.5 9.5 20.5s19.833 4.5 40.5 4.5s34.167 -1.5 40.5 -4.5s9.5 -9.83301 9.5 -20.5s-3.16699 -17.5 -9.5 -20.5s-19.833 -4.5 -40.5 -4.5
s-34.167 1.5 -40.5 4.5s-9.5 9.83301 -9.5 20.5zM150 275c0 10.667 3.16699 17.5 9.5 20.5s19.833 4.5 40.5 4.5s34.167 -1.5 40.5 -4.5s9.5 -9.83301 9.5 -20.5s-3.16699 -17.5 -9.5 -20.5s-19.833 -4.5 -40.5 -4.5s-34.167 1.5 -40.5 4.5s-9.5 9.83301 -9.5 20.5zM0 275
c0 10.667 3.16699 17.5 9.5 20.5s19.833 4.5 40.5 4.5s34.167 -1.5 40.5 -4.5s9.5 -9.83301 9.5 -20.5s-3.16699 -17.5 -9.5 -20.5s-19.833 -4.5 -40.5 -4.5s-34.167 1.5 -40.5 4.5s-9.5 9.83301 -9.5 20.5zM300 375c0 10.667 3.16699 17.5 9.5 20.5s19.833 4.5 40.5 4.5
s34.167 -1.5 40.5 -4.5s9.5 -9.83301 9.5 -20.5s-3.16699 -17.5 -9.5 -20.5s-19.833 -4.5 -40.5 -4.5s-34.167 1.5 -40.5 4.5s-9.5 9.83301 -9.5 20.5zM150 375c0 10.667 3.16699 17.5 9.5 20.5s19.833 4.5 40.5 4.5s34.167 -1.5 40.5 -4.5s9.5 -9.83301 9.5 -20.5
s-3.16699 -17.5 -9.5 -20.5s-19.833 -4.5 -40.5 -4.5s-34.167 1.5 -40.5 4.5s-9.5 9.83301 -9.5 20.5zM0 375c0 10.667 3.16699 17.5 9.5 20.5s19.833 4.5 40.5 4.5s34.167 -1.5 40.5 -4.5s9.5 -9.83301 9.5 -20.5s-3.16699 -17.5 -9.5 -20.5s-19.833 -4.5 -40.5 -4.5
s-34.167 1.5 -40.5 4.5s-9.5 9.83301 -9.5 20.5zM300 475c0 10.667 3.16699 17.5 9.5 20.5s19.833 4.5 40.5 4.5s34.167 -1.5 40.5 -4.5s9.5 -9.83301 9.5 -20.5s-3.16699 -17.5 -9.5 -20.5s-19.833 -4.5 -40.5 -4.5s-34.167 1.5 -40.5 4.5s-9.5 9.83301 -9.5 20.5zM0 475
c0 10.667 3.16699 17.5 9.5 20.5s19.833 4.5 40.5 4.5s34.167 -1.5 40.5 -4.5s9.5 -9.83301 9.5 -20.5s-3.16699 -17.5 -9.5 -20.5s-19.833 -4.5 -40.5 -4.5s-34.167 1.5 -40.5 4.5s-9.5 9.83301 -9.5 20.5zM300 575c0 10.667 3.16699 17.5 9.5 20.5s19.833 4.5 40.5 4.5
s34.167 -1.5 40.5 -4.5s9.5 -9.83301 9.5 -20.5s-3.16699 -17.5 -9.5 -20.5s-19.833 -4.5 -40.5 -4.5s-34.167 1.5 -40.5 4.5s-9.5 9.83301 -9.5 20.5zM0 575c0 10.667 3.16699 17.5 9.5 20.5s19.833 4.5 40.5 4.5s34.167 -1.5 40.5 -4.5s9.5 -9.83301 9.5 -20.5
s-3.16699 -17.5 -9.5 -20.5s-19.833 -4.5 -40.5 -4.5s-34.167 1.5 -40.5 4.5s-9.5 9.83301 -9.5 20.5zM300 675c0 10.667 3.16699 17.5 9.5 20.5s19.833 4.5 40.5 4.5s34.167 -1.5 40.5 -4.5s9.5 -9.83301 9.5 -20.5s-3.16699 -17.5 -9.5 -20.5s-19.833 -4.5 -40.5 -4.5
s-34.167 1.5 -40.5 4.5s-9.5 9.83301 -9.5 20.5zM0 675c0 10.667 3.16699 17.5 9.5 20.5s19.833 4.5 40.5 4.5s34.167 -1.5 40.5 -4.5s9.5 -9.83301 9.5 -20.5s-3.16699 -17.5 -9.5 -20.5s-19.833 -4.5 -40.5 -4.5s-34.167 1.5 -40.5 4.5s-9.5 9.83301 -9.5 20.5z" />
    <glyph glyph-name="X" unicode="X" 
d="M300 75c0 10.667 3.16699 17.5 9.5 20.5s19.833 4.5 40.5 4.5s34.167 -1.5 40.5 -4.5s9.5 -9.83301 9.5 -20.5s-3.16699 -17.5 -9.5 -20.5s-19.833 -4.5 -40.5 -4.5s-34.167 1.5 -40.5 4.5s-9.5 9.83301 -9.5 20.5zM0 75c0 10.667 3.16699 17.5 9.5 20.5
s19.833 4.5 40.5 4.5s34.167 -1.5 40.5 -4.5s9.5 -9.83301 9.5 -20.5s-3.16699 -17.5 -9.5 -20.5s-19.833 -4.5 -40.5 -4.5s-34.167 1.5 -40.5 4.5s-9.5 9.83301 -9.5 20.5zM250 175c0 10.667 3.16699 17.5 9.5 20.5s19.833 4.5 40.5 4.5s34.167 -1.5 40.5 -4.5
s9.5 -9.83301 9.5 -20.5s-3.16699 -17.5 -9.5 -20.5s-19.833 -4.5 -40.5 -4.5s-34.167 1.5 -40.5 4.5s-9.5 9.83301 -9.5 20.5zM50 175c0 10.667 3.16699 17.5 9.5 20.5s19.833 4.5 40.5 4.5s34.167 -1.5 40.5 -4.5s9.5 -9.83301 9.5 -20.5s-3.16699 -17.5 -9.5 -20.5
s-19.833 -4.5 -40.5 -4.5s-34.167 1.5 -40.5 4.5s-9.5 9.83301 -9.5 20.5zM100 275c0 11.333 5.33301 18.333 16 21s38.667 4 84 4s73.333 -1.33301 84 -4s16 -9.66699 16 -21s-5.33301 -18.333 -16 -21s-38.667 -4 -84 -4s-73.333 1.33301 -84 4s-16 9.66699 -16 21z
M150 375c0 10.667 3.16699 17.5 9.5 20.5s19.833 4.5 40.5 4.5s34.167 -1.5 40.5 -4.5s9.5 -9.83301 9.5 -20.5s-3.16699 -17.5 -9.5 -20.5s-19.833 -4.5 -40.5 -4.5s-34.167 1.5 -40.5 4.5s-9.5 9.83301 -9.5 20.5zM100 475c0 11.333 5.33301 18.333 16 21s38.667 4 84 4
s73.333 -1.33301 84 -4s16 -9.66699 16 -21s-5.33301 -18.333 -16 -21s-38.667 -4 -84 -4s-73.333 1.33301 -84 4s-16 9.66699 -16 21zM250 575c0 10.667 3.16699 17.5 9.5 20.5s19.833 4.5 40.5 4.5s34.167 -1.5 40.5 -4.5s9.5 -9.83301 9.5 -20.5
s-3.16699 -17.5 -9.5 -20.5s-19.833 -4.5 -40.5 -4.5s-34.167 1.5 -40.5 4.5s-9.5 9.83301 -9.5 20.5zM50 575c0 10.667 3.16699 17.5 9.5 20.5s19.833 4.5 40.5 4.5s34.167 -1.5 40.5 -4.5s9.5 -9.83301 9.5 -20.5s-3.16699 -17.5 -9.5 -20.5s-19.833 -4.5 -40.5 -4.5
s-34.167 1.5 -40.5 4.5s-9.5 9.83301 -9.5 20.5zM300 675c0 10.667 3.16699 17.5 9.5 20.5s19.833 4.5 40.5 4.5s34.167 -1.5 40.5 -4.5s9.5 -9.83301 9.5 -20.5s-3.16699 -17.5 -9.5 -20.5s-19.833 -4.5 -40.5 -4.5s-34.167 1.5 -40.5 4.5s-9.5 9.83301 -9.5 20.5zM0 675
c0 10.667 3.16699 17.5 9.5 20.5s19.833 4.5 40.5 4.5s34.167 -1.5 40.5 -4.5s9.5 -9.83301 9.5 -20.5s-3.16699 -17.5 -9.5 -20.5s-19.833 -4.5 -40.5 -4.5s-34.167 1.5 -40.5 4.5s-9.5 9.83301 -9.5 20.5z" />
    <glyph glyph-name="Y" unicode="Y" 
d="M150 75c0 10.667 3.16699 17.5 9.5 20.5s19.833 4.5 40.5 4.5s34.167 -1.5 40.5 -4.5s9.5 -9.83301 9.5 -20.5s-3.16699 -17.5 -9.5 -20.5s-19.833 -4.5 -40.5 -4.5s-34.167 1.5 -40.5 4.5s-9.5 9.83301 -9.5 20.5zM150 175c0 10.667 3.16699 17.5 9.5 20.5
s19.833 4.5 40.5 4.5s34.167 -1.5 40.5 -4.5s9.5 -9.83301 9.5 -20.5s-3.16699 -17.5 -9.5 -20.5s-19.833 -4.5 -40.5 -4.5s-34.167 1.5 -40.5 4.5s-9.5 9.83301 -9.5 20.5zM150 275c0 10.667 3.16699 17.5 9.5 20.5s19.833 4.5 40.5 4.5s34.167 -1.5 40.5 -4.5
s9.5 -9.83301 9.5 -20.5s-3.16699 -17.5 -9.5 -20.5s-19.833 -4.5 -40.5 -4.5s-34.167 1.5 -40.5 4.5s-9.5 9.83301 -9.5 20.5zM150 375c0 10.667 3.16699 17.5 9.5 20.5s19.833 4.5 40.5 4.5s34.167 -1.5 40.5 -4.5s9.5 -9.83301 9.5 -20.5s-3.16699 -17.5 -9.5 -20.5
s-19.833 -4.5 -40.5 -4.5s-34.167 1.5 -40.5 4.5s-9.5 9.83301 -9.5 20.5zM100 475c0 11.333 5.33301 18.333 16 21s38.667 4 84 4s73.333 -1.33301 84 -4s16 -9.66699 16 -21s-5.33301 -18.333 -16 -21s-38.667 -4 -84 -4s-73.333 1.33301 -84 4s-16 9.66699 -16 21z
M250 575c0 10.667 3.16699 17.5 9.5 20.5s19.833 4.5 40.5 4.5s34.167 -1.5 40.5 -4.5s9.5 -9.83301 9.5 -20.5s-3.16699 -17.5 -9.5 -20.5s-19.833 -4.5 -40.5 -4.5s-34.167 1.5 -40.5 4.5s-9.5 9.83301 -9.5 20.5zM50 575c0 10.667 3.16699 17.5 9.5 20.5
s19.833 4.5 40.5 4.5s34.167 -1.5 40.5 -4.5s9.5 -9.83301 9.5 -20.5s-3.16699 -17.5 -9.5 -20.5s-19.833 -4.5 -40.5 -4.5s-34.167 1.5 -40.5 4.5s-9.5 9.83301 -9.5 20.5zM300 675c0 10.667 3.16699 17.5 9.5 20.5s19.833 4.5 40.5 4.5s34.167 -1.5 40.5 -4.5
s9.5 -9.83301 9.5 -20.5s-3.16699 -17.5 -9.5 -20.5s-19.833 -4.5 -40.5 -4.5s-34.167 1.5 -40.5 4.5s-9.5 9.83301 -9.5 20.5zM0 675c0 10.667 3.16699 17.5 9.5 20.5s19.833 4.5 40.5 4.5s34.167 -1.5 40.5 -4.5s9.5 -9.83301 9.5 -20.5s-3.16699 -17.5 -9.5 -20.5
s-19.833 -4.5 -40.5 -4.5s-34.167 1.5 -40.5 4.5s-9.5 9.83301 -9.5 20.5z" />
    <glyph glyph-name="Z" unicode="Z" 
d="M0 75c0 10 5 16.333 15 19c16 4 77.667 6 185 6c115.333 0 179 -3 191 -9c6 -2.66699 9 -8 9 -16c0 -10 -5 -16.333 -15 -19c-16 -4 -77.667 -6 -185 -6c-115.333 0 -179 3 -191 9c-6 2.66699 -9 8 -9 16zM50 175c0 10.667 3.16699 17.5 9.5 20.5s19.833 4.5 40.5 4.5
s34.167 -1.5 40.5 -4.5s9.5 -9.83301 9.5 -20.5s-3.16699 -17.5 -9.5 -20.5s-19.833 -4.5 -40.5 -4.5s-34.167 1.5 -40.5 4.5s-9.5 9.83301 -9.5 20.5zM100 275c0 10.667 3.16699 17.5 9.5 20.5s19.833 4.5 40.5 4.5s34.167 -1.5 40.5 -4.5s9.5 -9.83301 9.5 -20.5
s-3.16699 -17.5 -9.5 -20.5s-19.833 -4.5 -40.5 -4.5s-34.167 1.5 -40.5 4.5s-9.5 9.83301 -9.5 20.5zM150 375c0 10.667 3.16699 17.5 9.5 20.5s19.833 4.5 40.5 4.5s34.167 -1.5 40.5 -4.5s9.5 -9.83301 9.5 -20.5s-3.16699 -17.5 -9.5 -20.5s-19.833 -4.5 -40.5 -4.5
s-34.167 1.5 -40.5 4.5s-9.5 9.83301 -9.5 20.5zM200 475c0 10.667 3.16699 17.5 9.5 20.5s19.833 4.5 40.5 4.5s34.167 -1.5 40.5 -4.5s9.5 -9.83301 9.5 -20.5s-3.16699 -17.5 -9.5 -20.5s-19.833 -4.5 -40.5 -4.5s-34.167 1.5 -40.5 4.5s-9.5 9.83301 -9.5 20.5zM250 575
c0 10.667 3.16699 17.5 9.5 20.5s19.833 4.5 40.5 4.5s34.167 -1.5 40.5 -4.5s9.5 -9.83301 9.5 -20.5s-3.16699 -17.5 -9.5 -20.5s-19.833 -4.5 -40.5 -4.5s-34.167 1.5 -40.5 4.5s-9.5 9.83301 -9.5 20.5zM0 675c0 10 5 16.333 15 19c16 4 77.667 6 185 6
c115.333 0 179 -3 191 -9c6 -2.66699 9 -8 9 -16c0 -10 -5 -16.333 -15 -19c-16 -4 -77.667 -6 -185 -6c-115.333 0 -179 3 -191 9c-6 2.66699 -9 8 -9 16z" />
    <glyph glyph-name="bracketleft" unicode="[" 
d="M100 75c0 6 0.833008 10.5 2.5 13.5s7.33398 5.5 17.001 7.5s21.834 3.16699 36.501 3.5s37.667 0.5 69 0.5s54.333 -0.166992 69 -0.5s26.834 -1.5 36.501 -3.5s15.334 -4.5 17.001 -7.5s2.5 -7.5 2.5 -13.5s-0.833008 -10.5 -2.5 -13.5s-7.33398 -5.5 -17.001 -7.5
s-21.834 -3.16699 -36.501 -3.5s-37.667 -0.5 -69 -0.5s-54.333 0.166992 -69 0.5s-26.834 1.5 -36.501 3.5s-15.334 4.5 -17.001 7.5s-2.5 7.5 -2.5 13.5zM100 175c0 10.667 3.16699 17.5 9.5 20.5s19.833 4.5 40.5 4.5s34.167 -1.5 40.5 -4.5s9.5 -9.83301 9.5 -20.5
s-3.16699 -17.5 -9.5 -20.5s-19.833 -4.5 -40.5 -4.5s-34.167 1.5 -40.5 4.5s-9.5 9.83301 -9.5 20.5zM100 275c0 10.667 3.16699 17.5 9.5 20.5s19.833 4.5 40.5 4.5s34.167 -1.5 40.5 -4.5s9.5 -9.83301 9.5 -20.5s-3.16699 -17.5 -9.5 -20.5s-19.833 -4.5 -40.5 -4.5
s-34.167 1.5 -40.5 4.5s-9.5 9.83301 -9.5 20.5zM100 375c0 10.667 3.16699 17.5 9.5 20.5s19.833 4.5 40.5 4.5s34.167 -1.5 40.5 -4.5s9.5 -9.83301 9.5 -20.5s-3.16699 -17.5 -9.5 -20.5s-19.833 -4.5 -40.5 -4.5s-34.167 1.5 -40.5 4.5s-9.5 9.83301 -9.5 20.5zM100 475
c0 10.667 3.16699 17.5 9.5 20.5s19.833 4.5 40.5 4.5s34.167 -1.5 40.5 -4.5s9.5 -9.83301 9.5 -20.5s-3.16699 -17.5 -9.5 -20.5s-19.833 -4.5 -40.5 -4.5s-34.167 1.5 -40.5 4.5s-9.5 9.83301 -9.5 20.5zM100 575c0 10.667 3.16699 17.5 9.5 20.5s19.833 4.5 40.5 4.5
s34.167 -1.5 40.5 -4.5s9.5 -9.83301 9.5 -20.5s-3.16699 -17.5 -9.5 -20.5s-19.833 -4.5 -40.5 -4.5s-34.167 1.5 -40.5 4.5s-9.5 9.83301 -9.5 20.5zM100 675c0 6 0.833008 10.5 2.5 13.5s7.33398 5.5 17.001 7.5s21.834 3.16699 36.501 3.5s37.667 0.5 69 0.5
s54.333 -0.166992 69 -0.5s26.834 -1.5 36.501 -3.5s15.334 -4.5 17.001 -7.5s2.5 -7.5 2.5 -13.5s-0.833008 -10.5 -2.5 -13.5s-7.33398 -5.5 -17.001 -7.5s-21.834 -3.16699 -36.501 -3.5s-37.667 -0.5 -69 -0.5s-54.333 0.166992 -69 0.5s-26.834 1.5 -36.501 3.5
s-15.334 4.5 -17.001 7.5s-2.5 7.5 -2.5 13.5z" />
    <glyph glyph-name="backslash" unicode="\" 
d="M300 75c0 10.667 3.16699 17.5 9.5 20.5s19.833 4.5 40.5 4.5s34.167 -1.5 40.5 -4.5s9.5 -9.83301 9.5 -20.5s-3.16699 -17.5 -9.5 -20.5s-19.833 -4.5 -40.5 -4.5s-34.167 1.5 -40.5 4.5s-9.5 9.83301 -9.5 20.5zM250 175c0 10.667 3.16699 17.5 9.5 20.5
s19.833 4.5 40.5 4.5s34.167 -1.5 40.5 -4.5s9.5 -9.83301 9.5 -20.5s-3.16699 -17.5 -9.5 -20.5s-19.833 -4.5 -40.5 -4.5s-34.167 1.5 -40.5 4.5s-9.5 9.83301 -9.5 20.5zM200 275c0 10.667 3.16699 17.5 9.5 20.5s19.833 4.5 40.5 4.5s34.167 -1.5 40.5 -4.5
s9.5 -9.83301 9.5 -20.5s-3.16699 -17.5 -9.5 -20.5s-19.833 -4.5 -40.5 -4.5s-34.167 1.5 -40.5 4.5s-9.5 9.83301 -9.5 20.5zM150 375c0 10.667 3.16699 17.5 9.5 20.5s19.833 4.5 40.5 4.5s34.167 -1.5 40.5 -4.5s9.5 -9.83301 9.5 -20.5s-3.16699 -17.5 -9.5 -20.5
s-19.833 -4.5 -40.5 -4.5s-34.167 1.5 -40.5 4.5s-9.5 9.83301 -9.5 20.5zM100 475c0 10.667 3.16699 17.5 9.5 20.5s19.833 4.5 40.5 4.5s34.167 -1.5 40.5 -4.5s9.5 -9.83301 9.5 -20.5s-3.16699 -17.5 -9.5 -20.5s-19.833 -4.5 -40.5 -4.5s-34.167 1.5 -40.5 4.5
s-9.5 9.83301 -9.5 20.5zM50 575c0 10.667 3.16699 17.5 9.5 20.5s19.833 4.5 40.5 4.5s34.167 -1.5 40.5 -4.5s9.5 -9.83301 9.5 -20.5s-3.16699 -17.5 -9.5 -20.5s-19.833 -4.5 -40.5 -4.5s-34.167 1.5 -40.5 4.5s-9.5 9.83301 -9.5 20.5zM0 675
c0 10.667 3.16699 17.5 9.5 20.5s19.833 4.5 40.5 4.5s34.167 -1.5 40.5 -4.5s9.5 -9.83301 9.5 -20.5s-3.16699 -17.5 -9.5 -20.5s-19.833 -4.5 -40.5 -4.5s-34.167 1.5 -40.5 4.5s-9.5 9.83301 -9.5 20.5z" />
    <glyph glyph-name="bracketright" unicode="]" 
d="M50 75c0 6 0.833008 10.5 2.5 13.5s7.33398 5.5 17.001 7.5s21.834 3.16699 36.501 3.5s37.667 0.5 69 0.5s54.333 -0.166992 69 -0.5s26.834 -1.5 36.501 -3.5s15.334 -4.5 17.001 -7.5s2.5 -7.5 2.5 -13.5s-0.833008 -10.5 -2.5 -13.5s-7.33398 -5.5 -17.001 -7.5
s-21.834 -3.16699 -36.501 -3.5s-37.667 -0.5 -69 -0.5s-54.333 0.166992 -69 0.5s-26.834 1.5 -36.501 3.5s-15.334 4.5 -17.001 7.5s-2.5 7.5 -2.5 13.5zM200 175c0 10.667 3.16699 17.5 9.5 20.5s19.833 4.5 40.5 4.5s34.167 -1.5 40.5 -4.5s9.5 -9.83301 9.5 -20.5
s-3.16699 -17.5 -9.5 -20.5s-19.833 -4.5 -40.5 -4.5s-34.167 1.5 -40.5 4.5s-9.5 9.83301 -9.5 20.5zM200 275c0 10.667 3.16699 17.5 9.5 20.5s19.833 4.5 40.5 4.5s34.167 -1.5 40.5 -4.5s9.5 -9.83301 9.5 -20.5s-3.16699 -17.5 -9.5 -20.5s-19.833 -4.5 -40.5 -4.5
s-34.167 1.5 -40.5 4.5s-9.5 9.83301 -9.5 20.5zM200 375c0 10.667 3.16699 17.5 9.5 20.5s19.833 4.5 40.5 4.5s34.167 -1.5 40.5 -4.5s9.5 -9.83301 9.5 -20.5s-3.16699 -17.5 -9.5 -20.5s-19.833 -4.5 -40.5 -4.5s-34.167 1.5 -40.5 4.5s-9.5 9.83301 -9.5 20.5zM200 475
c0 10.667 3.16699 17.5 9.5 20.5s19.833 4.5 40.5 4.5s34.167 -1.5 40.5 -4.5s9.5 -9.83301 9.5 -20.5s-3.16699 -17.5 -9.5 -20.5s-19.833 -4.5 -40.5 -4.5s-34.167 1.5 -40.5 4.5s-9.5 9.83301 -9.5 20.5zM200 575c0 10.667 3.16699 17.5 9.5 20.5s19.833 4.5 40.5 4.5
s34.167 -1.5 40.5 -4.5s9.5 -9.83301 9.5 -20.5s-3.16699 -17.5 -9.5 -20.5s-19.833 -4.5 -40.5 -4.5s-34.167 1.5 -40.5 4.5s-9.5 9.83301 -9.5 20.5zM50 675c0 6 0.833008 10.5 2.5 13.5s7.33398 5.5 17.001 7.5s21.834 3.16699 36.501 3.5s37.667 0.5 69 0.5
s54.333 -0.166992 69 -0.5s26.834 -1.5 36.501 -3.5s15.334 -4.5 17.001 -7.5s2.5 -7.5 2.5 -13.5s-0.833008 -10.5 -2.5 -13.5s-7.33398 -5.5 -17.001 -7.5s-21.834 -3.16699 -36.501 -3.5s-37.667 -0.5 -69 -0.5s-54.333 0.166992 -69 0.5s-26.834 1.5 -36.501 3.5
s-15.334 4.5 -17.001 7.5s-2.5 7.5 -2.5 13.5z" />
    <glyph glyph-name="asciicircum" unicode="^" 
d="M300 375c0 10.667 3.16699 17.5 9.5 20.5s19.833 4.5 40.5 4.5s34.167 -1.5 40.5 -4.5s9.5 -9.83301 9.5 -20.5s-3.16699 -17.5 -9.5 -20.5s-19.833 -4.5 -40.5 -4.5s-34.167 1.5 -40.5 4.5s-9.5 9.83301 -9.5 20.5zM0 375c0 10.667 3.16699 17.5 9.5 20.5
s19.833 4.5 40.5 4.5s34.167 -1.5 40.5 -4.5s9.5 -9.83301 9.5 -20.5s-3.16699 -17.5 -9.5 -20.5s-19.833 -4.5 -40.5 -4.5s-34.167 1.5 -40.5 4.5s-9.5 9.83301 -9.5 20.5zM250 475c0 10.667 3.16699 17.5 9.5 20.5s19.833 4.5 40.5 4.5s34.167 -1.5 40.5 -4.5
s9.5 -9.83301 9.5 -20.5s-3.16699 -17.5 -9.5 -20.5s-19.833 -4.5 -40.5 -4.5s-34.167 1.5 -40.5 4.5s-9.5 9.83301 -9.5 20.5zM50 475c0 10.667 3.16699 17.5 9.5 20.5s19.833 4.5 40.5 4.5s34.167 -1.5 40.5 -4.5s9.5 -9.83301 9.5 -20.5s-3.16699 -17.5 -9.5 -20.5
s-19.833 -4.5 -40.5 -4.5s-34.167 1.5 -40.5 4.5s-9.5 9.83301 -9.5 20.5zM100 575c0 11.333 5.33301 18.333 16 21s38.667 4 84 4s73.333 -1.33301 84 -4s16 -9.66699 16 -21s-5.33301 -18.333 -16 -21s-38.667 -4 -84 -4s-73.333 1.33301 -84 4s-16 9.66699 -16 21z
M150 675c0 10.667 3.16699 17.5 9.5 20.5s19.833 4.5 40.5 4.5s34.167 -1.5 40.5 -4.5s9.5 -9.83301 9.5 -20.5s-3.16699 -17.5 -9.5 -20.5s-19.833 -4.5 -40.5 -4.5s-34.167 1.5 -40.5 4.5s-9.5 9.83301 -9.5 20.5z" />
    <glyph glyph-name="underscore" unicode="_" 
d="M0 75c0 10 5 16.333 15 19c16 4 77.667 6 185 6c115.333 0 179 -3 191 -9c6 -2.66699 9 -8 9 -16c0 -10 -5 -16.333 -15 -19c-16 -4 -77.667 -6 -185 -6c-115.333 0 -179 3 -191 9c-6 2.66699 -9 8 -9 16z" />
    <glyph glyph-name="grave" unicode="`" 
d="M200 475c0 10.667 3.16699 17.5 9.5 20.5s19.833 4.5 40.5 4.5s34.167 -1.5 40.5 -4.5s9.5 -9.83301 9.5 -20.5s-3.16699 -17.5 -9.5 -20.5s-19.833 -4.5 -40.5 -4.5s-34.167 1.5 -40.5 4.5s-9.5 9.83301 -9.5 20.5zM150 575c0 10.667 3.16699 17.5 9.5 20.5
s19.833 4.5 40.5 4.5s34.167 -1.5 40.5 -4.5s9.5 -9.83301 9.5 -20.5s-3.16699 -17.5 -9.5 -20.5s-19.833 -4.5 -40.5 -4.5s-34.167 1.5 -40.5 4.5s-9.5 9.83301 -9.5 20.5zM100 675c0 11.333 4.33301 18.333 13 21s29.334 4 62.001 4s53.334 -1.33301 62.001 -4
s13 -9.66699 13 -21s-4.33301 -18.333 -13 -21s-29.334 -4 -62.001 -4s-53.334 1.33301 -62.001 4s-13 9.66699 -13 21z" />
    <glyph glyph-name="a" unicode="a" 
d="M50 75c0 10 5 16.333 15 19c14.667 4 68 6 160 6c100.667 0 156.334 -3 167.001 -9c5.33301 -2.66699 8 -8 8 -16c0 -10 -5 -16.333 -15 -19c-14.667 -4 -68 -6 -160 -6c-100.667 0 -156.334 3 -167.001 9c-5.33301 2.66699 -8 8 -8 16zM250 175
c0 11.333 4.33301 18.333 13 21s29.334 4 62.001 4c33.333 0 54.166 -1.33301 62.499 -4s12.5 -9.66699 12.5 -21s-4.16699 -18.333 -12.5 -21s-29.166 -4 -62.499 -4c-32.667 0 -53.334 1.33301 -62.001 4s-13 9.66699 -13 21zM0 175c0 10.667 3.16699 17.5 9.5 20.5
s19.833 4.5 40.5 4.5s34.167 -1.5 40.5 -4.5s9.5 -9.83301 9.5 -20.5s-3.16699 -17.5 -9.5 -20.5s-19.833 -4.5 -40.5 -4.5s-34.167 1.5 -40.5 4.5s-9.5 9.83301 -9.5 20.5zM50 275c0 10 5 16.333 15 19c14.667 4 68 6 160 6c100.667 0 156.334 -3 167.001 -9
c5.33301 -2.66699 8 -8 8 -16c0 -10 -5 -16.333 -15 -19c-14.667 -4 -68 -6 -160 -6c-100.667 0 -156.334 3 -167.001 9c-5.33301 2.66699 -8 8 -8 16zM300 375c0 10.667 3.16699 17.5 9.5 20.5s19.833 4.5 40.5 4.5s34.167 -1.5 40.5 -4.5s9.5 -9.83301 9.5 -20.5
s-3.16699 -17.5 -9.5 -20.5s-19.833 -4.5 -40.5 -4.5s-34.167 1.5 -40.5 4.5s-9.5 9.83301 -9.5 20.5zM50 475c0 10.667 5 17.334 15 20.001c12.667 3.33301 57.667 5 135 5c86 0 133.667 -3 143 -9c4.66699 -2.66699 7 -8 7 -16c0 -10.667 -5 -17.334 -15 -20.001
c-12.667 -3.33301 -57.667 -5 -135 -5c-86 0 -133.667 3 -143 9c-4.66699 2.66699 -7 8 -7 16z" />
    <glyph glyph-name="b" unicode="b" 
d="M0 75c0 10 5 16.333 15 19c14.667 4 68 6 160 6c100.667 0 156.334 -3 167.001 -9c5.33301 -2.66699 8 -8 8 -16c0 -10 -5 -16.333 -15 -19c-14.667 -4 -68 -6 -160 -6c-100.667 0 -156.334 3 -167.001 9c-5.33301 2.66699 -8 8 -8 16zM300 175
c0 10.667 3.16699 17.5 9.5 20.5s19.833 4.5 40.5 4.5s34.167 -1.5 40.5 -4.5s9.5 -9.83301 9.5 -20.5s-3.16699 -17.5 -9.5 -20.5s-19.833 -4.5 -40.5 -4.5s-34.167 1.5 -40.5 4.5s-9.5 9.83301 -9.5 20.5zM0 175c0 11.333 4.33301 18.333 13 21s29.334 4 62.001 4
s53.334 -1.33301 62.001 -4s13 -9.66699 13 -21s-4.33301 -18.333 -13 -21s-29.334 -4 -62.001 -4s-53.334 1.33301 -62.001 4s-13 9.66699 -13 21zM300 275c0 10.667 3.16699 17.5 9.5 20.5s19.833 4.5 40.5 4.5s34.167 -1.5 40.5 -4.5s9.5 -9.83301 9.5 -20.5
s-3.16699 -17.5 -9.5 -20.5s-19.833 -4.5 -40.5 -4.5s-34.167 1.5 -40.5 4.5s-9.5 9.83301 -9.5 20.5zM0 275c0 10.667 3.16699 17.5 9.5 20.5s19.833 4.5 40.5 4.5s34.167 -1.5 40.5 -4.5s9.5 -9.83301 9.5 -20.5s-3.16699 -17.5 -9.5 -20.5s-19.833 -4.5 -40.5 -4.5
s-34.167 1.5 -40.5 4.5s-9.5 9.83301 -9.5 20.5zM300 375c0 10.667 3.16699 17.5 9.5 20.5s19.833 4.5 40.5 4.5s34.167 -1.5 40.5 -4.5s9.5 -9.83301 9.5 -20.5s-3.16699 -17.5 -9.5 -20.5s-19.833 -4.5 -40.5 -4.5s-34.167 1.5 -40.5 4.5s-9.5 9.83301 -9.5 20.5zM0 375
c0 11.333 4.33301 18.333 13 21s29.334 4 62.001 4s53.334 -1.33301 62.001 -4s13 -9.66699 13 -21s-4.33301 -18.333 -13 -21s-29.334 -4 -62.001 -4s-53.334 1.33301 -62.001 4s-13 9.66699 -13 21zM0 475c0 10 5 16.333 15 19c14.667 4 68 6 160 6
c100.667 0 156.334 -3 167.001 -9c5.33301 -2.66699 8 -8 8 -16c0 -10 -5 -16.333 -15 -19c-14.667 -4 -68 -6 -160 -6c-100.667 0 -156.334 3 -167.001 9c-5.33301 2.66699 -8 8 -8 16zM0 575c0 10.667 3.16699 17.5 9.5 20.5s19.833 4.5 40.5 4.5s34.167 -1.5 40.5 -4.5
s9.5 -9.83301 9.5 -20.5s-3.16699 -17.5 -9.5 -20.5s-19.833 -4.5 -40.5 -4.5s-34.167 1.5 -40.5 4.5s-9.5 9.83301 -9.5 20.5zM0 675c0 10.667 3.16699 17.5 9.5 20.5s19.833 4.5 40.5 4.5s34.167 -1.5 40.5 -4.5s9.5 -9.83301 9.5 -20.5s-3.16699 -17.5 -9.5 -20.5
s-19.833 -4.5 -40.5 -4.5s-34.167 1.5 -40.5 4.5s-9.5 9.83301 -9.5 20.5z" />
    <glyph glyph-name="c" unicode="c" 
d="M50 75c0 10 5 16.333 15 19c14.667 4 68 6 160 6c100.667 0 156.334 -3 167.001 -9c5.33301 -2.66699 8 -8 8 -16c0 -10 -5 -16.333 -15 -19c-14.667 -4 -68 -6 -160 -6c-100.667 0 -156.334 3 -167.001 9c-5.33301 2.66699 -8 8 -8 16zM0 175
c0 10.667 3.16699 17.5 9.5 20.5s19.833 4.5 40.5 4.5s34.167 -1.5 40.5 -4.5s9.5 -9.83301 9.5 -20.5s-3.16699 -17.5 -9.5 -20.5s-19.833 -4.5 -40.5 -4.5s-34.167 1.5 -40.5 4.5s-9.5 9.83301 -9.5 20.5zM0 275c0 10.667 3.16699 17.5 9.5 20.5s19.833 4.5 40.5 4.5
s34.167 -1.5 40.5 -4.5s9.5 -9.83301 9.5 -20.5s-3.16699 -17.5 -9.5 -20.5s-19.833 -4.5 -40.5 -4.5s-34.167 1.5 -40.5 4.5s-9.5 9.83301 -9.5 20.5zM300 375c0 10.667 3.16699 17.5 9.5 20.5s19.833 4.5 40.5 4.5s34.167 -1.5 40.5 -4.5s9.5 -9.83301 9.5 -20.5
s-3.16699 -17.5 -9.5 -20.5s-19.833 -4.5 -40.5 -4.5s-34.167 1.5 -40.5 4.5s-9.5 9.83301 -9.5 20.5zM0 375c0 10.667 3.16699 17.5 9.5 20.5s19.833 4.5 40.5 4.5s34.167 -1.5 40.5 -4.5s9.5 -9.83301 9.5 -20.5s-3.16699 -17.5 -9.5 -20.5s-19.833 -4.5 -40.5 -4.5
s-34.167 1.5 -40.5 4.5s-9.5 9.83301 -9.5 20.5zM50 475c0 10.667 5 17.334 15 20.001c12.667 3.33301 57.667 5 135 5c86 0 133.667 -3 143 -9c4.66699 -2.66699 7 -8 7 -16c0 -10.667 -5 -17.334 -15 -20.001c-12.667 -3.33301 -57.667 -5 -135 -5
c-86 0 -133.667 3 -143 9c-4.66699 2.66699 -7 8 -7 16z" />
    <glyph glyph-name="d" unicode="d" 
d="M50 75c0 10 5 16.333 15 19c14.667 4 68 6 160 6c100.667 0 156.334 -3 167.001 -9c5.33301 -2.66699 8 -8 8 -16c0 -10 -5 -16.333 -15 -19c-14.667 -4 -68 -6 -160 -6c-100.667 0 -156.334 3 -167.001 9c-5.33301 2.66699 -8 8 -8 16zM250 175
c0 11.333 4.33301 18.333 13 21s29.334 4 62.001 4c33.333 0 54.166 -1.33301 62.499 -4s12.5 -9.66699 12.5 -21s-4.16699 -18.333 -12.5 -21s-29.166 -4 -62.499 -4c-32.667 0 -53.334 1.33301 -62.001 4s-13 9.66699 -13 21zM0 175c0 10.667 3.16699 17.5 9.5 20.5
s19.833 4.5 40.5 4.5s34.167 -1.5 40.5 -4.5s9.5 -9.83301 9.5 -20.5s-3.16699 -17.5 -9.5 -20.5s-19.833 -4.5 -40.5 -4.5s-34.167 1.5 -40.5 4.5s-9.5 9.83301 -9.5 20.5zM300 275c0 10.667 3.16699 17.5 9.5 20.5s19.833 4.5 40.5 4.5s34.167 -1.5 40.5 -4.5
s9.5 -9.83301 9.5 -20.5s-3.16699 -17.5 -9.5 -20.5s-19.833 -4.5 -40.5 -4.5s-34.167 1.5 -40.5 4.5s-9.5 9.83301 -9.5 20.5zM0 275c0 10.667 3.16699 17.5 9.5 20.5s19.833 4.5 40.5 4.5s34.167 -1.5 40.5 -4.5s9.5 -9.83301 9.5 -20.5s-3.16699 -17.5 -9.5 -20.5
s-19.833 -4.5 -40.5 -4.5s-34.167 1.5 -40.5 4.5s-9.5 9.83301 -9.5 20.5zM250 375c0 11.333 4.33301 18.333 13 21s29.334 4 62.001 4c33.333 0 54.166 -1.33301 62.499 -4s12.5 -9.66699 12.5 -21s-4.16699 -18.333 -12.5 -21s-29.166 -4 -62.499 -4
c-32.667 0 -53.334 1.33301 -62.001 4s-13 9.66699 -13 21zM0 375c0 10.667 3.16699 17.5 9.5 20.5s19.833 4.5 40.5 4.5s34.167 -1.5 40.5 -4.5s9.5 -9.83301 9.5 -20.5s-3.16699 -17.5 -9.5 -20.5s-19.833 -4.5 -40.5 -4.5s-34.167 1.5 -40.5 4.5s-9.5 9.83301 -9.5 20.5z
M50 475c0 10 5 16.333 15 19c14.667 4 68 6 160 6c100.667 0 156.334 -3 167.001 -9c5.33301 -2.66699 8 -8 8 -16c0 -10 -5 -16.333 -15 -19c-14.667 -4 -68 -6 -160 -6c-100.667 0 -156.334 3 -167.001 9c-5.33301 2.66699 -8 8 -8 16zM300 575
c0 10.667 3.16699 17.5 9.5 20.5s19.833 4.5 40.5 4.5s34.167 -1.5 40.5 -4.5s9.5 -9.83301 9.5 -20.5s-3.16699 -17.5 -9.5 -20.5s-19.833 -4.5 -40.5 -4.5s-34.167 1.5 -40.5 4.5s-9.5 9.83301 -9.5 20.5zM300 675c0 10.667 3.16699 17.5 9.5 20.5s19.833 4.5 40.5 4.5
s34.167 -1.5 40.5 -4.5s9.5 -9.83301 9.5 -20.5s-3.16699 -17.5 -9.5 -20.5s-19.833 -4.5 -40.5 -4.5s-34.167 1.5 -40.5 4.5s-9.5 9.83301 -9.5 20.5z" />
    <glyph glyph-name="e" unicode="e" 
d="M50 75c0 10.667 5 17.334 15 20.001c12.667 3.33301 57.667 5 135 5c86 0 133.667 -3 143 -9c4.66699 -2.66699 7 -8 7 -16c0 -10.667 -5 -17.334 -15 -20.001c-12.667 -3.33301 -57.667 -5 -135 -5c-86 0 -133.667 3 -143 9c-4.66699 2.66699 -7 8 -7 16zM0 175
c0 10.667 3.16699 17.5 9.5 20.5s19.833 4.5 40.5 4.5s34.167 -1.5 40.5 -4.5s9.5 -9.83301 9.5 -20.5s-3.16699 -17.5 -9.5 -20.5s-19.833 -4.5 -40.5 -4.5s-34.167 1.5 -40.5 4.5s-9.5 9.83301 -9.5 20.5zM0 275c0 10 5 16.333 15 19c16 4 77.667 6 185 6
c115.333 0 179 -3 191 -9c6 -2.66699 9 -8 9 -16c0 -10 -5 -16.333 -15 -19c-16 -4 -77.667 -6 -185 -6c-115.333 0 -179 3 -191 9c-6 2.66699 -9 8 -9 16zM300 375c0 10.667 3.16699 17.5 9.5 20.5s19.833 4.5 40.5 4.5s34.167 -1.5 40.5 -4.5s9.5 -9.83301 9.5 -20.5
s-3.16699 -17.5 -9.5 -20.5s-19.833 -4.5 -40.5 -4.5s-34.167 1.5 -40.5 4.5s-9.5 9.83301 -9.5 20.5zM0 375c0 10.667 3.16699 17.5 9.5 20.5s19.833 4.5 40.5 4.5s34.167 -1.5 40.5 -4.5s9.5 -9.83301 9.5 -20.5s-3.16699 -17.5 -9.5 -20.5s-19.833 -4.5 -40.5 -4.5
s-34.167 1.5 -40.5 4.5s-9.5 9.83301 -9.5 20.5zM50 475c0 10.667 5 17.334 15 20.001c12.667 3.33301 57.667 5 135 5c86 0 133.667 -3 143 -9c4.66699 -2.66699 7 -8 7 -16c0 -10.667 -5 -17.334 -15 -20.001c-12.667 -3.33301 -57.667 -5 -135 -5
c-86 0 -133.667 3 -143 9c-4.66699 2.66699 -7 8 -7 16z" />
    <glyph glyph-name="f" unicode="f" 
d="M100 75c0 10.667 3.16699 17.5 9.5 20.5s19.833 4.5 40.5 4.5s34.167 -1.5 40.5 -4.5s9.5 -9.83301 9.5 -20.5s-3.16699 -17.5 -9.5 -20.5s-19.833 -4.5 -40.5 -4.5s-34.167 1.5 -40.5 4.5s-9.5 9.83301 -9.5 20.5zM100 175c0 10.667 3.16699 17.5 9.5 20.5
s19.833 4.5 40.5 4.5s34.167 -1.5 40.5 -4.5s9.5 -9.83301 9.5 -20.5s-3.16699 -17.5 -9.5 -20.5s-19.833 -4.5 -40.5 -4.5s-34.167 1.5 -40.5 4.5s-9.5 9.83301 -9.5 20.5zM100 275c0 10.667 3.16699 17.5 9.5 20.5s19.833 4.5 40.5 4.5s34.167 -1.5 40.5 -4.5
s9.5 -9.83301 9.5 -20.5s-3.16699 -17.5 -9.5 -20.5s-19.833 -4.5 -40.5 -4.5s-34.167 1.5 -40.5 4.5s-9.5 9.83301 -9.5 20.5zM0 375c0 10.667 5 17.334 15 20.001c12.667 3.33301 57.667 5 135 5c86 0 133.667 -3 143 -9c4.66699 -2.66699 7 -8 7 -16
c0 -10.667 -5 -17.334 -15 -20.001c-12.667 -3.33301 -57.667 -5 -135 -5c-86 0 -133.667 3 -143 9c-4.66699 2.66699 -7 8 -7 16zM100 475c0 10.667 3.16699 17.5 9.5 20.5s19.833 4.5 40.5 4.5s34.167 -1.5 40.5 -4.5s9.5 -9.83301 9.5 -20.5s-3.16699 -17.5 -9.5 -20.5
s-19.833 -4.5 -40.5 -4.5s-34.167 1.5 -40.5 4.5s-9.5 9.83301 -9.5 20.5zM300 575c0 10.667 3.16699 17.5 9.5 20.5s19.833 4.5 40.5 4.5s34.167 -1.5 40.5 -4.5s9.5 -9.83301 9.5 -20.5s-3.16699 -17.5 -9.5 -20.5s-19.833 -4.5 -40.5 -4.5s-34.167 1.5 -40.5 4.5
s-9.5 9.83301 -9.5 20.5zM100 575c0 10.667 3.16699 17.5 9.5 20.5s19.833 4.5 40.5 4.5s34.167 -1.5 40.5 -4.5s9.5 -9.83301 9.5 -20.5s-3.16699 -17.5 -9.5 -20.5s-19.833 -4.5 -40.5 -4.5s-34.167 1.5 -40.5 4.5s-9.5 9.83301 -9.5 20.5zM150 675
c0 11.333 5.33301 18.333 16 21s38.667 4 84 4s73.333 -1.33301 84 -4s16 -9.66699 16 -21s-5.33301 -18.333 -16 -21s-38.667 -4 -84 -4s-73.333 1.33301 -84 4s-16 9.66699 -16 21z" />
    <glyph glyph-name="g" unicode="g" 
d="M50 -125c0 10.667 5 17.334 15 20.001c12.667 3.33301 57.667 5 135 5c86 0 133.667 -3 143 -9c4.66699 -2.66699 7 -8 7 -16c0 -10.667 -5 -17.334 -15 -20.001c-12.667 -3.33301 -57.667 -5 -135 -5c-86 0 -133.667 3 -143 9c-4.66699 2.66699 -7 8 -7 16zM300 -25
c0 10.667 3.16699 17.5 9.5 20.5s19.833 4.5 40.5 4.5s34.167 -1.5 40.5 -4.5s9.5 -9.83301 9.5 -20.5s-3.16699 -17.5 -9.5 -20.5s-19.833 -4.5 -40.5 -4.5s-34.167 1.5 -40.5 4.5s-9.5 9.83301 -9.5 20.5zM0 -25c0 10.667 3.16699 17.5 9.5 20.5s19.833 4.5 40.5 4.5
s34.167 -1.5 40.5 -4.5s9.5 -9.83301 9.5 -20.5s-3.16699 -17.5 -9.5 -20.5s-19.833 -4.5 -40.5 -4.5s-34.167 1.5 -40.5 4.5s-9.5 9.83301 -9.5 20.5zM50 75c0 10.667 5 17.334 15 20.001c12.667 3.33301 57.667 5 135 5c86 0 133.667 -3 143 -9
c4.66699 -2.66699 7 -8 7 -16c0 -10.667 -5 -17.334 -15 -20.001c-12.667 -3.33301 -57.667 -5 -135 -5c-86 0 -133.667 3 -143 9c-4.66699 2.66699 -7 8 -7 16zM0 175c0 10.667 3.16699 17.5 9.5 20.5s19.833 4.5 40.5 4.5s34.167 -1.5 40.5 -4.5s9.5 -9.83301 9.5 -20.5
s-3.16699 -17.5 -9.5 -20.5s-19.833 -4.5 -40.5 -4.5s-34.167 1.5 -40.5 4.5s-9.5 9.83301 -9.5 20.5zM50 275c0 6 0.833008 10.5 2.5 13.5s7.33398 5.5 17.001 7.5s21.834 3.16699 36.501 3.5s37.667 0.5 69 0.5s54.333 -0.166992 69 -0.5s26.834 -1.5 36.501 -3.5
s15.334 -4.5 17.001 -7.5s2.5 -7.5 2.5 -13.5s-0.833008 -10.5 -2.5 -13.5s-7.33398 -5.5 -17.001 -7.5s-21.834 -3.16699 -36.501 -3.5s-37.667 -0.5 -69 -0.5s-54.333 0.166992 -69 0.5s-26.834 1.5 -36.501 3.5s-15.334 4.5 -17.001 7.5s-2.5 7.5 -2.5 13.5zM250 375
c0 10.667 3.16699 17.5 9.5 20.5s19.833 4.5 40.5 4.5s34.167 -1.5 40.5 -4.5s9.5 -9.83301 9.5 -20.5s-3.16699 -17.5 -9.5 -20.5s-19.833 -4.5 -40.5 -4.5s-34.167 1.5 -40.5 4.5s-9.5 9.83301 -9.5 20.5zM0 375c0 10.667 3.16699 17.5 9.5 20.5s19.833 4.5 40.5 4.5
s34.167 -1.5 40.5 -4.5s9.5 -9.83301 9.5 -20.5s-3.16699 -17.5 -9.5 -20.5s-19.833 -4.5 -40.5 -4.5s-34.167 1.5 -40.5 4.5s-9.5 9.83301 -9.5 20.5zM50 475c0 10 5 16.333 15 19c14.667 4 68 6 160 6c100.667 0 156.334 -3 167.001 -9c5.33301 -2.66699 8 -8 8 -16
c0 -10 -5 -16.333 -15 -19c-14.667 -4 -68 -6 -160 -6c-100.667 0 -156.334 3 -167.001 9c-5.33301 2.66699 -8 8 -8 16z" />
    <glyph glyph-name="h" unicode="h" 
d="M300 75c0 10.667 3.16699 17.5 9.5 20.5s19.833 4.5 40.5 4.5s34.167 -1.5 40.5 -4.5s9.5 -9.83301 9.5 -20.5s-3.16699 -17.5 -9.5 -20.5s-19.833 -4.5 -40.5 -4.5s-34.167 1.5 -40.5 4.5s-9.5 9.83301 -9.5 20.5zM0 75c0 10.667 3.16699 17.5 9.5 20.5
s19.833 4.5 40.5 4.5s34.167 -1.5 40.5 -4.5s9.5 -9.83301 9.5 -20.5s-3.16699 -17.5 -9.5 -20.5s-19.833 -4.5 -40.5 -4.5s-34.167 1.5 -40.5 4.5s-9.5 9.83301 -9.5 20.5zM300 175c0 10.667 3.16699 17.5 9.5 20.5s19.833 4.5 40.5 4.5s34.167 -1.5 40.5 -4.5
s9.5 -9.83301 9.5 -20.5s-3.16699 -17.5 -9.5 -20.5s-19.833 -4.5 -40.5 -4.5s-34.167 1.5 -40.5 4.5s-9.5 9.83301 -9.5 20.5zM0 175c0 10.667 3.16699 17.5 9.5 20.5s19.833 4.5 40.5 4.5s34.167 -1.5 40.5 -4.5s9.5 -9.83301 9.5 -20.5s-3.16699 -17.5 -9.5 -20.5
s-19.833 -4.5 -40.5 -4.5s-34.167 1.5 -40.5 4.5s-9.5 9.83301 -9.5 20.5zM300 275c0 10.667 3.16699 17.5 9.5 20.5s19.833 4.5 40.5 4.5s34.167 -1.5 40.5 -4.5s9.5 -9.83301 9.5 -20.5s-3.16699 -17.5 -9.5 -20.5s-19.833 -4.5 -40.5 -4.5s-34.167 1.5 -40.5 4.5
s-9.5 9.83301 -9.5 20.5zM0 275c0 10.667 3.16699 17.5 9.5 20.5s19.833 4.5 40.5 4.5s34.167 -1.5 40.5 -4.5s9.5 -9.83301 9.5 -20.5s-3.16699 -17.5 -9.5 -20.5s-19.833 -4.5 -40.5 -4.5s-34.167 1.5 -40.5 4.5s-9.5 9.83301 -9.5 20.5zM300 375
c0 10.667 3.16699 17.5 9.5 20.5s19.833 4.5 40.5 4.5s34.167 -1.5 40.5 -4.5s9.5 -9.83301 9.5 -20.5s-3.16699 -17.5 -9.5 -20.5s-19.833 -4.5 -40.5 -4.5s-34.167 1.5 -40.5 4.5s-9.5 9.83301 -9.5 20.5zM0 375c0 11.333 4.33301 18.333 13 21s29.334 4 62.001 4
s53.334 -1.33301 62.001 -4s13 -9.66699 13 -21s-4.33301 -18.333 -13 -21s-29.334 -4 -62.001 -4s-53.334 1.33301 -62.001 4s-13 9.66699 -13 21zM0 475c0 10 5 16.333 15 19c14.667 4 68 6 160 6c100.667 0 156.334 -3 167.001 -9c5.33301 -2.66699 8 -8 8 -16
c0 -10 -5 -16.333 -15 -19c-14.667 -4 -68 -6 -160 -6c-100.667 0 -156.334 3 -167.001 9c-5.33301 2.66699 -8 8 -8 16zM0 575c0 10.667 3.16699 17.5 9.5 20.5s19.833 4.5 40.5 4.5s34.167 -1.5 40.5 -4.5s9.5 -9.83301 9.5 -20.5s-3.16699 -17.5 -9.5 -20.5
s-19.833 -4.5 -40.5 -4.5s-34.167 1.5 -40.5 4.5s-9.5 9.83301 -9.5 20.5zM0 675c0 10.667 3.16699 17.5 9.5 20.5s19.833 4.5 40.5 4.5s34.167 -1.5 40.5 -4.5s9.5 -9.83301 9.5 -20.5s-3.16699 -17.5 -9.5 -20.5s-19.833 -4.5 -40.5 -4.5s-34.167 1.5 -40.5 4.5
s-9.5 9.83301 -9.5 20.5z" />
    <glyph glyph-name="i" unicode="i" 
d="M50 75c0 10.667 5 17.334 15 20.001c12.667 3.33301 57.667 5 135 5c86 0 133.667 -3 143 -9c4.66699 -2.66699 7 -8 7 -16c0 -10.667 -5 -17.334 -15 -20.001c-12.667 -3.33301 -57.667 -5 -135 -5c-86 0 -133.667 3 -143 9c-4.66699 2.66699 -7 8 -7 16zM150 175
c0 10.667 3.16699 17.5 9.5 20.5s19.833 4.5 40.5 4.5s34.167 -1.5 40.5 -4.5s9.5 -9.83301 9.5 -20.5s-3.16699 -17.5 -9.5 -20.5s-19.833 -4.5 -40.5 -4.5s-34.167 1.5 -40.5 4.5s-9.5 9.83301 -9.5 20.5zM150 275c0 10.667 3.16699 17.5 9.5 20.5s19.833 4.5 40.5 4.5
s34.167 -1.5 40.5 -4.5s9.5 -9.83301 9.5 -20.5s-3.16699 -17.5 -9.5 -20.5s-19.833 -4.5 -40.5 -4.5s-34.167 1.5 -40.5 4.5s-9.5 9.83301 -9.5 20.5zM150 375c0 10.667 3.16699 17.5 9.5 20.5s19.833 4.5 40.5 4.5s34.167 -1.5 40.5 -4.5s9.5 -9.83301 9.5 -20.5
s-3.16699 -17.5 -9.5 -20.5s-19.833 -4.5 -40.5 -4.5s-34.167 1.5 -40.5 4.5s-9.5 9.83301 -9.5 20.5zM100 475c0 11.333 4.33301 18.333 13 21s29.334 4 62.001 4s53.334 -1.33301 62.001 -4s13 -9.66699 13 -21s-4.33301 -18.333 -13 -21s-29.334 -4 -62.001 -4
s-53.334 1.33301 -62.001 4s-13 9.66699 -13 21zM150 675c0 10.667 3.16699 17.5 9.5 20.5s19.833 4.5 40.5 4.5s34.167 -1.5 40.5 -4.5s9.5 -9.83301 9.5 -20.5s-3.16699 -17.5 -9.5 -20.5s-19.833 -4.5 -40.5 -4.5s-34.167 1.5 -40.5 4.5s-9.5 9.83301 -9.5 20.5z" />
    <glyph glyph-name="j" unicode="j" 
d="M50 -125c0 6 0.833008 10.5 2.5 13.5s7.33398 5.5 17.001 7.5s21.834 3.16699 36.501 3.5s37.667 0.5 69 0.5s54.333 -0.166992 69 -0.5s26.834 -1.5 36.501 -3.5s15.334 -4.5 17.001 -7.5s2.5 -7.5 2.5 -13.5s-0.833008 -10.5 -2.5 -13.5s-7.33398 -5.5 -17.001 -7.5
s-21.834 -3.16699 -36.501 -3.5s-37.667 -0.5 -69 -0.5s-54.333 0.166992 -69 0.5s-26.834 1.5 -36.501 3.5s-15.334 4.5 -17.001 7.5s-2.5 7.5 -2.5 13.5zM250 -25c0 10.667 3.16699 17.5 9.5 20.5s19.833 4.5 40.5 4.5s34.167 -1.5 40.5 -4.5s9.5 -9.83301 9.5 -20.5
s-3.16699 -17.5 -9.5 -20.5s-19.833 -4.5 -40.5 -4.5s-34.167 1.5 -40.5 4.5s-9.5 9.83301 -9.5 20.5zM0 -25c0 10.667 3.16699 17.5 9.5 20.5s19.833 4.5 40.5 4.5s34.167 -1.5 40.5 -4.5s9.5 -9.83301 9.5 -20.5s-3.16699 -17.5 -9.5 -20.5s-19.833 -4.5 -40.5 -4.5
s-34.167 1.5 -40.5 4.5s-9.5 9.83301 -9.5 20.5zM250 75c0 10.667 3.16699 17.5 9.5 20.5s19.833 4.5 40.5 4.5s34.167 -1.5 40.5 -4.5s9.5 -9.83301 9.5 -20.5s-3.16699 -17.5 -9.5 -20.5s-19.833 -4.5 -40.5 -4.5s-34.167 1.5 -40.5 4.5s-9.5 9.83301 -9.5 20.5zM0 75
c0 10.667 3.16699 17.5 9.5 20.5s19.833 4.5 40.5 4.5s34.167 -1.5 40.5 -4.5s9.5 -9.83301 9.5 -20.5s-3.16699 -17.5 -9.5 -20.5s-19.833 -4.5 -40.5 -4.5s-34.167 1.5 -40.5 4.5s-9.5 9.83301 -9.5 20.5zM250 175c0 10.667 3.16699 17.5 9.5 20.5s19.833 4.5 40.5 4.5
s34.167 -1.5 40.5 -4.5s9.5 -9.83301 9.5 -20.5s-3.16699 -17.5 -9.5 -20.5s-19.833 -4.5 -40.5 -4.5s-34.167 1.5 -40.5 4.5s-9.5 9.83301 -9.5 20.5zM250 275c0 10.667 3.16699 17.5 9.5 20.5s19.833 4.5 40.5 4.5s34.167 -1.5 40.5 -4.5s9.5 -9.83301 9.5 -20.5
s-3.16699 -17.5 -9.5 -20.5s-19.833 -4.5 -40.5 -4.5s-34.167 1.5 -40.5 4.5s-9.5 9.83301 -9.5 20.5zM250 375c0 10.667 3.16699 17.5 9.5 20.5s19.833 4.5 40.5 4.5s34.167 -1.5 40.5 -4.5s9.5 -9.83301 9.5 -20.5s-3.16699 -17.5 -9.5 -20.5s-19.833 -4.5 -40.5 -4.5
s-34.167 1.5 -40.5 4.5s-9.5 9.83301 -9.5 20.5zM250 475c0 10.667 3.16699 17.5 9.5 20.5s19.833 4.5 40.5 4.5s34.167 -1.5 40.5 -4.5s9.5 -9.83301 9.5 -20.5s-3.16699 -17.5 -9.5 -20.5s-19.833 -4.5 -40.5 -4.5s-34.167 1.5 -40.5 4.5s-9.5 9.83301 -9.5 20.5zM250 675
c0 10.667 3.16699 17.5 9.5 20.5s19.833 4.5 40.5 4.5s34.167 -1.5 40.5 -4.5s9.5 -9.83301 9.5 -20.5s-3.16699 -17.5 -9.5 -20.5s-19.833 -4.5 -40.5 -4.5s-34.167 1.5 -40.5 4.5s-9.5 9.83301 -9.5 20.5z" />
    <glyph glyph-name="k" unicode="k" 
d="M300 75c0 10.667 3.16699 17.5 9.5 20.5s19.833 4.5 40.5 4.5s34.167 -1.5 40.5 -4.5s9.5 -9.83301 9.5 -20.5s-3.16699 -17.5 -9.5 -20.5s-19.833 -4.5 -40.5 -4.5s-34.167 1.5 -40.5 4.5s-9.5 9.83301 -9.5 20.5zM0 75c0 10.667 3.16699 17.5 9.5 20.5
s19.833 4.5 40.5 4.5s34.167 -1.5 40.5 -4.5s9.5 -9.83301 9.5 -20.5s-3.16699 -17.5 -9.5 -20.5s-19.833 -4.5 -40.5 -4.5s-34.167 1.5 -40.5 4.5s-9.5 9.83301 -9.5 20.5zM200 175c0 10.667 3.16699 17.5 9.5 20.5s19.833 4.5 40.5 4.5s34.167 -1.5 40.5 -4.5
s9.5 -9.83301 9.5 -20.5s-3.16699 -17.5 -9.5 -20.5s-19.833 -4.5 -40.5 -4.5s-34.167 1.5 -40.5 4.5s-9.5 9.83301 -9.5 20.5zM0 175c0 10.667 3.16699 17.5 9.5 20.5s19.833 4.5 40.5 4.5s34.167 -1.5 40.5 -4.5s9.5 -9.83301 9.5 -20.5s-3.16699 -17.5 -9.5 -20.5
s-19.833 -4.5 -40.5 -4.5s-34.167 1.5 -40.5 4.5s-9.5 9.83301 -9.5 20.5zM0 275c0 11.333 5.33301 18.333 16 21s38.667 4 84 4s73.333 -1.33301 84 -4s16 -9.66699 16 -21s-5.33301 -18.333 -16 -21s-38.667 -4 -84 -4s-73.333 1.33301 -84 4s-16 9.66699 -16 21zM150 375
c0 10.667 3.16699 17.5 9.5 20.5s19.833 4.5 40.5 4.5s34.167 -1.5 40.5 -4.5s9.5 -9.83301 9.5 -20.5s-3.16699 -17.5 -9.5 -20.5s-19.833 -4.5 -40.5 -4.5s-34.167 1.5 -40.5 4.5s-9.5 9.83301 -9.5 20.5zM0 375c0 10.667 3.16699 17.5 9.5 20.5s19.833 4.5 40.5 4.5
s34.167 -1.5 40.5 -4.5s9.5 -9.83301 9.5 -20.5s-3.16699 -17.5 -9.5 -20.5s-19.833 -4.5 -40.5 -4.5s-34.167 1.5 -40.5 4.5s-9.5 9.83301 -9.5 20.5zM200 475c0 10.667 3.16699 17.5 9.5 20.5s19.833 4.5 40.5 4.5s34.167 -1.5 40.5 -4.5s9.5 -9.83301 9.5 -20.5
s-3.16699 -17.5 -9.5 -20.5s-19.833 -4.5 -40.5 -4.5s-34.167 1.5 -40.5 4.5s-9.5 9.83301 -9.5 20.5zM0 475c0 10.667 3.16699 17.5 9.5 20.5s19.833 4.5 40.5 4.5s34.167 -1.5 40.5 -4.5s9.5 -9.83301 9.5 -20.5s-3.16699 -17.5 -9.5 -20.5s-19.833 -4.5 -40.5 -4.5
s-34.167 1.5 -40.5 4.5s-9.5 9.83301 -9.5 20.5zM0 575c0 10.667 3.16699 17.5 9.5 20.5s19.833 4.5 40.5 4.5s34.167 -1.5 40.5 -4.5s9.5 -9.83301 9.5 -20.5s-3.16699 -17.5 -9.5 -20.5s-19.833 -4.5 -40.5 -4.5s-34.167 1.5 -40.5 4.5s-9.5 9.83301 -9.5 20.5zM0 675
c0 10.667 3.16699 17.5 9.5 20.5s19.833 4.5 40.5 4.5s34.167 -1.5 40.5 -4.5s9.5 -9.83301 9.5 -20.5s-3.16699 -17.5 -9.5 -20.5s-19.833 -4.5 -40.5 -4.5s-34.167 1.5 -40.5 4.5s-9.5 9.83301 -9.5 20.5z" />
    <glyph glyph-name="l" unicode="l" 
d="M100 75c0 11.333 5.33301 18.333 16 21s38.667 4 84 4s73.333 -1.33301 84 -4s16 -9.66699 16 -21s-5.33301 -18.333 -16 -21s-38.667 -4 -84 -4s-73.333 1.33301 -84 4s-16 9.66699 -16 21zM150 175c0 10.667 3.16699 17.5 9.5 20.5s19.833 4.5 40.5 4.5
s34.167 -1.5 40.5 -4.5s9.5 -9.83301 9.5 -20.5s-3.16699 -17.5 -9.5 -20.5s-19.833 -4.5 -40.5 -4.5s-34.167 1.5 -40.5 4.5s-9.5 9.83301 -9.5 20.5zM150 275c0 10.667 3.16699 17.5 9.5 20.5s19.833 4.5 40.5 4.5s34.167 -1.5 40.5 -4.5s9.5 -9.83301 9.5 -20.5
s-3.16699 -17.5 -9.5 -20.5s-19.833 -4.5 -40.5 -4.5s-34.167 1.5 -40.5 4.5s-9.5 9.83301 -9.5 20.5zM150 375c0 10.667 3.16699 17.5 9.5 20.5s19.833 4.5 40.5 4.5s34.167 -1.5 40.5 -4.5s9.5 -9.83301 9.5 -20.5s-3.16699 -17.5 -9.5 -20.5s-19.833 -4.5 -40.5 -4.5
s-34.167 1.5 -40.5 4.5s-9.5 9.83301 -9.5 20.5zM150 475c0 10.667 3.16699 17.5 9.5 20.5s19.833 4.5 40.5 4.5s34.167 -1.5 40.5 -4.5s9.5 -9.83301 9.5 -20.5s-3.16699 -17.5 -9.5 -20.5s-19.833 -4.5 -40.5 -4.5s-34.167 1.5 -40.5 4.5s-9.5 9.83301 -9.5 20.5zM150 575
c0 10.667 3.16699 17.5 9.5 20.5s19.833 4.5 40.5 4.5s34.167 -1.5 40.5 -4.5s9.5 -9.83301 9.5 -20.5s-3.16699 -17.5 -9.5 -20.5s-19.833 -4.5 -40.5 -4.5s-34.167 1.5 -40.5 4.5s-9.5 9.83301 -9.5 20.5zM100 675c0 11.333 4.33301 18.333 13 21s29.334 4 62.001 4
s53.334 -1.33301 62.001 -4s13 -9.66699 13 -21s-4.33301 -18.333 -13 -21s-29.334 -4 -62.001 -4s-53.334 1.33301 -62.001 4s-13 9.66699 -13 21z" />
    <glyph glyph-name="m" unicode="m" 
d="M300 75c0 10.667 3.16699 17.5 9.5 20.5s19.833 4.5 40.5 4.5s34.167 -1.5 40.5 -4.5s9.5 -9.83301 9.5 -20.5s-3.16699 -17.5 -9.5 -20.5s-19.833 -4.5 -40.5 -4.5s-34.167 1.5 -40.5 4.5s-9.5 9.83301 -9.5 20.5zM0 75c0 10.667 3.16699 17.5 9.5 20.5
s19.833 4.5 40.5 4.5s34.167 -1.5 40.5 -4.5s9.5 -9.83301 9.5 -20.5s-3.16699 -17.5 -9.5 -20.5s-19.833 -4.5 -40.5 -4.5s-34.167 1.5 -40.5 4.5s-9.5 9.83301 -9.5 20.5zM300 175c0 10.667 3.16699 17.5 9.5 20.5s19.833 4.5 40.5 4.5s34.167 -1.5 40.5 -4.5
s9.5 -9.83301 9.5 -20.5s-3.16699 -17.5 -9.5 -20.5s-19.833 -4.5 -40.5 -4.5s-34.167 1.5 -40.5 4.5s-9.5 9.83301 -9.5 20.5zM150 175c0 10.667 3.16699 17.5 9.5 20.5s19.833 4.5 40.5 4.5s34.167 -1.5 40.5 -4.5s9.5 -9.83301 9.5 -20.5s-3.16699 -17.5 -9.5 -20.5
s-19.833 -4.5 -40.5 -4.5s-34.167 1.5 -40.5 4.5s-9.5 9.83301 -9.5 20.5zM0 175c0 10.667 3.16699 17.5 9.5 20.5s19.833 4.5 40.5 4.5s34.167 -1.5 40.5 -4.5s9.5 -9.83301 9.5 -20.5s-3.16699 -17.5 -9.5 -20.5s-19.833 -4.5 -40.5 -4.5s-34.167 1.5 -40.5 4.5
s-9.5 9.83301 -9.5 20.5zM300 275c0 10.667 3.16699 17.5 9.5 20.5s19.833 4.5 40.5 4.5s34.167 -1.5 40.5 -4.5s9.5 -9.83301 9.5 -20.5s-3.16699 -17.5 -9.5 -20.5s-19.833 -4.5 -40.5 -4.5s-34.167 1.5 -40.5 4.5s-9.5 9.83301 -9.5 20.5zM150 275
c0 10.667 3.16699 17.5 9.5 20.5s19.833 4.5 40.5 4.5s34.167 -1.5 40.5 -4.5s9.5 -9.83301 9.5 -20.5s-3.16699 -17.5 -9.5 -20.5s-19.833 -4.5 -40.5 -4.5s-34.167 1.5 -40.5 4.5s-9.5 9.83301 -9.5 20.5zM0 275c0 10.667 3.16699 17.5 9.5 20.5s19.833 4.5 40.5 4.5
s34.167 -1.5 40.5 -4.5s9.5 -9.83301 9.5 -20.5s-3.16699 -17.5 -9.5 -20.5s-19.833 -4.5 -40.5 -4.5s-34.167 1.5 -40.5 4.5s-9.5 9.83301 -9.5 20.5zM0 375c0 10 5 16.333 15 19c16 4 77.667 6 185 6c115.333 0 179 -3 191 -9c6 -2.66699 9 -8 9 -16
c0 -10 -5 -16.333 -15 -19c-16 -4 -77.667 -6 -185 -6c-115.333 0 -179 3 -191 9c-6 2.66699 -9 8 -9 16zM250 475c0 10.667 3.16699 17.5 9.5 20.5s19.833 4.5 40.5 4.5s34.167 -1.5 40.5 -4.5s9.5 -9.83301 9.5 -20.5s-3.16699 -17.5 -9.5 -20.5s-19.833 -4.5 -40.5 -4.5
s-34.167 1.5 -40.5 4.5s-9.5 9.83301 -9.5 20.5zM0 475c0 11.333 4.33301 18.333 13 21s29.334 4 62.001 4s53.334 -1.33301 62.001 -4s13 -9.66699 13 -21s-4.33301 -18.333 -13 -21s-29.334 -4 -62.001 -4s-53.334 1.33301 -62.001 4s-13 9.66699 -13 21z" />
    <glyph glyph-name="n" unicode="n" 
d="M300 75c0 10.667 3.16699 17.5 9.5 20.5s19.833 4.5 40.5 4.5s34.167 -1.5 40.5 -4.5s9.5 -9.83301 9.5 -20.5s-3.16699 -17.5 -9.5 -20.5s-19.833 -4.5 -40.5 -4.5s-34.167 1.5 -40.5 4.5s-9.5 9.83301 -9.5 20.5zM0 75c0 10.667 3.16699 17.5 9.5 20.5
s19.833 4.5 40.5 4.5s34.167 -1.5 40.5 -4.5s9.5 -9.83301 9.5 -20.5s-3.16699 -17.5 -9.5 -20.5s-19.833 -4.5 -40.5 -4.5s-34.167 1.5 -40.5 4.5s-9.5 9.83301 -9.5 20.5zM300 175c0 10.667 3.16699 17.5 9.5 20.5s19.833 4.5 40.5 4.5s34.167 -1.5 40.5 -4.5
s9.5 -9.83301 9.5 -20.5s-3.16699 -17.5 -9.5 -20.5s-19.833 -4.5 -40.5 -4.5s-34.167 1.5 -40.5 4.5s-9.5 9.83301 -9.5 20.5zM0 175c0 10.667 3.16699 17.5 9.5 20.5s19.833 4.5 40.5 4.5s34.167 -1.5 40.5 -4.5s9.5 -9.83301 9.5 -20.5s-3.16699 -17.5 -9.5 -20.5
s-19.833 -4.5 -40.5 -4.5s-34.167 1.5 -40.5 4.5s-9.5 9.83301 -9.5 20.5zM300 275c0 10.667 3.16699 17.5 9.5 20.5s19.833 4.5 40.5 4.5s34.167 -1.5 40.5 -4.5s9.5 -9.83301 9.5 -20.5s-3.16699 -17.5 -9.5 -20.5s-19.833 -4.5 -40.5 -4.5s-34.167 1.5 -40.5 4.5
s-9.5 9.83301 -9.5 20.5zM0 275c0 10.667 3.16699 17.5 9.5 20.5s19.833 4.5 40.5 4.5s34.167 -1.5 40.5 -4.5s9.5 -9.83301 9.5 -20.5s-3.16699 -17.5 -9.5 -20.5s-19.833 -4.5 -40.5 -4.5s-34.167 1.5 -40.5 4.5s-9.5 9.83301 -9.5 20.5zM300 375
c0 10.667 3.16699 17.5 9.5 20.5s19.833 4.5 40.5 4.5s34.167 -1.5 40.5 -4.5s9.5 -9.83301 9.5 -20.5s-3.16699 -17.5 -9.5 -20.5s-19.833 -4.5 -40.5 -4.5s-34.167 1.5 -40.5 4.5s-9.5 9.83301 -9.5 20.5zM0 375c0 11.333 4.33301 18.333 13 21s29.334 4 62.001 4
s53.334 -1.33301 62.001 -4s13 -9.66699 13 -21s-4.33301 -18.333 -13 -21s-29.334 -4 -62.001 -4s-53.334 1.33301 -62.001 4s-13 9.66699 -13 21zM0 475c0 10 5 16.333 15 19c14.667 4 68 6 160 6c100.667 0 156.334 -3 167.001 -9c5.33301 -2.66699 8 -8 8 -16
c0 -10 -5 -16.333 -15 -19c-14.667 -4 -68 -6 -160 -6c-100.667 0 -156.334 3 -167.001 9c-5.33301 2.66699 -8 8 -8 16z" />
    <glyph glyph-name="o" unicode="o" 
d="M50 75c0 10.667 5 17.334 15 20.001c12.667 3.33301 57.667 5 135 5c86 0 133.667 -3 143 -9c4.66699 -2.66699 7 -8 7 -16c0 -10.667 -5 -17.334 -15 -20.001c-12.667 -3.33301 -57.667 -5 -135 -5c-86 0 -133.667 3 -143 9c-4.66699 2.66699 -7 8 -7 16zM300 175
c0 10.667 3.16699 17.5 9.5 20.5s19.833 4.5 40.5 4.5s34.167 -1.5 40.5 -4.5s9.5 -9.83301 9.5 -20.5s-3.16699 -17.5 -9.5 -20.5s-19.833 -4.5 -40.5 -4.5s-34.167 1.5 -40.5 4.5s-9.5 9.83301 -9.5 20.5zM0 175c0 10.667 3.16699 17.5 9.5 20.5s19.833 4.5 40.5 4.5
s34.167 -1.5 40.5 -4.5s9.5 -9.83301 9.5 -20.5s-3.16699 -17.5 -9.5 -20.5s-19.833 -4.5 -40.5 -4.5s-34.167 1.5 -40.5 4.5s-9.5 9.83301 -9.5 20.5zM300 275c0 10.667 3.16699 17.5 9.5 20.5s19.833 4.5 40.5 4.5s34.167 -1.5 40.5 -4.5s9.5 -9.83301 9.5 -20.5
s-3.16699 -17.5 -9.5 -20.5s-19.833 -4.5 -40.5 -4.5s-34.167 1.5 -40.5 4.5s-9.5 9.83301 -9.5 20.5zM0 275c0 10.667 3.16699 17.5 9.5 20.5s19.833 4.5 40.5 4.5s34.167 -1.5 40.5 -4.5s9.5 -9.83301 9.5 -20.5s-3.16699 -17.5 -9.5 -20.5s-19.833 -4.5 -40.5 -4.5
s-34.167 1.5 -40.5 4.5s-9.5 9.83301 -9.5 20.5zM300 375c0 10.667 3.16699 17.5 9.5 20.5s19.833 4.5 40.5 4.5s34.167 -1.5 40.5 -4.5s9.5 -9.83301 9.5 -20.5s-3.16699 -17.5 -9.5 -20.5s-19.833 -4.5 -40.5 -4.5s-34.167 1.5 -40.5 4.5s-9.5 9.83301 -9.5 20.5zM0 375
c0 10.667 3.16699 17.5 9.5 20.5s19.833 4.5 40.5 4.5s34.167 -1.5 40.5 -4.5s9.5 -9.83301 9.5 -20.5s-3.16699 -17.5 -9.5 -20.5s-19.833 -4.5 -40.5 -4.5s-34.167 1.5 -40.5 4.5s-9.5 9.83301 -9.5 20.5zM50 475c0 10.667 5 17.334 15 20.001
c12.667 3.33301 57.667 5 135 5c86 0 133.667 -3 143 -9c4.66699 -2.66699 7 -8 7 -16c0 -10.667 -5 -17.334 -15 -20.001c-12.667 -3.33301 -57.667 -5 -135 -5c-86 0 -133.667 3 -143 9c-4.66699 2.66699 -7 8 -7 16z" />
    <glyph glyph-name="p" unicode="p" 
d="M0 -125c0 10.667 3.16699 17.5 9.5 20.5s19.833 4.5 40.5 4.5s34.167 -1.5 40.5 -4.5s9.5 -9.83301 9.5 -20.5s-3.16699 -17.5 -9.5 -20.5s-19.833 -4.5 -40.5 -4.5s-34.167 1.5 -40.5 4.5s-9.5 9.83301 -9.5 20.5zM0 -25c0 10.667 3.16699 17.5 9.5 20.5
s19.833 4.5 40.5 4.5s34.167 -1.5 40.5 -4.5s9.5 -9.83301 9.5 -20.5s-3.16699 -17.5 -9.5 -20.5s-19.833 -4.5 -40.5 -4.5s-34.167 1.5 -40.5 4.5s-9.5 9.83301 -9.5 20.5zM0 75c0 10.667 3.16699 17.5 9.5 20.5s19.833 4.5 40.5 4.5s34.167 -1.5 40.5 -4.5
s9.5 -9.83301 9.5 -20.5s-3.16699 -17.5 -9.5 -20.5s-19.833 -4.5 -40.5 -4.5s-34.167 1.5 -40.5 4.5s-9.5 9.83301 -9.5 20.5zM0 175c0 10 5 16.333 15 19c14.667 4 68 6 160 6c100.667 0 156.334 -3 167.001 -9c5.33301 -2.66699 8 -8 8 -16c0 -10 -5 -16.333 -15 -19
c-14.667 -4 -68 -6 -160 -6c-100.667 0 -156.334 3 -167.001 9c-5.33301 2.66699 -8 8 -8 16zM300 275c0 10.667 3.16699 17.5 9.5 20.5s19.833 4.5 40.5 4.5s34.167 -1.5 40.5 -4.5s9.5 -9.83301 9.5 -20.5s-3.16699 -17.5 -9.5 -20.5s-19.833 -4.5 -40.5 -4.5
s-34.167 1.5 -40.5 4.5s-9.5 9.83301 -9.5 20.5zM0 275c0 11.333 4.33301 18.333 13 21s29.334 4 62.001 4s53.334 -1.33301 62.001 -4s13 -9.66699 13 -21s-4.33301 -18.333 -13 -21s-29.334 -4 -62.001 -4s-53.334 1.33301 -62.001 4s-13 9.66699 -13 21zM300 375
c0 10.667 3.16699 17.5 9.5 20.5s19.833 4.5 40.5 4.5s34.167 -1.5 40.5 -4.5s9.5 -9.83301 9.5 -20.5s-3.16699 -17.5 -9.5 -20.5s-19.833 -4.5 -40.5 -4.5s-34.167 1.5 -40.5 4.5s-9.5 9.83301 -9.5 20.5zM0 375c0 11.333 4.33301 18.333 13 21s29.334 4 62.001 4
s53.334 -1.33301 62.001 -4s13 -9.66699 13 -21s-4.33301 -18.333 -13 -21s-29.334 -4 -62.001 -4s-53.334 1.33301 -62.001 4s-13 9.66699 -13 21zM0 475c0 10 5 16.333 15 19c14.667 4 68 6 160 6c100.667 0 156.334 -3 167.001 -9c5.33301 -2.66699 8 -8 8 -16
c0 -10 -5 -16.333 -15 -19c-14.667 -4 -68 -6 -160 -6c-100.667 0 -156.334 3 -167.001 9c-5.33301 2.66699 -8 8 -8 16z" />
    <glyph glyph-name="q" unicode="q" 
d="M300 -125c0 10.667 3.16699 17.5 9.5 20.5s19.833 4.5 40.5 4.5s34.167 -1.5 40.5 -4.5s9.5 -9.83301 9.5 -20.5s-3.16699 -17.5 -9.5 -20.5s-19.833 -4.5 -40.5 -4.5s-34.167 1.5 -40.5 4.5s-9.5 9.83301 -9.5 20.5zM300 -25c0 10.667 3.16699 17.5 9.5 20.5
s19.833 4.5 40.5 4.5s34.167 -1.5 40.5 -4.5s9.5 -9.83301 9.5 -20.5s-3.16699 -17.5 -9.5 -20.5s-19.833 -4.5 -40.5 -4.5s-34.167 1.5 -40.5 4.5s-9.5 9.83301 -9.5 20.5zM300 75c0 10.667 3.16699 17.5 9.5 20.5s19.833 4.5 40.5 4.5s34.167 -1.5 40.5 -4.5
s9.5 -9.83301 9.5 -20.5s-3.16699 -17.5 -9.5 -20.5s-19.833 -4.5 -40.5 -4.5s-34.167 1.5 -40.5 4.5s-9.5 9.83301 -9.5 20.5zM50 175c0 10 5 16.333 15 19c14.667 4 68 6 160 6c100.667 0 156.334 -3 167.001 -9c5.33301 -2.66699 8 -8 8 -16c0 -10 -5 -16.333 -15 -19
c-14.667 -4 -68 -6 -160 -6c-100.667 0 -156.334 3 -167.001 9c-5.33301 2.66699 -8 8 -8 16zM250 275c0 11.333 4.33301 18.333 13 21s29.334 4 62.001 4c33.333 0 54.166 -1.33301 62.499 -4s12.5 -9.66699 12.5 -21s-4.16699 -18.333 -12.5 -21s-29.166 -4 -62.499 -4
c-32.667 0 -53.334 1.33301 -62.001 4s-13 9.66699 -13 21zM0 275c0 10.667 3.16699 17.5 9.5 20.5s19.833 4.5 40.5 4.5s34.167 -1.5 40.5 -4.5s9.5 -9.83301 9.5 -20.5s-3.16699 -17.5 -9.5 -20.5s-19.833 -4.5 -40.5 -4.5s-34.167 1.5 -40.5 4.5s-9.5 9.83301 -9.5 20.5z
M250 375c0 11.333 4.33301 18.333 13 21s29.334 4 62.001 4c33.333 0 54.166 -1.33301 62.499 -4s12.5 -9.66699 12.5 -21s-4.16699 -18.333 -12.5 -21s-29.166 -4 -62.499 -4c-32.667 0 -53.334 1.33301 -62.001 4s-13 9.66699 -13 21zM0 375
c0 10.667 3.16699 17.5 9.5 20.5s19.833 4.5 40.5 4.5s34.167 -1.5 40.5 -4.5s9.5 -9.83301 9.5 -20.5s-3.16699 -17.5 -9.5 -20.5s-19.833 -4.5 -40.5 -4.5s-34.167 1.5 -40.5 4.5s-9.5 9.83301 -9.5 20.5zM50 475c0 10 5 16.333 15 19c14.667 4 68 6 160 6
c100.667 0 156.334 -3 167.001 -9c5.33301 -2.66699 8 -8 8 -16c0 -10 -5 -16.333 -15 -19c-14.667 -4 -68 -6 -160 -6c-100.667 0 -156.334 3 -167.001 9c-5.33301 2.66699 -8 8 -8 16z" />
    <glyph glyph-name="r" unicode="r" 
d="M50 75c0 10.667 3.16699 17.5 9.5 20.5s19.833 4.5 40.5 4.5s34.167 -1.5 40.5 -4.5s9.5 -9.83301 9.5 -20.5s-3.16699 -17.5 -9.5 -20.5s-19.833 -4.5 -40.5 -4.5s-34.167 1.5 -40.5 4.5s-9.5 9.83301 -9.5 20.5zM50 175c0 10.667 3.16699 17.5 9.5 20.5
s19.833 4.5 40.5 4.5s34.167 -1.5 40.5 -4.5s9.5 -9.83301 9.5 -20.5s-3.16699 -17.5 -9.5 -20.5s-19.833 -4.5 -40.5 -4.5s-34.167 1.5 -40.5 4.5s-9.5 9.83301 -9.5 20.5zM50 275c0 10.667 3.16699 17.5 9.5 20.5s19.833 4.5 40.5 4.5s34.167 -1.5 40.5 -4.5
s9.5 -9.83301 9.5 -20.5s-3.16699 -17.5 -9.5 -20.5s-19.833 -4.5 -40.5 -4.5s-34.167 1.5 -40.5 4.5s-9.5 9.83301 -9.5 20.5zM300 375c0 10.667 3.16699 17.5 9.5 20.5s19.833 4.5 40.5 4.5s34.167 -1.5 40.5 -4.5s9.5 -9.83301 9.5 -20.5s-3.16699 -17.5 -9.5 -20.5
s-19.833 -4.5 -40.5 -4.5s-34.167 1.5 -40.5 4.5s-9.5 9.83301 -9.5 20.5zM50 375c0 11.333 4.33301 18.333 13 21s29.334 4 62.001 4s53.334 -1.33301 62.001 -4s13 -9.66699 13 -21s-4.33301 -18.333 -13 -21s-29.334 -4 -62.001 -4s-53.334 1.33301 -62.001 4
s-13 9.66699 -13 21zM150 475c0 11.333 5.33301 18.333 16 21s38.667 4 84 4s73.333 -1.33301 84 -4s16 -9.66699 16 -21s-5.33301 -18.333 -16 -21s-38.667 -4 -84 -4s-73.333 1.33301 -84 4s-16 9.66699 -16 21zM0 475c0 10.667 3.16699 17.5 9.5 20.5
s19.833 4.5 40.5 4.5s34.167 -1.5 40.5 -4.5s9.5 -9.83301 9.5 -20.5s-3.16699 -17.5 -9.5 -20.5s-19.833 -4.5 -40.5 -4.5s-34.167 1.5 -40.5 4.5s-9.5 9.83301 -9.5 20.5z" />
    <glyph glyph-name="s" unicode="s" 
d="M0 75c0 10 5 16.333 15 19c14.667 4 68 6 160 6c100.667 0 156.334 -3 167.001 -9c5.33301 -2.66699 8 -8 8 -16c0 -10 -5 -16.333 -15 -19c-14.667 -4 -68 -6 -160 -6c-100.667 0 -156.334 3 -167.001 9c-5.33301 2.66699 -8 8 -8 16zM300 175
c0 10.667 3.16699 17.5 9.5 20.5s19.833 4.5 40.5 4.5s34.167 -1.5 40.5 -4.5s9.5 -9.83301 9.5 -20.5s-3.16699 -17.5 -9.5 -20.5s-19.833 -4.5 -40.5 -4.5s-34.167 1.5 -40.5 4.5s-9.5 9.83301 -9.5 20.5zM50 275c0 10.667 5 17.334 15 20.001
c12.667 3.33301 57.667 5 135 5c86 0 133.667 -3 143 -9c4.66699 -2.66699 7 -8 7 -16c0 -10.667 -5 -17.334 -15 -20.001c-12.667 -3.33301 -57.667 -5 -135 -5c-86 0 -133.667 3 -143 9c-4.66699 2.66699 -7 8 -7 16zM0 375c0 10.667 3.16699 17.5 9.5 20.5
s19.833 4.5 40.5 4.5s34.167 -1.5 40.5 -4.5s9.5 -9.83301 9.5 -20.5s-3.16699 -17.5 -9.5 -20.5s-19.833 -4.5 -40.5 -4.5s-34.167 1.5 -40.5 4.5s-9.5 9.83301 -9.5 20.5zM50 475c0 10.667 5 17.334 15 20.001c12.667 3.33301 57.667 5 135 5c86 0 133.667 -3 143 -9
c4.66699 -2.66699 7 -8 7 -16c0 -10.667 -5 -17.334 -15 -20.001c-12.667 -3.33301 -57.667 -5 -135 -5c-86 0 -133.667 3 -143 9c-4.66699 2.66699 -7 8 -7 16z" />
    <glyph glyph-name="t" unicode="t" 
d="M150 75c0 11.333 4.33301 18.333 13 21s29.334 4 62.001 4s53.334 -1.33301 62.001 -4s13 -9.66699 13 -21s-4.33301 -18.333 -13 -21s-29.334 -4 -62.001 -4s-53.334 1.33301 -62.001 4s-13 9.66699 -13 21zM250 175c0 10.667 3.16699 17.5 9.5 20.5
s19.833 4.5 40.5 4.5s34.167 -1.5 40.5 -4.5s9.5 -9.83301 9.5 -20.5s-3.16699 -17.5 -9.5 -20.5s-19.833 -4.5 -40.5 -4.5s-34.167 1.5 -40.5 4.5s-9.5 9.83301 -9.5 20.5zM100 175c0 10.667 3.16699 17.5 9.5 20.5s19.833 4.5 40.5 4.5s34.167 -1.5 40.5 -4.5
s9.5 -9.83301 9.5 -20.5s-3.16699 -17.5 -9.5 -20.5s-19.833 -4.5 -40.5 -4.5s-34.167 1.5 -40.5 4.5s-9.5 9.83301 -9.5 20.5zM100 275c0 10.667 3.16699 17.5 9.5 20.5s19.833 4.5 40.5 4.5s34.167 -1.5 40.5 -4.5s9.5 -9.83301 9.5 -20.5s-3.16699 -17.5 -9.5 -20.5
s-19.833 -4.5 -40.5 -4.5s-34.167 1.5 -40.5 4.5s-9.5 9.83301 -9.5 20.5zM100 375c0 10.667 3.16699 17.5 9.5 20.5s19.833 4.5 40.5 4.5s34.167 -1.5 40.5 -4.5s9.5 -9.83301 9.5 -20.5s-3.16699 -17.5 -9.5 -20.5s-19.833 -4.5 -40.5 -4.5s-34.167 1.5 -40.5 4.5
s-9.5 9.83301 -9.5 20.5zM0 475c0 10.667 5 17.334 15 20.001c12.667 3.33301 57.667 5 135 5c86 0 133.667 -3 143 -9c4.66699 -2.66699 7 -8 7 -16c0 -10.667 -5 -17.334 -15 -20.001c-12.667 -3.33301 -57.667 -5 -135 -5c-86 0 -133.667 3 -143 9
c-4.66699 2.66699 -7 8 -7 16zM100 575c0 10.667 3.16699 17.5 9.5 20.5s19.833 4.5 40.5 4.5s34.167 -1.5 40.5 -4.5s9.5 -9.83301 9.5 -20.5s-3.16699 -17.5 -9.5 -20.5s-19.833 -4.5 -40.5 -4.5s-34.167 1.5 -40.5 4.5s-9.5 9.83301 -9.5 20.5zM100 675
c0 10.667 3.16699 17.5 9.5 20.5s19.833 4.5 40.5 4.5s34.167 -1.5 40.5 -4.5s9.5 -9.83301 9.5 -20.5s-3.16699 -17.5 -9.5 -20.5s-19.833 -4.5 -40.5 -4.5s-34.167 1.5 -40.5 4.5s-9.5 9.83301 -9.5 20.5z" />
    </font>
</defs>
</svg>
